<?xml version="1.0" encoding="utf-8" standalone="no"?>
<!DOCTYPE svg PUBLIC "-//W3C//DTD SVG 1.1//EN"
  "http://www.w3.org/Graphics/SVG/1.1/DTD/svg11.dtd">
<!-- Created with matplotlib (https://matplotlib.org/) -->
<svg height="576pt" version="1.1" viewBox="0 0 720 576" width="720pt" xmlns="http://www.w3.org/2000/svg" xmlns:xlink="http://www.w3.org/1999/xlink">
 <metadata>
  <rdf:RDF xmlns:cc="http://creativecommons.org/ns#" xmlns:dc="http://purl.org/dc/elements/1.1/" xmlns:rdf="http://www.w3.org/1999/02/22-rdf-syntax-ns#">
   <cc:Work>
    <dc:type rdf:resource="http://purl.org/dc/dcmitype/StillImage"/>
    <dc:date>2025-03-10T14:14:18.823506</dc:date>
    <dc:format>image/svg+xml</dc:format>
    <dc:creator>
     <cc:Agent>
      <dc:title>Matplotlib v3.3.4, https://matplotlib.org/</dc:title>
     </cc:Agent>
    </dc:creator>
   </cc:Work>
  </rdf:RDF>
 </metadata>
 <defs>
  <style type="text/css">*{stroke-linecap:butt;stroke-linejoin:round;}</style>
 </defs>
 <g id="figure_1">
  <g id="patch_1">
   <path d="M 0 576 
L 720 576 
L 720 0 
L 0 0 
z
" style="fill:#ffffff;"/>
  </g>
  <g id="axes_1">
   <g id="patch_2">
    <path d="M 71.17 561.7 
L 709.2 561.7 
L 709.2 10.8 
L 71.17 10.8 
z
" style="fill:#ffffff;"/>
   </g>
   <g id="patch_3">
    <path clip-path="url(#p2c92a3f483)" d="M 71.17 523.137 
L 326.382 313.795 
L 71.17 104.453 
z
" style="stroke:#000000;stroke-linejoin:miter;"/>
   </g>
   <g id="patch_4">
    <path clip-path="url(#p2c92a3f483)" d="M 71.17 82.417 
L 326.382 52.1175 
L 71.17 21.818 
z
" style="stroke:#000000;stroke-linejoin:miter;"/>
   </g>
   <g id="matplotlib.axis_1">
    <g id="xtick_1">
     <g id="line2d_1">
      <defs>
       <path d="M 0 0 
L 0 3.5 
" id="m3dbdd93974" style="stroke:#000000;stroke-width:0.8;"/>
      </defs>
      <g>
       <use style="stroke:#000000;stroke-width:0.8;" x="71.17" xlink:href="#m3dbdd93974" y="561.7"/>
      </g>
     </g>
    </g>
   </g>
   <g id="matplotlib.axis_2">
    <g id="ytick_1">
     <g id="line2d_2">
      <defs>
       <path d="M 0 0 
L -3.5 0 
" id="mf0c805d138" style="stroke:#000000;stroke-width:0.8;"/>
      </defs>
      <g>
       <use style="stroke:#000000;stroke-width:0.8;" x="71.17" xlink:href="#mf0c805d138" y="547.9275"/>
      </g>
     </g>
     <g id="text_1">
      <!-- OQ555808 -->
      <g transform="translate(15.254375 551.572813)scale(0.1 -0.1)">
       <defs>
        <path d="M 38.90625 74.09375 
C 18 74.09375 3.796875 58.703125 3.796875 35.90625 
C 3.796875 13 17.90625 -2.296875 39 -2.296875 
C 47.90625 -2.296875 55.703125 0.40625 61.59375 5.40625 
C 69.5 12.09375 74.203125 23.40625 74.203125 35.296875 
C 74.203125 58.796875 60.296875 74.09375 38.90625 74.09375 
z
M 38.90625 65.90625 
C 54.703125 65.90625 64.90625 54 64.90625 35.5 
C 64.90625 17.90625 54.40625 5.90625 39 5.90625 
C 23.40625 5.90625 13.09375 17.90625 13.09375 35.90625 
C 13.09375 53.90625 23.40625 65.90625 38.90625 65.90625 
z
" id="NimbusSans-Regular-79"/>
        <path d="M 73.296875 -0.09375 
L 63.90625 7.59375 
C 70.796875 15.203125 74.203125 24.5 74.203125 36.09375 
C 74.203125 58.796875 60 74.09375 39 74.09375 
C 17.90625 74.09375 3.796875 58.796875 3.796875 35.90625 
C 3.796875 13.09375 17.90625 -2.296875 39 -2.296875 
C 46.296875 -2.296875 52.203125 -0.703125 58.09375 2.796875 
L 68.59375 -5.90625 
z
M 48.09375 20.5 
L 43.5 14.90625 
L 50.90625 8.703125 
C 46.59375 6.59375 43.296875 5.90625 38.90625 5.90625 
C 23.40625 5.90625 13.09375 17.90625 13.09375 35.90625 
C 13.09375 53.90625 23.40625 65.90625 39 65.90625 
C 54.5 65.90625 64.90625 53.90625 64.90625 36 
C 64.90625 26.5 62.40625 19.296875 57 13.203125 
z
" id="NimbusSans-Regular-81"/>
        <path d="M 47.59375 70.90625 
L 11 70.90625 
L 5.703125 32.296875 
L 13.796875 32.296875 
C 17.90625 37.203125 21.296875 38.90625 26.90625 38.90625 
C 36.40625 38.90625 42.296875 32.40625 42.296875 21.90625 
C 42.296875 11.703125 36.40625 5.5 26.796875 5.5 
C 19.09375 5.5 14.40625 9.40625 12.296875 17.40625 
L 3.5 17.40625 
C 4.703125 11.59375 5.703125 8.796875 7.796875 6.203125 
C 11.796875 0.796875 19 -2.296875 27 -2.296875 
C 41.296875 -2.296875 51.296875 8.09375 51.296875 23.09375 
C 51.296875 37.09375 42 46.703125 28.40625 46.703125 
C 23.40625 46.703125 19.40625 45.40625 15.296875 42.40625 
L 18.09375 62.203125 
L 47.59375 62.203125 
z
" id="NimbusSans-Regular-53"/>
        <path d="M 39.09375 38.09375 
C 46.5 42.59375 48.796875 46.203125 48.796875 53 
C 48.796875 64.40625 40.09375 72.296875 27.5 72.296875 
C 15 72.296875 6.203125 64.40625 6.203125 53.09375 
C 6.203125 46.203125 8.5 42.703125 15.796875 38.09375 
C 7.703125 34 3.703125 28.09375 3.703125 20.09375 
C 3.703125 6.90625 13.40625 -2.296875 27.5 -2.296875 
C 41.5 -2.296875 51.296875 6.90625 51.296875 20.09375 
C 51.296875 28.09375 47.296875 34 39.09375 38.09375 
z
M 27.5 64.5 
C 35 64.5 39.796875 60 39.796875 52.796875 
C 39.796875 46 34.90625 41.5 27.5 41.5 
C 20 41.5 15.203125 46 15.203125 53 
C 15.203125 60 20 64.5 27.5 64.5 
z
M 27.5 34.09375 
C 36.296875 34.09375 42.296875 28.296875 42.296875 19.90625 
C 42.296875 11.203125 36.40625 5.5 27.296875 5.5 
C 18.703125 5.5 12.703125 11.40625 12.703125 19.796875 
C 12.703125 28.40625 18.59375 34.09375 27.5 34.09375 
z
" id="NimbusSans-Regular-56"/>
        <path d="M 27.5 72.296875 
C 20.90625 72.296875 14.90625 69.296875 11.203125 64.40625 
C 6.59375 58 4.296875 48.40625 4.296875 35 
C 4.296875 10.59375 12.296875 -2.296875 27.5 -2.296875 
C 42.5 -2.296875 50.703125 10.59375 50.703125 34.40625 
C 50.703125 48.40625 48.5 57.796875 43.796875 64.40625 
C 40.09375 69.40625 34.203125 72.296875 27.5 72.296875 
z
M 27.5 64.5 
C 37 64.5 41.703125 54.796875 41.703125 35.203125 
C 41.703125 14.59375 37.09375 5 27.296875 5 
C 18 5 13.296875 15 13.296875 34.90625 
C 13.296875 54.796875 18 64.5 27.5 64.5 
z
" id="NimbusSans-Regular-48"/>
       </defs>
       <use xlink:href="#NimbusSans-Regular-79"/>
       <use x="77.799988" xlink:href="#NimbusSans-Regular-81"/>
       <use x="155.599976" xlink:href="#NimbusSans-Regular-53"/>
       <use x="211.199966" xlink:href="#NimbusSans-Regular-53"/>
       <use x="266.799957" xlink:href="#NimbusSans-Regular-53"/>
       <use x="322.399948" xlink:href="#NimbusSans-Regular-56"/>
       <use x="377.999939" xlink:href="#NimbusSans-Regular-48"/>
       <use x="433.59993" xlink:href="#NimbusSans-Regular-56"/>
      </g>
     </g>
    </g>
    <g id="ytick_2">
     <g id="line2d_3">
      <g>
       <use style="stroke:#000000;stroke-width:0.8;" x="71.17" xlink:href="#mf0c805d138" y="520.3825"/>
      </g>
     </g>
     <g id="text_2">
      <!-- KY695241 -->
      <g transform="translate(17.473125 524.027812)scale(0.1 -0.1)">
       <defs>
        <path d="M 17.203125 25.5 
L 29.09375 37.40625 
L 54.796875 0 
L 65.796875 0 
L 35.796875 43.203125 
L 65.5 72.90625 
L 53.5 72.90625 
L 17.203125 36 
L 17.203125 72.90625 
L 7.90625 72.90625 
L 7.90625 0 
L 17.203125 0 
z
" id="NimbusSans-Regular-75"/>
        <path d="M 38.703125 28.59375 
L 66.09375 72.90625 
L 55 72.90625 
L 34.203125 37.40625 
L 12.796875 72.90625 
L 1.296875 72.90625 
L 29.40625 28.59375 
L 29.40625 0 
L 38.703125 0 
z
" id="NimbusSans-Regular-89"/>
        <path d="M 49.796875 53.5 
C 48.09375 65.296875 40.5 72.296875 29.703125 72.296875 
C 21.90625 72.296875 14.90625 68.5 10.703125 62 
C 6.203125 54.90625 4.296875 46.09375 4.296875 33 
C 4.296875 20.796875 6 13.09375 10.296875 6.703125 
C 14.09375 0.796875 20.296875 -2.296875 28.09375 -2.296875 
C 41.59375 -2.296875 51.296875 7.796875 51.296875 21.90625 
C 51.296875 35.203125 42.296875 44.59375 29.59375 44.59375 
C 22.59375 44.59375 17.09375 42 13.296875 36.703125 
C 13.40625 54.59375 19 64.5 29.09375 64.5 
C 35.296875 64.5 39.59375 60.5 41 53.5 
z
M 28.5 36.796875 
C 37 36.796875 42.296875 30.796875 42.296875 21.203125 
C 42.296875 12.09375 36.296875 5.5 28.203125 5.5 
C 20 5.5 13.796875 12.40625 13.796875 21.59375 
C 13.796875 30.59375 19.796875 36.796875 28.5 36.796875 
z
" id="NimbusSans-Regular-54"/>
        <path d="M 5.296875 16.5 
C 7 4.703125 14.59375 -2.296875 25.40625 -2.296875 
C 33.296875 -2.296875 40.296875 1.5 44.5 8 
C 48.90625 15.09375 50.90625 23.90625 50.90625 37 
C 50.90625 49.203125 49.09375 56.90625 44.90625 63.296875 
C 41 69.203125 34.796875 72.296875 27 72.296875 
C 13.5 72.296875 3.796875 62.203125 3.796875 48.203125 
C 3.796875 34.90625 12.796875 25.5 25.59375 25.5 
C 32.296875 25.5 37.296875 27.90625 41.796875 33.40625 
C 41.703125 15.40625 36.09375 5.5 26 5.5 
C 19.796875 5.5 15.5 9.5 14.09375 16.5 
z
M 26.90625 64.59375 
C 35.09375 64.59375 41.296875 57.703125 41.296875 48.40625 
C 41.296875 39.5 35.296875 33.296875 26.59375 33.296875 
C 18.09375 33.296875 12.796875 39.296875 12.796875 48.90625 
C 12.796875 58 18.703125 64.59375 26.90625 64.59375 
z
" id="NimbusSans-Regular-57"/>
        <path d="M 50.59375 8.703125 
L 13.296875 8.703125 
C 14.203125 14.703125 17.40625 18.5 26.09375 23.796875 
L 36.09375 29.40625 
C 46 34.90625 51.09375 42.296875 51.09375 51.203125 
C 51.09375 57.203125 48.703125 62.796875 44.5 66.703125 
C 40.296875 70.5 35.09375 72.296875 28.40625 72.296875 
C 19.40625 72.296875 12.703125 69.09375 8.796875 62.90625 
C 6.296875 59.09375 5.203125 54.59375 5 47.296875 
L 13.796875 47.296875 
C 14.09375 52.203125 14.703125 55.09375 15.90625 57.5 
C 18.203125 61.90625 22.796875 64.59375 28.09375 64.59375 
C 36.09375 64.59375 42.09375 58.796875 42.09375 51 
C 42.09375 45.203125 38.796875 40.203125 32.5 36.59375 
L 23.296875 31.203125 
C 8.5 22.703125 4.203125 15.90625 3.40625 0.09375 
L 50.59375 0.09375 
z
" id="NimbusSans-Regular-50"/>
        <path d="M 32.703125 17.5 
L 32.703125 0 
L 41.5 0 
L 41.5 17.5 
L 52 17.5 
L 52 25.40625 
L 41.5 25.40625 
L 41.5 72.296875 
L 35 72.296875 
L 2.796875 26.796875 
L 2.796875 17.5 
z
M 32.703125 25.40625 
L 10.5 25.40625 
L 32.703125 57.296875 
z
" id="NimbusSans-Regular-52"/>
        <path d="M 25.90625 51.5 
L 25.90625 0 
L 34.703125 0 
L 34.703125 72.296875 
L 28.90625 72.296875 
C 25.796875 61.203125 23.796875 59.703125 10.203125 57.90625 
L 10.203125 51.5 
z
" id="NimbusSans-Regular-49"/>
       </defs>
       <use xlink:href="#NimbusSans-Regular-75"/>
       <use x="66.699997" xlink:href="#NimbusSans-Regular-89"/>
       <use x="133.399994" xlink:href="#NimbusSans-Regular-54"/>
       <use x="188.999985" xlink:href="#NimbusSans-Regular-57"/>
       <use x="244.599976" xlink:href="#NimbusSans-Regular-53"/>
       <use x="300.199966" xlink:href="#NimbusSans-Regular-50"/>
       <use x="355.799957" xlink:href="#NimbusSans-Regular-52"/>
       <use x="411.399948" xlink:href="#NimbusSans-Regular-49"/>
      </g>
     </g>
    </g>
    <g id="ytick_3">
     <g id="line2d_4">
      <g>
       <use style="stroke:#000000;stroke-width:0.8;" x="71.17" xlink:href="#mf0c805d138" y="492.8375"/>
      </g>
     </g>
     <g id="text_3">
      <!-- HQ906664 -->
      <g transform="translate(15.81375 496.482813)scale(0.1 -0.1)">
       <defs>
        <path d="M 55.09375 33.203125 
L 55.09375 0 
L 64.40625 0 
L 64.40625 72.90625 
L 55.09375 72.90625 
L 55.09375 41.40625 
L 17.59375 41.40625 
L 17.59375 72.90625 
L 8.296875 72.90625 
L 8.296875 0 
L 17.59375 0 
L 17.59375 33.203125 
z
" id="NimbusSans-Regular-72"/>
       </defs>
       <use xlink:href="#NimbusSans-Regular-72"/>
       <use x="72.199982" xlink:href="#NimbusSans-Regular-81"/>
       <use x="149.999969" xlink:href="#NimbusSans-Regular-57"/>
       <use x="205.59996" xlink:href="#NimbusSans-Regular-48"/>
       <use x="261.199951" xlink:href="#NimbusSans-Regular-54"/>
       <use x="316.799942" xlink:href="#NimbusSans-Regular-54"/>
       <use x="372.399933" xlink:href="#NimbusSans-Regular-54"/>
       <use x="427.999924" xlink:href="#NimbusSans-Regular-52"/>
      </g>
     </g>
    </g>
    <g id="ytick_4">
     <g id="line2d_5">
      <g>
       <use style="stroke:#000000;stroke-width:0.8;" x="71.17" xlink:href="#mf0c805d138" y="465.2925"/>
      </g>
     </g>
     <g id="text_4">
      <!-- MK448228 -->
      <g transform="translate(15.81375 468.937813)scale(0.1 -0.1)">
       <defs>
        <path d="M 46.796875 0 
L 67.296875 61.09375 
L 67.296875 0 
L 76.09375 0 
L 76.09375 72.90625 
L 63.203125 72.90625 
L 42 9.40625 
L 20.40625 72.90625 
L 7.5 72.90625 
L 7.5 0 
L 16.296875 0 
L 16.296875 61.09375 
L 37 0 
z
" id="NimbusSans-Regular-77"/>
       </defs>
       <use xlink:href="#NimbusSans-Regular-77"/>
       <use x="83.299988" xlink:href="#NimbusSans-Regular-75"/>
       <use x="149.999985" xlink:href="#NimbusSans-Regular-52"/>
       <use x="205.599976" xlink:href="#NimbusSans-Regular-52"/>
       <use x="261.199966" xlink:href="#NimbusSans-Regular-56"/>
       <use x="316.799957" xlink:href="#NimbusSans-Regular-50"/>
       <use x="372.399948" xlink:href="#NimbusSans-Regular-50"/>
       <use x="427.999939" xlink:href="#NimbusSans-Regular-56"/>
      </g>
     </g>
    </g>
    <g id="ytick_5">
     <g id="line2d_6">
      <g>
       <use style="stroke:#000000;stroke-width:0.8;" x="71.17" xlink:href="#mf0c805d138" y="437.7475"/>
      </g>
     </g>
     <g id="text_5">
      <!-- ON470608 -->
      <g transform="translate(15.81375 441.392812)scale(0.1 -0.1)">
       <defs>
        <path d="M 64.59375 72.90625 
L 55.796875 72.90625 
L 55.796875 13.296875 
L 17.703125 72.90625 
L 7.59375 72.90625 
L 7.59375 0 
L 16.40625 0 
L 16.40625 59.09375 
L 54.09375 0 
L 64.59375 0 
z
" id="NimbusSans-Regular-78"/>
        <path d="M 52 70.90625 
L 4.59375 70.90625 
L 4.59375 62.203125 
L 42.90625 62.203125 
C 26 38.09375 19.09375 23.296875 13.796875 0 
L 23.203125 0 
C 27.09375 22.703125 36 42.203125 52 63.5 
z
" id="NimbusSans-Regular-55"/>
       </defs>
       <use xlink:href="#NimbusSans-Regular-79"/>
       <use x="77.799988" xlink:href="#NimbusSans-Regular-78"/>
       <use x="149.999969" xlink:href="#NimbusSans-Regular-52"/>
       <use x="205.59996" xlink:href="#NimbusSans-Regular-55"/>
       <use x="261.199951" xlink:href="#NimbusSans-Regular-48"/>
       <use x="316.799942" xlink:href="#NimbusSans-Regular-54"/>
       <use x="372.399933" xlink:href="#NimbusSans-Regular-48"/>
       <use x="427.999924" xlink:href="#NimbusSans-Regular-56"/>
      </g>
     </g>
    </g>
    <g id="ytick_6">
     <g id="line2d_7">
      <g>
       <use style="stroke:#000000;stroke-width:0.8;" x="71.17" xlink:href="#mf0c805d138" y="410.2025"/>
      </g>
     </g>
     <g id="text_6">
      <!-- EU982300 -->
      <g transform="translate(16.923125 413.847812)scale(0.1 -0.1)">
       <defs>
        <path d="M 18.296875 33.203125 
L 58 33.203125 
L 58 41.40625 
L 18.296875 41.40625 
L 18.296875 64.703125 
L 59.5 64.703125 
L 59.5 72.90625 
L 9 72.90625 
L 9 0 
L 61.296875 0 
L 61.296875 8.203125 
L 18.296875 8.203125 
z
" id="NimbusSans-Regular-69"/>
        <path d="M 55.203125 72.90625 
L 55.203125 21.703125 
C 55.203125 11.90625 48.09375 5.90625 36.40625 5.90625 
C 31 5.90625 26.59375 7.203125 23.09375 9.703125 
C 19.5 12.5 17.796875 16.203125 17.796875 21.703125 
L 17.796875 72.90625 
L 8.5 72.90625 
L 8.5 21.703125 
C 8.5 6.90625 19.09375 -2.296875 36.40625 -2.296875 
C 53.5 -2.296875 64.5 7.09375 64.5 21.703125 
L 64.5 72.90625 
z
" id="NimbusSans-Regular-85"/>
        <path d="M 22.09375 33.296875 
L 23.203125 33.296875 
L 26.90625 33.296875 
C 36.5 33.296875 41.59375 28.796875 41.59375 20.09375 
C 41.59375 11 36.09375 5.5 27 5.5 
C 17.296875 5.5 12.59375 10.40625 12 21 
L 3.203125 21 
C 3.59375 15.203125 4.59375 11.40625 6.296875 8.203125 
C 10 1.203125 16.90625 -2.296875 26.59375 -2.296875 
C 41.203125 -2.296875 50.59375 6.5 50.59375 20.203125 
C 50.59375 29.40625 47.09375 34.40625 38.59375 37.40625 
C 45.203125 40.09375 48.5 45.09375 48.5 52.40625 
C 48.5 64.796875 40.40625 72.296875 26.90625 72.296875 
C 12.59375 72.296875 5 64.296875 4.703125 49 
L 13.5 49 
C 13.59375 53.40625 14 55.90625 15.09375 58.09375 
C 17.09375 62.203125 21.5 64.59375 27 64.59375 
C 34.796875 64.59375 39.5 59.90625 39.5 52.09375 
C 39.5 47 37.703125 43.90625 33.796875 42.203125 
C 31.40625 41.203125 28.203125 40.796875 22.09375 40.703125 
z
" id="NimbusSans-Regular-51"/>
       </defs>
       <use xlink:href="#NimbusSans-Regular-69"/>
       <use x="66.699997" xlink:href="#NimbusSans-Regular-85"/>
       <use x="138.899979" xlink:href="#NimbusSans-Regular-57"/>
       <use x="194.499969" xlink:href="#NimbusSans-Regular-56"/>
       <use x="250.09996" xlink:href="#NimbusSans-Regular-50"/>
       <use x="305.699951" xlink:href="#NimbusSans-Regular-51"/>
       <use x="361.299942" xlink:href="#NimbusSans-Regular-48"/>
       <use x="416.899933" xlink:href="#NimbusSans-Regular-48"/>
      </g>
     </g>
    </g>
    <g id="ytick_7">
     <g id="line2d_8">
      <g>
       <use style="stroke:#000000;stroke-width:0.8;" x="71.17" xlink:href="#mf0c805d138" y="382.6575"/>
      </g>
     </g>
     <g id="text_7">
      <!-- MZ422438 -->
      <g transform="translate(16.374688 386.302812)scale(0.1 -0.1)">
       <defs>
        <path d="M 58.09375 72.90625 
L 5.59375 72.90625 
L 5.59375 64.703125 
L 46.59375 64.703125 
L 2.796875 8.203125 
L 2.796875 0 
L 58.296875 0 
L 58.296875 8.203125 
L 14.5 8.203125 
L 58.09375 64.5 
z
" id="NimbusSans-Regular-90"/>
       </defs>
       <use xlink:href="#NimbusSans-Regular-77"/>
       <use x="83.299988" xlink:href="#NimbusSans-Regular-90"/>
       <use x="144.399979" xlink:href="#NimbusSans-Regular-52"/>
       <use x="199.999969" xlink:href="#NimbusSans-Regular-50"/>
       <use x="255.59996" xlink:href="#NimbusSans-Regular-50"/>
       <use x="311.199951" xlink:href="#NimbusSans-Regular-52"/>
       <use x="366.799942" xlink:href="#NimbusSans-Regular-51"/>
       <use x="422.399933" xlink:href="#NimbusSans-Regular-56"/>
      </g>
     </g>
    </g>
    <g id="ytick_8">
     <g id="line2d_9">
      <g>
       <use style="stroke:#000000;stroke-width:0.8;" x="71.17" xlink:href="#mf0c805d138" y="355.1125"/>
      </g>
     </g>
     <g id="text_8">
      <!-- MZ422438 -->
      <g transform="translate(16.374688 358.757812)scale(0.1 -0.1)">
       <use xlink:href="#NimbusSans-Regular-77"/>
       <use x="83.299988" xlink:href="#NimbusSans-Regular-90"/>
       <use x="144.399979" xlink:href="#NimbusSans-Regular-52"/>
       <use x="199.999969" xlink:href="#NimbusSans-Regular-50"/>
       <use x="255.59996" xlink:href="#NimbusSans-Regular-50"/>
       <use x="311.199951" xlink:href="#NimbusSans-Regular-52"/>
       <use x="366.799942" xlink:href="#NimbusSans-Regular-51"/>
       <use x="422.399933" xlink:href="#NimbusSans-Regular-56"/>
      </g>
     </g>
    </g>
    <g id="ytick_9">
     <g id="line2d_10">
      <g>
       <use style="stroke:#000000;stroke-width:0.8;" x="71.17" xlink:href="#mf0c805d138" y="327.5675"/>
      </g>
     </g>
     <g id="text_9">
      <!-- MZ422438 -->
      <g transform="translate(16.374688 331.212812)scale(0.1 -0.1)">
       <use xlink:href="#NimbusSans-Regular-77"/>
       <use x="83.299988" xlink:href="#NimbusSans-Regular-90"/>
       <use x="144.399979" xlink:href="#NimbusSans-Regular-52"/>
       <use x="199.999969" xlink:href="#NimbusSans-Regular-50"/>
       <use x="255.59996" xlink:href="#NimbusSans-Regular-50"/>
       <use x="311.199951" xlink:href="#NimbusSans-Regular-52"/>
       <use x="366.799942" xlink:href="#NimbusSans-Regular-51"/>
       <use x="422.399933" xlink:href="#NimbusSans-Regular-56"/>
      </g>
     </g>
    </g>
    <g id="ytick_10">
     <g id="line2d_11">
      <g>
       <use style="stroke:#000000;stroke-width:0.8;" x="71.17" xlink:href="#mf0c805d138" y="300.0225"/>
      </g>
     </g>
     <g id="text_10">
      <!-- MZ422438 -->
      <g transform="translate(16.374688 303.667812)scale(0.1 -0.1)">
       <use xlink:href="#NimbusSans-Regular-77"/>
       <use x="83.299988" xlink:href="#NimbusSans-Regular-90"/>
       <use x="144.399979" xlink:href="#NimbusSans-Regular-52"/>
       <use x="199.999969" xlink:href="#NimbusSans-Regular-50"/>
       <use x="255.59996" xlink:href="#NimbusSans-Regular-50"/>
       <use x="311.199951" xlink:href="#NimbusSans-Regular-52"/>
       <use x="366.799942" xlink:href="#NimbusSans-Regular-51"/>
       <use x="422.399933" xlink:href="#NimbusSans-Regular-56"/>
      </g>
     </g>
    </g>
    <g id="ytick_11">
     <g id="line2d_12">
      <g>
       <use style="stroke:#000000;stroke-width:0.8;" x="71.17" xlink:href="#mf0c805d138" y="272.4775"/>
      </g>
     </g>
     <g id="text_11">
      <!-- MW749003 -->
      <g transform="translate(13.043437 276.122812)scale(0.1 -0.1)">
       <defs>
        <path d="M 74.40625 0 
L 92.90625 72.90625 
L 82.5 72.90625 
L 69.09375 13.703125 
L 52.5 72.90625 
L 42.5 72.90625 
L 26.296875 13.703125 
L 12.59375 72.90625 
L 2.203125 72.90625 
L 20.90625 0 
L 31.09375 0 
L 47.40625 59.90625 
L 64.203125 0 
z
" id="NimbusSans-Regular-87"/>
       </defs>
       <use xlink:href="#NimbusSans-Regular-77"/>
       <use x="83.299988" xlink:href="#NimbusSans-Regular-87"/>
       <use x="177.699982" xlink:href="#NimbusSans-Regular-55"/>
       <use x="233.299973" xlink:href="#NimbusSans-Regular-52"/>
       <use x="288.899963" xlink:href="#NimbusSans-Regular-57"/>
       <use x="344.499954" xlink:href="#NimbusSans-Regular-48"/>
       <use x="400.099945" xlink:href="#NimbusSans-Regular-48"/>
       <use x="455.699936" xlink:href="#NimbusSans-Regular-51"/>
      </g>
     </g>
    </g>
    <g id="ytick_12">
     <g id="line2d_13">
      <g>
       <use style="stroke:#000000;stroke-width:0.8;" x="71.17" xlink:href="#mf0c805d138" y="244.9325"/>
      </g>
     </g>
     <g id="text_12">
      <!-- NC_043027 -->
      <g transform="translate(10.81375 248.577812)scale(0.1 -0.1)">
       <defs>
        <path d="M 66.203125 50.296875 
C 63.296875 66.296875 54.09375 74.09375 38.09375 74.09375 
C 28.296875 74.09375 20.40625 71 15 65 
C 8.40625 57.796875 4.796875 47.40625 4.796875 35.59375 
C 4.796875 23.59375 8.5 13.296875 15.296875 6.203125 
C 21 0.40625 28.203125 -2.296875 37.703125 -2.296875 
C 55.5 -2.296875 65.5 7.296875 67.703125 26.59375 
L 58.09375 26.59375 
C 57.296875 21.59375 56.296875 18.203125 54.796875 15.296875 
C 51.796875 9.296875 45.59375 5.90625 37.796875 5.90625 
C 23.296875 5.90625 14.09375 17.5 14.09375 35.703125 
C 14.09375 54.40625 22.796875 65.90625 37 65.90625 
C 42.90625 65.90625 48.40625 64.203125 51.40625 61.296875 
C 54.09375 58.796875 55.59375 55.796875 56.703125 50.296875 
z
" id="NimbusSans-Regular-67"/>
        <path d="M 57.796875 -12.59375 
L -2.203125 -12.59375 
L -2.203125 -17.59375 
L 57.796875 -17.59375 
z
" id="NimbusSans-Regular-95"/>
       </defs>
       <use xlink:href="#NimbusSans-Regular-78"/>
       <use x="72.199982" xlink:href="#NimbusSans-Regular-67"/>
       <use x="144.399963" xlink:href="#NimbusSans-Regular-95"/>
       <use x="199.999954" xlink:href="#NimbusSans-Regular-48"/>
       <use x="255.599945" xlink:href="#NimbusSans-Regular-52"/>
       <use x="311.199936" xlink:href="#NimbusSans-Regular-51"/>
       <use x="366.799927" xlink:href="#NimbusSans-Regular-48"/>
       <use x="422.399918" xlink:href="#NimbusSans-Regular-50"/>
       <use x="477.999908" xlink:href="#NimbusSans-Regular-55"/>
      </g>
     </g>
    </g>
    <g id="ytick_13">
     <g id="line2d_14">
      <g>
       <use style="stroke:#000000;stroke-width:0.8;" x="71.17" xlink:href="#mf0c805d138" y="217.3875"/>
      </g>
     </g>
     <g id="text_13">
      <!-- NC_031039 -->
      <g transform="translate(10.81375 221.032812)scale(0.1 -0.1)">
       <use xlink:href="#NimbusSans-Regular-78"/>
       <use x="72.199982" xlink:href="#NimbusSans-Regular-67"/>
       <use x="144.399963" xlink:href="#NimbusSans-Regular-95"/>
       <use x="199.999954" xlink:href="#NimbusSans-Regular-48"/>
       <use x="255.599945" xlink:href="#NimbusSans-Regular-51"/>
       <use x="311.199936" xlink:href="#NimbusSans-Regular-49"/>
       <use x="366.799927" xlink:href="#NimbusSans-Regular-48"/>
       <use x="422.399918" xlink:href="#NimbusSans-Regular-51"/>
       <use x="477.999908" xlink:href="#NimbusSans-Regular-57"/>
      </g>
     </g>
    </g>
    <g id="ytick_14">
     <g id="line2d_15">
      <g>
       <use style="stroke:#000000;stroke-width:0.8;" x="71.17" xlink:href="#mf0c805d138" y="189.8425"/>
      </g>
     </g>
     <g id="text_14">
      <!-- MN091626 -->
      <g transform="translate(15.26375 193.487812)scale(0.1 -0.1)">
       <use xlink:href="#NimbusSans-Regular-77"/>
       <use x="83.299988" xlink:href="#NimbusSans-Regular-78"/>
       <use x="155.499969" xlink:href="#NimbusSans-Regular-48"/>
       <use x="211.09996" xlink:href="#NimbusSans-Regular-57"/>
       <use x="266.699951" xlink:href="#NimbusSans-Regular-49"/>
       <use x="322.299942" xlink:href="#NimbusSans-Regular-54"/>
       <use x="377.899933" xlink:href="#NimbusSans-Regular-50"/>
       <use x="433.499924" xlink:href="#NimbusSans-Regular-54"/>
      </g>
     </g>
    </g>
    <g id="ytick_15">
     <g id="line2d_16">
      <g>
       <use style="stroke:#000000;stroke-width:0.8;" x="71.17" xlink:href="#mf0c805d138" y="162.2975"/>
      </g>
     </g>
     <g id="text_15">
      <!-- LC680885 -->
      <g transform="translate(18.034062 165.942813)scale(0.1 -0.1)">
       <defs>
        <path d="M 17.296875 72.90625 
L 8 72.90625 
L 8 0 
L 53.296875 0 
L 53.296875 8.203125 
L 17.296875 8.203125 
z
" id="NimbusSans-Regular-76"/>
       </defs>
       <use xlink:href="#NimbusSans-Regular-76"/>
       <use x="55.599991" xlink:href="#NimbusSans-Regular-67"/>
       <use x="127.799973" xlink:href="#NimbusSans-Regular-54"/>
       <use x="183.399963" xlink:href="#NimbusSans-Regular-56"/>
       <use x="238.999954" xlink:href="#NimbusSans-Regular-48"/>
       <use x="294.599945" xlink:href="#NimbusSans-Regular-56"/>
       <use x="350.199936" xlink:href="#NimbusSans-Regular-56"/>
       <use x="405.799927" xlink:href="#NimbusSans-Regular-53"/>
      </g>
     </g>
    </g>
    <g id="ytick_16">
     <g id="line2d_17">
      <g>
       <use style="stroke:#000000;stroke-width:0.8;" x="71.17" xlink:href="#mf0c805d138" y="134.7525"/>
      </g>
     </g>
     <g id="text_16">
      <!-- MW248466 -->
      <g transform="translate(13.043437 138.397812)scale(0.1 -0.1)">
       <use xlink:href="#NimbusSans-Regular-77"/>
       <use x="83.299988" xlink:href="#NimbusSans-Regular-87"/>
       <use x="177.699982" xlink:href="#NimbusSans-Regular-50"/>
       <use x="233.299973" xlink:href="#NimbusSans-Regular-52"/>
       <use x="288.899963" xlink:href="#NimbusSans-Regular-56"/>
       <use x="344.499954" xlink:href="#NimbusSans-Regular-52"/>
       <use x="400.099945" xlink:href="#NimbusSans-Regular-54"/>
       <use x="455.699936" xlink:href="#NimbusSans-Regular-54"/>
      </g>
     </g>
    </g>
    <g id="ytick_17">
     <g id="line2d_18">
      <g>
       <use style="stroke:#000000;stroke-width:0.8;" x="71.17" xlink:href="#mf0c805d138" y="107.2075"/>
      </g>
     </g>
     <g id="text_17">
      <!-- NC_007581 -->
      <g transform="translate(10.81375 110.852812)scale(0.1 -0.1)">
       <use xlink:href="#NimbusSans-Regular-78"/>
       <use x="72.199982" xlink:href="#NimbusSans-Regular-67"/>
       <use x="144.399963" xlink:href="#NimbusSans-Regular-95"/>
       <use x="199.999954" xlink:href="#NimbusSans-Regular-48"/>
       <use x="255.599945" xlink:href="#NimbusSans-Regular-48"/>
       <use x="311.199936" xlink:href="#NimbusSans-Regular-55"/>
       <use x="366.799927" xlink:href="#NimbusSans-Regular-53"/>
       <use x="422.399918" xlink:href="#NimbusSans-Regular-56"/>
       <use x="477.999908" xlink:href="#NimbusSans-Regular-49"/>
      </g>
     </g>
    </g>
    <g id="ytick_18">
     <g id="line2d_19">
      <g>
       <use style="stroke:#000000;stroke-width:0.8;" x="71.17" xlink:href="#mf0c805d138" y="79.6625"/>
      </g>
     </g>
     <g id="text_18">
      <!-- MK448731 -->
      <g transform="translate(15.81375 83.307812)scale(0.1 -0.1)">
       <use xlink:href="#NimbusSans-Regular-77"/>
       <use x="83.299988" xlink:href="#NimbusSans-Regular-75"/>
       <use x="149.999985" xlink:href="#NimbusSans-Regular-52"/>
       <use x="205.599976" xlink:href="#NimbusSans-Regular-52"/>
       <use x="261.199966" xlink:href="#NimbusSans-Regular-56"/>
       <use x="316.799957" xlink:href="#NimbusSans-Regular-55"/>
       <use x="372.399948" xlink:href="#NimbusSans-Regular-51"/>
       <use x="427.999939" xlink:href="#NimbusSans-Regular-49"/>
      </g>
     </g>
    </g>
    <g id="ytick_19">
     <g id="line2d_20">
      <g>
       <use style="stroke:#000000;stroke-width:0.8;" x="71.17" xlink:href="#mf0c805d138" y="52.1175"/>
      </g>
     </g>
     <g id="text_19">
      <!-- MN270259 -->
      <g transform="translate(15.26375 55.762812)scale(0.1 -0.1)">
       <use xlink:href="#NimbusSans-Regular-77"/>
       <use x="83.299988" xlink:href="#NimbusSans-Regular-78"/>
       <use x="155.499969" xlink:href="#NimbusSans-Regular-50"/>
       <use x="211.09996" xlink:href="#NimbusSans-Regular-55"/>
       <use x="266.699951" xlink:href="#NimbusSans-Regular-48"/>
       <use x="322.299942" xlink:href="#NimbusSans-Regular-50"/>
       <use x="377.899933" xlink:href="#NimbusSans-Regular-53"/>
       <use x="433.499924" xlink:href="#NimbusSans-Regular-57"/>
      </g>
     </g>
    </g>
    <g id="ytick_20">
     <g id="line2d_21">
      <g>
       <use style="stroke:#000000;stroke-width:0.8;" x="71.17" xlink:href="#mf0c805d138" y="24.5725"/>
      </g>
     </g>
     <g id="text_20">
      <!-- ON107264 -->
      <g transform="translate(15.81375 28.217813)scale(0.1 -0.1)">
       <use xlink:href="#NimbusSans-Regular-79"/>
       <use x="77.799988" xlink:href="#NimbusSans-Regular-78"/>
       <use x="149.999969" xlink:href="#NimbusSans-Regular-49"/>
       <use x="205.59996" xlink:href="#NimbusSans-Regular-48"/>
       <use x="261.199951" xlink:href="#NimbusSans-Regular-55"/>
       <use x="316.799942" xlink:href="#NimbusSans-Regular-50"/>
       <use x="372.399933" xlink:href="#NimbusSans-Regular-54"/>
       <use x="427.999924" xlink:href="#NimbusSans-Regular-52"/>
      </g>
     </g>
    </g>
   </g>
   <g id="line2d_22">
    <path clip-path="url(#p2c92a3f483)" d="M 453.988 24.5725 
" style="fill:none;stroke:#6e7c39;stroke-linecap:square;stroke-width:1.5;"/>
    <defs>
     <path d="M 0 6.3 
C 1.67078 6.3 3.273353 5.636192 4.454773 4.454773 
C 5.636192 3.273353 6.3 1.67078 6.3 0 
C 6.3 -1.67078 5.636192 -3.273353 4.454773 -4.454773 
C 3.273353 -5.636192 1.67078 -6.3 0 -6.3 
C -1.67078 -6.3 -3.273353 -5.636192 -4.454773 -4.454773 
C -5.636192 -3.273353 -6.3 -1.67078 -6.3 0 
C -6.3 1.67078 -5.636192 3.273353 -4.454773 4.454773 
C -3.273353 5.636192 -1.67078 6.3 0 6.3 
z
" id="maec56d2a8a" style="stroke:#000000;"/>
    </defs>
    <g clip-path="url(#p2c92a3f483)">
     <use style="fill:#6e7c39;stroke:#000000;" x="453.988" xlink:href="#maec56d2a8a" y="24.5725"/>
    </g>
   </g>
   <g id="line2d_23">
    <path clip-path="url(#p2c92a3f483)" d="M 453.988 52.1175 
" style="fill:none;stroke:#65b556;stroke-linecap:square;stroke-width:1.5;"/>
    <defs>
     <path d="M 0 6.3 
C 1.67078 6.3 3.273353 5.636192 4.454773 4.454773 
C 5.636192 3.273353 6.3 1.67078 6.3 0 
C 6.3 -1.67078 5.636192 -3.273353 4.454773 -4.454773 
C 3.273353 -5.636192 1.67078 -6.3 0 -6.3 
C -1.67078 -6.3 -3.273353 -5.636192 -4.454773 -4.454773 
C -5.636192 -3.273353 -6.3 -1.67078 -6.3 0 
C -6.3 1.67078 -5.636192 3.273353 -4.454773 4.454773 
C -3.273353 5.636192 -1.67078 6.3 0 6.3 
z
" id="m980ac32aea" style="stroke:#000000;"/>
    </defs>
    <g clip-path="url(#p2c92a3f483)">
     <use style="fill:#65b556;stroke:#000000;" x="453.988" xlink:href="#m980ac32aea" y="52.1175"/>
    </g>
   </g>
   <g id="line2d_24">
    <path clip-path="url(#p2c92a3f483)" d="M 453.988 79.6625 
" style="fill:none;stroke:#65b556;stroke-linecap:square;stroke-width:1.5;"/>
    <defs>
     <path d="M 0 3.3 
C 0.87517 3.3 1.714614 2.952291 2.333452 2.333452 
C 2.952291 1.714614 3.3 0.87517 3.3 0 
C 3.3 -0.87517 2.952291 -1.714614 2.333452 -2.333452 
C 1.714614 -2.952291 0.87517 -3.3 0 -3.3 
C -0.87517 -3.3 -1.714614 -2.952291 -2.333452 -2.333452 
C -2.952291 -1.714614 -3.3 -0.87517 -3.3 0 
C -3.3 0.87517 -2.952291 1.714614 -2.333452 2.333452 
C -1.714614 2.952291 -0.87517 3.3 0 3.3 
z
" id="m2328624c7d" style="stroke:#000000;"/>
    </defs>
    <g clip-path="url(#p2c92a3f483)">
     <use style="fill:#65b556;stroke:#000000;" x="453.988" xlink:href="#m2328624c7d" y="79.6625"/>
    </g>
   </g>
   <g id="line2d_25">
    <path clip-path="url(#p2c92a3f483)" d="M 453.988 107.2075 
" style="fill:none;stroke:#a4de03;stroke-linecap:square;stroke-width:1.5;"/>
    <defs>
     <path d="M 0 7.8 
C 2.068584 7.8 4.052723 6.978143 5.515433 5.515433 
C 6.978143 4.052723 7.8 2.068584 7.8 0 
C 7.8 -2.068584 6.978143 -4.052723 5.515433 -5.515433 
C 4.052723 -6.978143 2.068584 -7.8 0 -7.8 
C -2.068584 -7.8 -4.052723 -6.978143 -5.515433 -5.515433 
C -6.978143 -4.052723 -7.8 -2.068584 -7.8 0 
C -7.8 2.068584 -6.978143 4.052723 -5.515433 5.515433 
C -4.052723 6.978143 -2.068584 7.8 0 7.8 
z
" id="m9032660843" style="stroke:#000000;"/>
    </defs>
    <g clip-path="url(#p2c92a3f483)">
     <use style="fill:#a4de03;stroke:#000000;" x="453.988" xlink:href="#m9032660843" y="107.2075"/>
    </g>
   </g>
   <g id="line2d_26">
    <path clip-path="url(#p2c92a3f483)" d="M 453.988 134.7525 
" style="fill:none;stroke:#acdf87;stroke-linecap:square;stroke-width:1.5;"/>
    <defs>
     <path d="M 0 9.3 
C 2.466389 9.3 4.832093 8.320093 6.576093 6.576093 
C 8.320093 4.832093 9.3 2.466389 9.3 0 
C 9.3 -2.466389 8.320093 -4.832093 6.576093 -6.576093 
C 4.832093 -8.320093 2.466389 -9.3 0 -9.3 
C -2.466389 -9.3 -4.832093 -8.320093 -6.576093 -6.576093 
C -8.320093 -4.832093 -9.3 -2.466389 -9.3 0 
C -9.3 2.466389 -8.320093 4.832093 -6.576093 6.576093 
C -4.832093 8.320093 -2.466389 9.3 0 9.3 
z
" id="mee9b9c816b" style="stroke:#000000;"/>
    </defs>
    <g clip-path="url(#p2c92a3f483)">
     <use style="fill:#acdf87;stroke:#000000;" x="453.988" xlink:href="#mee9b9c816b" y="134.7525"/>
    </g>
   </g>
   <g id="line2d_27">
    <path clip-path="url(#p2c92a3f483)" d="M 453.988 162.2975 
" style="fill:none;stroke:#acdf87;stroke-linecap:square;stroke-width:1.5;"/>
    <g clip-path="url(#p2c92a3f483)">
     <use style="fill:#acdf87;stroke:#000000;" x="453.988" xlink:href="#mee9b9c816b" y="162.2975"/>
    </g>
   </g>
   <g id="line2d_28">
    <path clip-path="url(#p2c92a3f483)" d="M 453.988 189.8425 
" style="fill:none;stroke:#acdf87;stroke-linecap:square;stroke-width:1.5;"/>
    <g clip-path="url(#p2c92a3f483)">
     <use style="fill:#acdf87;stroke:#000000;" x="453.988" xlink:href="#mee9b9c816b" y="189.8425"/>
    </g>
   </g>
   <g id="line2d_29">
    <path clip-path="url(#p2c92a3f483)" d="M 453.988 217.3875 
" style="fill:none;stroke:#6e7c39;stroke-linecap:square;stroke-width:1.5;"/>
    <defs>
     <path d="M 0 9.3 
C 2.466389 9.3 4.832093 8.320093 6.576093 6.576093 
C 8.320093 4.832093 9.3 2.466389 9.3 0 
C 9.3 -2.466389 8.320093 -4.832093 6.576093 -6.576093 
C 4.832093 -8.320093 2.466389 -9.3 0 -9.3 
C -2.466389 -9.3 -4.832093 -8.320093 -6.576093 -6.576093 
C -8.320093 -4.832093 -9.3 -2.466389 -9.3 0 
C -9.3 2.466389 -8.320093 4.832093 -6.576093 6.576093 
C -4.832093 8.320093 -2.466389 9.3 0 9.3 
z
" id="m33c12d0f77" style="stroke:#000000;"/>
    </defs>
    <g clip-path="url(#p2c92a3f483)">
     <use style="fill:#6e7c39;stroke:#000000;" x="453.988" xlink:href="#m33c12d0f77" y="217.3875"/>
    </g>
   </g>
   <g id="line2d_30">
    <path clip-path="url(#p2c92a3f483)" d="M 453.988 244.9325 
" style="fill:none;stroke:#6e7c39;stroke-linecap:square;stroke-width:1.5;"/>
    <g clip-path="url(#p2c92a3f483)">
     <use style="fill:#6e7c39;stroke:#000000;" x="453.988" xlink:href="#m33c12d0f77" y="244.9325"/>
    </g>
   </g>
   <g id="line2d_31">
    <path clip-path="url(#p2c92a3f483)" d="M 453.988 272.4775 
" style="fill:none;stroke:#6e7c39;stroke-linecap:square;stroke-width:1.5;"/>
    <g clip-path="url(#p2c92a3f483)">
     <use style="fill:#6e7c39;stroke:#000000;" x="453.988" xlink:href="#m33c12d0f77" y="272.4775"/>
    </g>
   </g>
   <g id="line2d_32">
    <path clip-path="url(#p2c92a3f483)" d="M 453.988 300.0225 
" style="fill:none;stroke:#4c9a2a;stroke-linecap:square;stroke-width:1.5;"/>
    <defs>
     <path d="M 0 9.3 
C 2.466389 9.3 4.832093 8.320093 6.576093 6.576093 
C 8.320093 4.832093 9.3 2.466389 9.3 0 
C 9.3 -2.466389 8.320093 -4.832093 6.576093 -6.576093 
C 4.832093 -8.320093 2.466389 -9.3 0 -9.3 
C -2.466389 -9.3 -4.832093 -8.320093 -6.576093 -6.576093 
C -8.320093 -4.832093 -9.3 -2.466389 -9.3 0 
C -9.3 2.466389 -8.320093 4.832093 -6.576093 6.576093 
C -4.832093 8.320093 -2.466389 9.3 0 9.3 
z
" id="m002b7f08c7" style="stroke:#000000;"/>
    </defs>
    <g clip-path="url(#p2c92a3f483)">
     <use style="fill:#4c9a2a;stroke:#000000;" x="453.988" xlink:href="#m002b7f08c7" y="300.0225"/>
    </g>
   </g>
   <g id="line2d_33">
    <path clip-path="url(#p2c92a3f483)" d="M 453.988 327.5675 
" style="fill:none;stroke:#4c9a2a;stroke-linecap:square;stroke-width:1.5;"/>
    <g clip-path="url(#p2c92a3f483)">
     <use style="fill:#4c9a2a;stroke:#000000;" x="453.988" xlink:href="#m002b7f08c7" y="327.5675"/>
    </g>
   </g>
   <g id="line2d_34">
    <path clip-path="url(#p2c92a3f483)" d="M 453.988 355.1125 
" style="fill:none;stroke:#4c9a2a;stroke-linecap:square;stroke-width:1.5;"/>
    <g clip-path="url(#p2c92a3f483)">
     <use style="fill:#4c9a2a;stroke:#000000;" x="453.988" xlink:href="#m002b7f08c7" y="355.1125"/>
    </g>
   </g>
   <g id="line2d_35">
    <path clip-path="url(#p2c92a3f483)" d="M 453.988 382.6575 
" style="fill:none;stroke:#4c9a2a;stroke-linecap:square;stroke-width:1.5;"/>
    <g clip-path="url(#p2c92a3f483)">
     <use style="fill:#4c9a2a;stroke:#000000;" x="453.988" xlink:href="#m002b7f08c7" y="382.6575"/>
    </g>
   </g>
   <g id="line2d_36">
    <path clip-path="url(#p2c92a3f483)" d="M 453.988 410.2025 
" style="fill:none;stroke:#61b0b7;stroke-linecap:square;stroke-width:1.5;"/>
    <defs>
     <path d="M 0 3.3 
C 0.87517 3.3 1.714614 2.952291 2.333452 2.333452 
C 2.952291 1.714614 3.3 0.87517 3.3 0 
C 3.3 -0.87517 2.952291 -1.714614 2.333452 -2.333452 
C 1.714614 -2.952291 0.87517 -3.3 0 -3.3 
C -0.87517 -3.3 -1.714614 -2.952291 -2.333452 -2.333452 
C -2.952291 -1.714614 -3.3 -0.87517 -3.3 0 
C -3.3 0.87517 -2.952291 1.714614 -2.333452 2.333452 
C -1.714614 2.952291 -0.87517 3.3 0 3.3 
z
" id="me5fd54fb5c" style="stroke:#000000;"/>
    </defs>
    <g clip-path="url(#p2c92a3f483)">
     <use style="fill:#61b0b7;stroke:#000000;" x="453.988" xlink:href="#me5fd54fb5c" y="410.2025"/>
    </g>
   </g>
   <g id="line2d_37">
    <path clip-path="url(#p2c92a3f483)" d="M 453.988 437.7475 
" style="fill:none;stroke:#17558f;stroke-linecap:square;stroke-width:1.5;"/>
    <defs>
     <path d="M 0 3.3 
C 0.87517 3.3 1.714614 2.952291 2.333452 2.333452 
C 2.952291 1.714614 3.3 0.87517 3.3 0 
C 3.3 -0.87517 2.952291 -1.714614 2.333452 -2.333452 
C 1.714614 -2.952291 0.87517 -3.3 0 -3.3 
C -0.87517 -3.3 -1.714614 -2.952291 -2.333452 -2.333452 
C -2.952291 -1.714614 -3.3 -0.87517 -3.3 0 
C -3.3 0.87517 -2.952291 1.714614 -2.333452 2.333452 
C -1.714614 2.952291 -0.87517 3.3 0 3.3 
z
" id="m82cd57a14d" style="stroke:#000000;"/>
    </defs>
    <g clip-path="url(#p2c92a3f483)">
     <use style="fill:#17558f;stroke:#000000;" x="453.988" xlink:href="#m82cd57a14d" y="437.7475"/>
    </g>
   </g>
   <g id="line2d_38">
    <path clip-path="url(#p2c92a3f483)" d="M 453.988 465.2925 
" style="fill:none;stroke:#0583d2;stroke-linecap:square;stroke-width:1.5;"/>
    <defs>
     <path d="M 0 3.3 
C 0.87517 3.3 1.714614 2.952291 2.333452 2.333452 
C 2.952291 1.714614 3.3 0.87517 3.3 0 
C 3.3 -0.87517 2.952291 -1.714614 2.333452 -2.333452 
C 1.714614 -2.952291 0.87517 -3.3 0 -3.3 
C -0.87517 -3.3 -1.714614 -2.952291 -2.333452 -2.333452 
C -2.952291 -1.714614 -3.3 -0.87517 -3.3 0 
C -3.3 0.87517 -2.952291 1.714614 -2.333452 2.333452 
C -1.714614 2.952291 -0.87517 3.3 0 3.3 
z
" id="mdf3834bc14" style="stroke:#000000;"/>
    </defs>
    <g clip-path="url(#p2c92a3f483)">
     <use style="fill:#0583d2;stroke:#000000;" x="453.988" xlink:href="#mdf3834bc14" y="465.2925"/>
    </g>
   </g>
   <g id="line2d_39">
    <path clip-path="url(#p2c92a3f483)" d="M 453.988 492.8375 
" style="fill:none;stroke:#b8e3ff;stroke-linecap:square;stroke-width:1.5;"/>
    <defs>
     <path d="M -4 4 
L 4 4 
L 4 -4 
L -4 -4 
z
" id="mb74958274d" style="stroke:#000000;stroke-linejoin:miter;"/>
    </defs>
    <g clip-path="url(#p2c92a3f483)">
     <use style="fill:#b8e3ff;stroke:#000000;stroke-linejoin:miter;" x="453.988" xlink:href="#mb74958274d" y="492.8375"/>
    </g>
   </g>
   <g id="line2d_40">
    <path clip-path="url(#p2c92a3f483)" d="M 453.988 520.3825 
" style="fill:none;stroke:#b8e3ff;stroke-linecap:square;stroke-width:1.5;"/>
    <g clip-path="url(#p2c92a3f483)">
     <use style="fill:#b8e3ff;stroke:#000000;stroke-linejoin:miter;" x="453.988" xlink:href="#mb74958274d" y="520.3825"/>
    </g>
   </g>
   <g id="line2d_41">
    <path clip-path="url(#p2c92a3f483)" d="M 453.988 547.9275 
" style="fill:none;stroke:#ffa500;stroke-linecap:square;stroke-width:1.5;"/>
    <defs>
     <path d="M 0 4.8 
C 1.272975 4.8 2.493983 4.294242 3.394113 3.394113 
C 4.294242 2.493983 4.8 1.272975 4.8 0 
C 4.8 -1.272975 4.294242 -2.493983 3.394113 -3.394113 
C 2.493983 -4.294242 1.272975 -4.8 0 -4.8 
C -1.272975 -4.8 -2.493983 -4.294242 -3.394113 -3.394113 
C -4.294242 -2.493983 -4.8 -1.272975 -4.8 0 
C -4.8 1.272975 -4.294242 2.493983 -3.394113 3.394113 
C -2.493983 4.294242 -1.272975 4.8 0 4.8 
z
" id="mbbfaff3a6a" style="stroke:#000000;"/>
    </defs>
    <g clip-path="url(#p2c92a3f483)">
     <use style="fill:#ffa500;stroke:#000000;" x="453.988" xlink:href="#mbbfaff3a6a" y="547.9275"/>
    </g>
   </g>
   <g id="patch_5">
    <path d="M 71.17 561.7 
L 71.17 10.8 
" style="fill:none;stroke:#000000;stroke-linecap:square;stroke-linejoin:miter;stroke-width:0.8;"/>
   </g>
   <g id="patch_6">
    <path d="M 71.17 561.7 
L 709.2 561.7 
" style="fill:none;stroke:#000000;stroke-linecap:square;stroke-linejoin:miter;stroke-width:0.8;"/>
   </g>
   <g id="legend_1">
    <g id="patch_7">
     <path d="M 617.625 120.68125 
L 702.2 120.68125 
Q 704.2 120.68125 704.2 118.68125 
L 704.2 17.8 
Q 704.2 15.8 702.2 15.8 
L 617.625 15.8 
Q 615.625 15.8 615.625 17.8 
L 615.625 118.68125 
Q 615.625 120.68125 617.625 120.68125 
z
" style="fill:#ffffff;opacity:0.8;stroke:#cccccc;stroke-linejoin:miter;"/>
    </g>
    <g id="text_21">
     <!-- Genome Size (kb) -->
     <g transform="translate(619.625 27.15)scale(0.1 -0.1)">
      <defs>
       <path d="M 70.90625 38.5 
L 40.5 38.5 
L 40.5 30.296875 
L 62.703125 30.296875 
L 62.703125 28.296875 
C 62.703125 15.296875 53.09375 5.90625 39.796875 5.90625 
C 32.40625 5.90625 25.703125 8.59375 21.40625 13.296875 
C 16.59375 18.5 13.703125 27.203125 13.703125 36.203125 
C 13.703125 54.09375 23.90625 65.90625 39.296875 65.90625 
C 50.40625 65.90625 58.40625 60.203125 60.40625 50.796875 
L 69.90625 50.796875 
C 67.296875 65.59375 56.09375 74.09375 39.40625 74.09375 
C 30.5 74.09375 23.296875 71.796875 17.59375 67.09375 
C 9.09375 60.09375 4.40625 48.796875 4.40625 35.703125 
C 4.40625 13.296875 18.09375 -2.296875 37.796875 -2.296875 
C 47.703125 -2.296875 55.5 1.40625 62.703125 9.296875 
L 65 -0.40625 
L 70.90625 -0.40625 
z
" id="NimbusSans-Regular-71"/>
       <path d="M 51.296875 23.40625 
C 51.296875 31.40625 50.703125 36.203125 49.203125 40.09375 
C 45.796875 48.703125 37.796875 53.90625 28 53.90625 
C 13.40625 53.90625 4 42.796875 4 25.5 
C 4 8.203125 13 -2.296875 27.796875 -2.296875 
C 39.796875 -2.296875 48.09375 4.5 50.203125 15.90625 
L 41.796875 15.90625 
C 39.5 9 34.796875 5.40625 28.09375 5.40625 
C 22.796875 5.40625 18.296875 7.796875 15.5 12.203125 
C 13.5 15.203125 12.796875 18.203125 12.703125 23.40625 
z
M 12.90625 30.203125 
C 13.59375 39.90625 19.5 46.203125 27.90625 46.203125 
C 36.40625 46.203125 42.296875 39.59375 42.296875 30.203125 
z
" id="NimbusSans-Regular-101"/>
       <path d="M 7 52.40625 
L 7 0 
L 15.40625 0 
L 15.40625 28.90625 
C 15.40625 39.59375 21 46.59375 29.59375 46.59375 
C 36.203125 46.59375 40.40625 42.59375 40.40625 36.296875 
L 40.40625 0 
L 48.703125 0 
L 48.703125 39.59375 
C 48.703125 48.296875 42.203125 53.90625 32.09375 53.90625 
C 24.296875 53.90625 19.296875 50.90625 14.703125 43.59375 
L 14.703125 52.40625 
z
" id="NimbusSans-Regular-110"/>
       <path d="M 27.203125 53.90625 
C 12.40625 53.90625 3.59375 43.40625 3.59375 25.796875 
C 3.59375 8.09375 12.40625 -2.296875 27.296875 -2.296875 
C 42.09375 -2.296875 51 8.203125 51 25.40625 
C 51 43.59375 42.40625 53.90625 27.203125 53.90625 
z
M 27.296875 46.203125 
C 36.703125 46.203125 42.296875 38.5 42.296875 25.5 
C 42.296875 13.09375 36.5 5.40625 27.296875 5.40625 
C 18 5.40625 12.296875 13.09375 12.296875 25.796875 
C 12.296875 38.5 18 46.203125 27.296875 46.203125 
z
" id="NimbusSans-Regular-111"/>
       <path d="M 7 52.40625 
L 7 0 
L 15.40625 0 
L 15.40625 32.90625 
C 15.40625 40.5 20.90625 46.59375 27.703125 46.59375 
C 33.90625 46.59375 37.40625 42.796875 37.40625 36.09375 
L 37.40625 0 
L 45.796875 0 
L 45.796875 32.90625 
C 45.796875 40.5 51.296875 46.59375 58.09375 46.59375 
C 64.203125 46.59375 67.796875 42.703125 67.796875 36.09375 
L 67.796875 0 
L 76.203125 0 
L 76.203125 39.296875 
C 76.203125 48.703125 70.796875 53.90625 61 53.90625 
C 54 53.90625 49.796875 51.796875 44.90625 45.90625 
C 41.796875 51.5 37.59375 53.90625 30.796875 53.90625 
C 23.796875 53.90625 19.09375 51.296875 14.703125 45 
L 14.703125 52.40625 
z
" id="NimbusSans-Regular-109"/>
       <path id="NimbusSans-Regular-32"/>
       <path d="M 59.59375 51.5 
C 59.59375 56.5 59.296875 57.90625 57.703125 61.296875 
C 53.703125 69.703125 45.203125 74.09375 32.90625 74.09375 
C 16.90625 74.09375 7 65.90625 7 52.703125 
C 7 43.796875 11.703125 38.203125 21.296875 35.703125 
L 39.40625 30.90625 
C 48.703125 28.5 52.796875 24.796875 52.796875 19.09375 
C 52.796875 15.203125 50.703125 11.203125 47.59375 9 
C 44.703125 6.90625 40.09375 5.90625 34.203125 5.90625 
C 26.203125 5.90625 20.90625 7.796875 17.40625 12 
C 14.703125 15.203125 13.5 18.703125 13.59375 23.203125 
L 4.796875 23.203125 
C 4.90625 16.5 6.203125 12.09375 9.09375 8.09375 
C 14.09375 1.203125 22.5 -2.296875 33.59375 -2.296875 
C 42.296875 -2.296875 49.40625 -0.296875 54.09375 3.296875 
C 59 7.203125 62.09375 13.703125 62.09375 20 
C 62.09375 29 56.5 35.59375 46.59375 38.296875 
L 28.296875 43.203125 
C 19.5 45.59375 16.296875 48.40625 16.296875 54 
C 16.296875 61.40625 22.796875 66.296875 32.59375 66.296875 
C 44.203125 66.296875 50.703125 61.09375 50.796875 51.5 
z
" id="NimbusSans-Regular-83"/>
       <path d="M 15 52.40625 
L 6.703125 52.40625 
L 6.703125 0 
L 15 0 
z
M 15 72.90625 
L 6.59375 72.90625 
L 6.59375 62.40625 
L 15 62.40625 
z
" id="NimbusSans-Regular-105"/>
       <path d="M 44.296875 52.40625 
L 5.203125 52.40625 
L 5.203125 45.09375 
L 34.40625 45.09375 
L 3.09375 7.5 
L 3.09375 0 
L 45.703125 0 
L 45.703125 7.296875 
L 13.203125 7.296875 
L 44.296875 45 
z
" id="NimbusSans-Regular-122"/>
       <path d="M 23.59375 72.90625 
C 13.59375 59.796875 7.296875 41.59375 7.296875 25.90625 
C 7.296875 10.09375 13.59375 -8.09375 23.59375 -21.203125 
L 29.09375 -21.203125 
C 20.296875 -6.90625 15.40625 9.90625 15.40625 25.90625 
C 15.40625 41.796875 20.296875 58.703125 29.09375 72.90625 
z
" id="NimbusSans-Regular-40"/>
       <path d="M 14.09375 72.90625 
L 5.796875 72.90625 
L 5.796875 0 
L 14.09375 0 
L 14.09375 20.40625 
L 22.203125 28.40625 
L 39.90625 0 
L 50.203125 0 
L 28.796875 34.296875 
L 47 52.40625 
L 36.296875 52.40625 
L 14.09375 30.203125 
z
" id="NimbusSans-Regular-107"/>
       <path d="M 5.40625 72.90625 
L 5.40625 0 
L 12.90625 0 
L 12.90625 6.703125 
C 16.90625 0.59375 22.203125 -2.296875 29.5 -2.296875 
C 43.296875 -2.296875 52.296875 9 52.296875 26.40625 
C 52.296875 43.40625 43.796875 53.90625 29.90625 53.90625 
C 22.703125 53.90625 17.59375 51.203125 13.703125 45.296875 
L 13.703125 72.90625 
z
M 28.296875 46.09375 
C 37.59375 46.09375 43.59375 38 43.59375 25.5 
C 43.59375 13.59375 37.40625 5.5 28.296875 5.5 
C 19.40625 5.5 13.703125 13.5 13.703125 25.796875 
C 13.703125 38.09375 19.40625 46.09375 28.296875 46.09375 
z
" id="NimbusSans-Regular-98"/>
       <path d="M 9.296875 -21.203125 
C 19.296875 -8.09375 25.59375 10.09375 25.59375 25.796875 
C 25.59375 41.59375 19.296875 59.796875 9.296875 72.90625 
L 3.796875 72.90625 
C 12.59375 58.59375 17.5 41.796875 17.5 25.796875 
C 17.5 9.90625 12.59375 -7 3.796875 -21.203125 
z
" id="NimbusSans-Regular-41"/>
      </defs>
      <use xlink:href="#NimbusSans-Regular-71"/>
      <use x="77.799988" xlink:href="#NimbusSans-Regular-101"/>
      <use x="133.399979" xlink:href="#NimbusSans-Regular-110"/>
      <use x="188.999969" xlink:href="#NimbusSans-Regular-111"/>
      <use x="244.59996" xlink:href="#NimbusSans-Regular-109"/>
      <use x="327.899948" xlink:href="#NimbusSans-Regular-101"/>
      <use x="383.499939" xlink:href="#NimbusSans-Regular-32"/>
      <use x="411.299927" xlink:href="#NimbusSans-Regular-83"/>
      <use x="477.999924" xlink:href="#NimbusSans-Regular-105"/>
      <use x="500.199921" xlink:href="#NimbusSans-Regular-122"/>
      <use x="550.199905" xlink:href="#NimbusSans-Regular-101"/>
      <use x="605.799896" xlink:href="#NimbusSans-Regular-32"/>
      <use x="633.599884" xlink:href="#NimbusSans-Regular-40"/>
      <use x="666.899872" xlink:href="#NimbusSans-Regular-107"/>
      <use x="716.899857" xlink:href="#NimbusSans-Regular-98"/>
      <use x="772.499847" xlink:href="#NimbusSans-Regular-41"/>
     </g>
    </g>
    <g id="line2d_42"/>
    <g id="line2d_43">
     <defs>
      <path d="M 0 3 
C 0.795609 3 1.55874 2.683901 2.12132 2.12132 
C 2.683901 1.55874 3 0.795609 3 0 
C 3 -0.795609 2.683901 -1.55874 2.12132 -2.12132 
C 1.55874 -2.683901 0.795609 -3 0 -3 
C -0.795609 -3 -1.55874 -2.683901 -2.12132 -2.12132 
C -2.683901 -1.55874 -3 -0.795609 -3 0 
C -3 0.795609 -2.683901 1.55874 -2.12132 2.12132 
C -1.55874 2.683901 -0.795609 3 0 3 
z
" id="m35d5312242" style="stroke:#000000;"/>
     </defs>
     <g>
      <use style="stroke:#000000;" x="637.569531" xlink:href="#m35d5312242" y="41.120313"/>
     </g>
    </g>
    <g id="text_22">
     <!-- 10-50 -->
     <g transform="translate(655.569531 44.620313)scale(0.1 -0.1)">
      <defs>
       <path d="M 28.40625 31.203125 
L 4.59375 31.203125 
L 4.59375 24 
L 28.40625 24 
z
" id="NimbusSans-Regular-45"/>
      </defs>
      <use xlink:href="#NimbusSans-Regular-49"/>
      <use x="55.599991" xlink:href="#NimbusSans-Regular-48"/>
      <use x="111.199982" xlink:href="#NimbusSans-Regular-45"/>
      <use x="144.499969" xlink:href="#NimbusSans-Regular-53"/>
      <use x="200.09996" xlink:href="#NimbusSans-Regular-48"/>
     </g>
    </g>
    <g id="line2d_44"/>
    <g id="line2d_45">
     <defs>
      <path d="M 0 4.5 
C 1.193414 4.5 2.338109 4.025852 3.181981 3.181981 
C 4.025852 2.338109 4.5 1.193414 4.5 0 
C 4.5 -1.193414 4.025852 -2.338109 3.181981 -3.181981 
C 2.338109 -4.025852 1.193414 -4.5 0 -4.5 
C -1.193414 -4.5 -2.338109 -4.025852 -3.181981 -3.181981 
C -4.025852 -2.338109 -4.5 -1.193414 -4.5 0 
C -4.5 1.193414 -4.025852 2.338109 -3.181981 3.181981 
C -2.338109 4.025852 -1.193414 4.5 0 4.5 
z
" id="m6cdb0ab443" style="stroke:#000000;"/>
     </defs>
     <g>
      <use style="stroke:#000000;" x="637.569531" xlink:href="#m6cdb0ab443" y="58.590625"/>
     </g>
    </g>
    <g id="text_23">
     <!-- 50-100 -->
     <g transform="translate(655.569531 62.090625)scale(0.1 -0.1)">
      <use xlink:href="#NimbusSans-Regular-53"/>
      <use x="55.599991" xlink:href="#NimbusSans-Regular-48"/>
      <use x="111.199982" xlink:href="#NimbusSans-Regular-45"/>
      <use x="144.499969" xlink:href="#NimbusSans-Regular-49"/>
      <use x="200.09996" xlink:href="#NimbusSans-Regular-48"/>
      <use x="255.699951" xlink:href="#NimbusSans-Regular-48"/>
     </g>
    </g>
    <g id="line2d_46"/>
    <g id="line2d_47">
     <defs>
      <path d="M 0 6 
C 1.591219 6 3.117479 5.367802 4.242641 4.242641 
C 5.367802 3.117479 6 1.591219 6 0 
C 6 -1.591219 5.367802 -3.117479 4.242641 -4.242641 
C 3.117479 -5.367802 1.591219 -6 0 -6 
C -1.591219 -6 -3.117479 -5.367802 -4.242641 -4.242641 
C -5.367802 -3.117479 -6 -1.591219 -6 0 
C -6 1.591219 -5.367802 3.117479 -4.242641 4.242641 
C -3.117479 5.367802 -1.591219 6 0 6 
z
" id="m624c24ce30" style="stroke:#000000;"/>
     </defs>
     <g>
      <use style="stroke:#000000;" x="637.569531" xlink:href="#m624c24ce30" y="76.060938"/>
     </g>
    </g>
    <g id="text_24">
     <!-- 100-150 -->
     <g transform="translate(655.569531 79.560938)scale(0.1 -0.1)">
      <use xlink:href="#NimbusSans-Regular-49"/>
      <use x="55.599991" xlink:href="#NimbusSans-Regular-48"/>
      <use x="111.199982" xlink:href="#NimbusSans-Regular-48"/>
      <use x="166.799973" xlink:href="#NimbusSans-Regular-45"/>
      <use x="200.09996" xlink:href="#NimbusSans-Regular-49"/>
      <use x="255.699951" xlink:href="#NimbusSans-Regular-53"/>
      <use x="311.299942" xlink:href="#NimbusSans-Regular-48"/>
     </g>
    </g>
    <g id="line2d_48"/>
    <g id="line2d_49">
     <defs>
      <path d="M 0 7.5 
C 1.989023 7.5 3.896849 6.709753 5.303301 5.303301 
C 6.709753 3.896849 7.5 1.989023 7.5 0 
C 7.5 -1.989023 6.709753 -3.896849 5.303301 -5.303301 
C 3.896849 -6.709753 1.989023 -7.5 0 -7.5 
C -1.989023 -7.5 -3.896849 -6.709753 -5.303301 -5.303301 
C -6.709753 -3.896849 -7.5 -1.989023 -7.5 0 
C -7.5 1.989023 -6.709753 3.896849 -5.303301 5.303301 
C -3.896849 6.709753 -1.989023 7.5 0 7.5 
z
" id="m47c853a752" style="stroke:#000000;"/>
     </defs>
     <g>
      <use style="stroke:#000000;" x="637.569531" xlink:href="#m47c853a752" y="93.53125"/>
     </g>
    </g>
    <g id="text_25">
     <!-- 150-200 -->
     <g transform="translate(655.569531 97.03125)scale(0.1 -0.1)">
      <use xlink:href="#NimbusSans-Regular-49"/>
      <use x="55.599991" xlink:href="#NimbusSans-Regular-53"/>
      <use x="111.199982" xlink:href="#NimbusSans-Regular-48"/>
      <use x="166.799973" xlink:href="#NimbusSans-Regular-45"/>
      <use x="200.09996" xlink:href="#NimbusSans-Regular-50"/>
      <use x="255.699951" xlink:href="#NimbusSans-Regular-48"/>
      <use x="311.299942" xlink:href="#NimbusSans-Regular-48"/>
     </g>
    </g>
    <g id="line2d_50"/>
    <g id="line2d_51">
     <defs>
      <path d="M 0 9 
C 2.386828 9 4.676219 8.051703 6.363961 6.363961 
C 8.051703 4.676219 9 2.386828 9 0 
C 9 -2.386828 8.051703 -4.676219 6.363961 -6.363961 
C 4.676219 -8.051703 2.386828 -9 0 -9 
C -2.386828 -9 -4.676219 -8.051703 -6.363961 -6.363961 
C -8.051703 -4.676219 -9 -2.386828 -9 0 
C -9 2.386828 -8.051703 4.676219 -6.363961 6.363961 
C -4.676219 8.051703 -2.386828 9 0 9 
z
" id="m63ae3c1636" style="stroke:#000000;"/>
     </defs>
     <g>
      <use style="stroke:#000000;" x="637.569531" xlink:href="#m63ae3c1636" y="111.001563"/>
     </g>
    </g>
    <g id="text_26">
     <!-- &gt;200 -->
     <g transform="translate(655.569531 114.501563)scale(0.1 -0.1)">
      <defs>
       <path d="M 53.90625 26.703125 
L 5 47.40625 
L 5 39.5 
L 44.40625 23.09375 
L 5 7 
L 5 -0.90625 
L 53.90625 19.796875 
z
" id="NimbusSans-Regular-62"/>
      </defs>
      <use xlink:href="#NimbusSans-Regular-62"/>
      <use x="58.399994" xlink:href="#NimbusSans-Regular-50"/>
      <use x="113.999985" xlink:href="#NimbusSans-Regular-48"/>
      <use x="169.599976" xlink:href="#NimbusSans-Regular-48"/>
     </g>
    </g>
   </g>
   <g id="legend_2">
    <g id="patch_8">
     <path d="M 600.173438 556.7 
L 702.2 556.7 
Q 704.2 556.7 704.2 554.7 
L 704.2 367.31875 
Q 704.2 365.31875 702.2 365.31875 
L 600.173438 365.31875 
Q 598.173438 365.31875 598.173438 367.31875 
L 598.173438 554.7 
Q 598.173438 556.7 600.173438 556.7 
z
" style="fill:#ffffff;opacity:0.8;stroke:#cccccc;stroke-linejoin:miter;"/>
    </g>
    <g id="text_27">
     <!-- Host -->
     <g transform="translate(640.907031 376.609375)scale(0.1 -0.1)">
      <defs>
       <path d="M 43.796875 37.796875 
C 43.703125 48.09375 36.90625 53.90625 24.796875 53.90625 
C 12.59375 53.90625 4.703125 47.59375 4.703125 37.90625 
C 4.703125 29.703125 8.90625 25.796875 21.296875 22.796875 
L 29.09375 20.90625 
C 34.90625 19.5 37.203125 17.40625 37.203125 13.703125 
C 37.203125 8.703125 32.296875 5.40625 25 5.40625 
C 20.5 5.40625 16.703125 6.703125 14.59375 8.90625 
C 13.296875 10.40625 12.703125 11.90625 12.203125 15.59375 
L 3.40625 15.59375 
C 3.796875 3.5 10.59375 -2.296875 24.296875 -2.296875 
C 37.5 -2.296875 45.90625 4.203125 45.90625 14.296875 
C 45.90625 22.09375 41.5 26.40625 31.09375 28.90625 
L 23.09375 30.796875 
C 16.296875 32.40625 13.40625 34.59375 13.40625 38.296875 
C 13.40625 43.203125 17.703125 46.203125 24.5 46.203125 
C 31.203125 46.203125 34.796875 43.296875 35 37.796875 
z
" id="NimbusSans-Regular-115"/>
       <path d="M 25.40625 52.40625 
L 16.796875 52.40625 
L 16.796875 66.796875 
L 8.5 66.796875 
L 8.5 52.40625 
L 1.40625 52.40625 
L 1.40625 45.59375 
L 8.5 45.59375 
L 8.5 6 
C 8.5 0.59375 12.09375 -2.296875 18.59375 -2.296875 
C 20.796875 -2.296875 22.59375 -2.09375 25.40625 -1.59375 
L 25.40625 5.40625 
C 24.203125 5.09375 23.09375 5 21.40625 5 
C 17.796875 5 16.796875 6 16.796875 9.703125 
L 16.796875 45.59375 
L 25.40625 45.59375 
z
" id="NimbusSans-Regular-116"/>
      </defs>
      <use xlink:href="#NimbusSans-Regular-72"/>
      <use x="72.199982" xlink:href="#NimbusSans-Regular-111"/>
      <use x="127.799973" xlink:href="#NimbusSans-Regular-115"/>
      <use x="177.799957" xlink:href="#NimbusSans-Regular-116"/>
     </g>
    </g>
    <g id="line2d_52"/>
    <g id="line2d_53">
     <defs>
      <path d="M 0 5 
C 1.326016 5 2.597899 4.473168 3.535534 3.535534 
C 4.473168 2.597899 5 1.326016 5 0 
C 5 -1.326016 4.473168 -2.597899 3.535534 -3.535534 
C 2.597899 -4.473168 1.326016 -5 0 -5 
C -1.326016 -5 -2.597899 -4.473168 -3.535534 -3.535534 
C -4.473168 -2.597899 -5 -1.326016 -5 0 
C -5 1.326016 -4.473168 2.597899 -3.535534 3.535534 
C -2.597899 4.473168 -1.326016 5 0 5 
z
" id="m2939c65507" style="stroke:#000000;"/>
     </defs>
     <g>
      <use style="fill:#17558f;stroke:#000000;" x="612.173438" xlink:href="#m2939c65507" y="387.579687"/>
     </g>
    </g>
    <g id="text_28">
     <!-- Escherichia -->
     <g transform="translate(630.173438 391.079687)scale(0.1 -0.1)">
      <defs>
       <path d="M 47.09375 34.796875 
C 46.703125 39.90625 45.59375 43.203125 43.59375 46.09375 
C 40 51 33.703125 53.90625 26.40625 53.90625 
C 12.203125 53.90625 3.09375 42.703125 3.09375 25.296875 
C 3.09375 8.40625 12.09375 -2.296875 26.296875 -2.296875 
C 38.796875 -2.296875 46.703125 5.203125 47.703125 18 
L 39.296875 18 
C 37.90625 9.59375 33.59375 5.40625 26.5 5.40625 
C 17.296875 5.40625 11.796875 12.90625 11.796875 25.296875 
C 11.796875 38.40625 17.203125 46.203125 26.296875 46.203125 
C 33.296875 46.203125 37.703125 42.09375 38.703125 34.796875 
z
" id="NimbusSans-Regular-99"/>
       <path d="M 7 72.90625 
L 7 0 
L 15.296875 0 
L 15.296875 28.90625 
C 15.296875 39.59375 20.90625 46.59375 29.5 46.59375 
C 32.296875 46.59375 34.90625 45.796875 36.90625 44.296875 
C 39.296875 42.5 40.296875 40 40.296875 36.296875 
L 40.296875 0 
L 48.59375 0 
L 48.59375 39.59375 
C 48.59375 48.40625 42.296875 53.90625 32.09375 53.90625 
C 24.703125 53.90625 20.203125 51.59375 15.296875 45.203125 
L 15.296875 72.90625 
z
" id="NimbusSans-Regular-104"/>
       <path d="M 6.90625 52.40625 
L 6.90625 0 
L 15.296875 0 
L 15.296875 27.203125 
C 15.40625 39.796875 20.59375 45.40625 32.09375 45.09375 
L 32.09375 53.59375 
C 30.703125 53.796875 29.90625 53.90625 28.90625 53.90625 
C 23.5 53.90625 19.40625 50.703125 14.59375 42.90625 
L 14.59375 52.40625 
z
" id="NimbusSans-Regular-114"/>
       <path d="M 53.5 4.90625 
C 52.59375 4.703125 52.203125 4.703125 51.703125 4.703125 
C 48.796875 4.703125 47.203125 6.203125 47.203125 8.796875 
L 47.203125 39.59375 
C 47.203125 48.90625 40.40625 53.90625 27.5 53.90625 
C 19.796875 53.90625 13.703125 51.703125 10.09375 47.796875 
C 7.703125 45.09375 6.703125 42.09375 6.5 36.90625 
L 14.90625 36.90625 
C 15.59375 43.296875 19.40625 46.203125 27.203125 46.203125 
C 34.796875 46.203125 38.90625 43.40625 38.90625 38.40625 
L 38.90625 36.203125 
C 38.796875 32.59375 37 31.296875 30.203125 30.40625 
C 18.40625 28.90625 16.59375 28.5 13.40625 27.203125 
C 7.296875 24.59375 4.203125 20 4.203125 13.203125 
C 4.203125 3.703125 10.796875 -2.296875 21.40625 -2.296875 
C 28 -2.296875 33.296875 0 39.203125 5.40625 
C 39.796875 0 42.40625 -2.296875 47.796875 -2.296875 
C 49.59375 -2.296875 50.703125 -2.09375 53.5 -1.40625 
z
M 38.90625 16.5 
C 38.90625 13.703125 38.09375 12 35.59375 9.703125 
C 32.203125 6.59375 28.09375 5 23.203125 5 
C 16.703125 5 12.90625 8.09375 12.90625 13.40625 
C 12.90625 18.90625 16.5 21.703125 25.5 23 
C 34.40625 24.203125 36.09375 24.59375 38.90625 25.90625 
z
" id="NimbusSans-Regular-97"/>
      </defs>
      <use xlink:href="#NimbusSans-Regular-69"/>
      <use x="66.699997" xlink:href="#NimbusSans-Regular-115"/>
      <use x="116.699982" xlink:href="#NimbusSans-Regular-99"/>
      <use x="166.699966" xlink:href="#NimbusSans-Regular-104"/>
      <use x="222.299957" xlink:href="#NimbusSans-Regular-101"/>
      <use x="277.899948" xlink:href="#NimbusSans-Regular-114"/>
      <use x="311.199936" xlink:href="#NimbusSans-Regular-105"/>
      <use x="333.399933" xlink:href="#NimbusSans-Regular-99"/>
      <use x="383.399918" xlink:href="#NimbusSans-Regular-104"/>
      <use x="438.999908" xlink:href="#NimbusSans-Regular-105"/>
      <use x="461.199905" xlink:href="#NimbusSans-Regular-97"/>
     </g>
    </g>
    <g id="line2d_54"/>
    <g id="line2d_55">
     <defs>
      <path d="M 0 5 
C 1.326016 5 2.597899 4.473168 3.535534 3.535534 
C 4.473168 2.597899 5 1.326016 5 0 
C 5 -1.326016 4.473168 -2.597899 3.535534 -3.535534 
C 2.597899 -4.473168 1.326016 -5 0 -5 
C -1.326016 -5 -2.597899 -4.473168 -3.535534 -3.535534 
C -4.473168 -2.597899 -5 -1.326016 -5 0 
C -5 1.326016 -4.473168 2.597899 -3.535534 3.535534 
C -2.597899 4.473168 -1.326016 5 0 5 
z
" id="mc596279df1" style="stroke:#000000;"/>
     </defs>
     <g>
      <use style="fill:#0583d2;stroke:#000000;" x="612.173438" xlink:href="#mc596279df1" y="402.05"/>
     </g>
    </g>
    <g id="text_29">
     <!-- Klebsiella -->
     <g transform="translate(630.173438 405.55)scale(0.1 -0.1)">
      <defs>
       <path d="M 15.203125 72.90625 
L 6.796875 72.90625 
L 6.796875 0 
L 15.203125 0 
z
" id="NimbusSans-Regular-108"/>
      </defs>
      <use xlink:href="#NimbusSans-Regular-75"/>
      <use x="66.699997" xlink:href="#NimbusSans-Regular-108"/>
      <use x="88.899994" xlink:href="#NimbusSans-Regular-101"/>
      <use x="144.499985" xlink:href="#NimbusSans-Regular-98"/>
      <use x="200.099976" xlink:href="#NimbusSans-Regular-115"/>
      <use x="250.09996" xlink:href="#NimbusSans-Regular-105"/>
      <use x="272.299957" xlink:href="#NimbusSans-Regular-101"/>
      <use x="327.899948" xlink:href="#NimbusSans-Regular-108"/>
      <use x="350.099945" xlink:href="#NimbusSans-Regular-108"/>
      <use x="372.299942" xlink:href="#NimbusSans-Regular-97"/>
     </g>
    </g>
    <g id="line2d_56"/>
    <g id="line2d_57">
     <defs>
      <path d="M 0 5 
C 1.326016 5 2.597899 4.473168 3.535534 3.535534 
C 4.473168 2.597899 5 1.326016 5 0 
C 5 -1.326016 4.473168 -2.597899 3.535534 -3.535534 
C 2.597899 -4.473168 1.326016 -5 0 -5 
C -1.326016 -5 -2.597899 -4.473168 -3.535534 -3.535534 
C -4.473168 -2.597899 -5 -1.326016 -5 0 
C -5 1.326016 -4.473168 2.597899 -3.535534 3.535534 
C -2.597899 4.473168 -1.326016 5 0 5 
z
" id="m44f5698254" style="stroke:#000000;"/>
     </defs>
     <g>
      <use style="fill:#61b0b7;stroke:#000000;" x="612.173438" xlink:href="#m44f5698254" y="416.520312"/>
     </g>
    </g>
    <g id="text_30">
     <!-- Pseudomonas -->
     <g transform="translate(630.173438 420.020312)scale(0.1 -0.1)">
      <defs>
       <path d="M 18.40625 30.90625 
L 41.296875 30.90625 
C 47 30.90625 51.5 32.59375 55.40625 36.09375 
C 59.796875 40.09375 61.703125 44.796875 61.703125 51.5 
C 61.703125 65.203125 53.59375 72.90625 39.203125 72.90625 
L 9.09375 72.90625 
L 9.09375 0 
L 18.40625 0 
z
M 18.40625 39.09375 
L 18.40625 64.703125 
L 37.796875 64.703125 
C 46.703125 64.703125 52 59.90625 52 51.90625 
C 52 43.90625 46.703125 39.09375 37.796875 39.09375 
z
" id="NimbusSans-Regular-80"/>
       <path d="M 48.203125 0 
L 48.203125 52.40625 
L 39.90625 52.40625 
L 39.90625 22.703125 
C 39.90625 12 34.296875 5 25.59375 5 
C 19 5 14.796875 9 14.796875 15.296875 
L 14.796875 52.40625 
L 6.5 52.40625 
L 6.5 12 
C 6.5 3.296875 13 -2.296875 23.203125 -2.296875 
C 30.90625 -2.296875 35.796875 0.40625 40.703125 7.296875 
L 40.703125 0 
z
" id="NimbusSans-Regular-117"/>
       <path d="M 49.5 72.90625 
L 41.203125 72.90625 
L 41.203125 45.796875 
C 37.703125 51.09375 32.09375 53.90625 25.09375 53.90625 
C 11.5 53.90625 2.59375 43 2.59375 26.296875 
C 2.59375 8.59375 11.203125 -2.296875 25.40625 -2.296875 
C 32.59375 -2.296875 37.59375 0.40625 42.09375 6.90625 
L 42.09375 0 
L 49.5 0 
z
M 26.5 46.09375 
C 35.5 46.09375 41.203125 38.203125 41.203125 25.59375 
C 41.203125 13.5 35.40625 5.5 26.59375 5.5 
C 17.40625 5.5 11.296875 13.59375 11.296875 25.796875 
C 11.296875 38 17.40625 46.09375 26.5 46.09375 
z
" id="NimbusSans-Regular-100"/>
      </defs>
      <use xlink:href="#NimbusSans-Regular-80"/>
      <use x="66.699997" xlink:href="#NimbusSans-Regular-115"/>
      <use x="116.699982" xlink:href="#NimbusSans-Regular-101"/>
      <use x="172.299973" xlink:href="#NimbusSans-Regular-117"/>
      <use x="227.899963" xlink:href="#NimbusSans-Regular-100"/>
      <use x="283.499954" xlink:href="#NimbusSans-Regular-111"/>
      <use x="339.099945" xlink:href="#NimbusSans-Regular-109"/>
      <use x="422.399933" xlink:href="#NimbusSans-Regular-111"/>
      <use x="477.999924" xlink:href="#NimbusSans-Regular-110"/>
      <use x="533.599915" xlink:href="#NimbusSans-Regular-97"/>
      <use x="589.199905" xlink:href="#NimbusSans-Regular-115"/>
     </g>
    </g>
    <g id="line2d_58"/>
    <g id="line2d_59">
     <defs>
      <path d="M 0 5 
C 1.326016 5 2.597899 4.473168 3.535534 3.535534 
C 4.473168 2.597899 5 1.326016 5 0 
C 5 -1.326016 4.473168 -2.597899 3.535534 -3.535534 
C 2.597899 -4.473168 1.326016 -5 0 -5 
C -1.326016 -5 -2.597899 -4.473168 -3.535534 -3.535534 
C -4.473168 -2.597899 -5 -1.326016 -5 0 
C -5 1.326016 -4.473168 2.597899 -3.535534 3.535534 
C -2.597899 4.473168 -1.326016 5 0 5 
z
" id="m2efc5c3aa7" style="stroke:#000000;"/>
     </defs>
     <g>
      <use style="fill:#b8e3ff;stroke:#000000;" x="612.173438" xlink:href="#m2efc5c3aa7" y="430.990625"/>
     </g>
    </g>
    <g id="text_31">
     <!-- Wolbachia -->
     <g transform="translate(630.173438 434.490625)scale(0.1 -0.1)">
      <use xlink:href="#NimbusSans-Regular-87"/>
      <use x="94.399994" xlink:href="#NimbusSans-Regular-111"/>
      <use x="149.999985" xlink:href="#NimbusSans-Regular-108"/>
      <use x="172.199982" xlink:href="#NimbusSans-Regular-98"/>
      <use x="227.799973" xlink:href="#NimbusSans-Regular-97"/>
      <use x="283.399963" xlink:href="#NimbusSans-Regular-99"/>
      <use x="333.399948" xlink:href="#NimbusSans-Regular-104"/>
      <use x="388.999939" xlink:href="#NimbusSans-Regular-105"/>
      <use x="411.199936" xlink:href="#NimbusSans-Regular-97"/>
     </g>
    </g>
    <g id="line2d_60"/>
    <g id="line2d_61">
     <defs>
      <path d="M 0 5 
C 1.326016 5 2.597899 4.473168 3.535534 3.535534 
C 4.473168 2.597899 5 1.326016 5 0 
C 5 -1.326016 4.473168 -2.597899 3.535534 -3.535534 
C 2.597899 -4.473168 1.326016 -5 0 -5 
C -1.326016 -5 -2.597899 -4.473168 -3.535534 -3.535534 
C -4.473168 -2.597899 -5 -1.326016 -5 0 
C -5 1.326016 -4.473168 2.597899 -3.535534 3.535534 
C -2.597899 4.473168 -1.326016 5 0 5 
z
" id="m025a4f6444" style="stroke:#000000;"/>
     </defs>
     <g>
      <use style="fill:#6e7c39;stroke:#000000;" x="612.173438" xlink:href="#m025a4f6444" y="445.460937"/>
     </g>
    </g>
    <g id="text_32">
     <!-- Bacillus -->
     <g transform="translate(630.173438 448.960937)scale(0.1 -0.1)">
      <defs>
       <path d="M 7.90625 0 
L 40.796875 0 
C 47.703125 0 52.796875 1.90625 56.703125 6.09375 
C 60.296875 9.90625 62.296875 15.09375 62.296875 20.796875 
C 62.296875 29.59375 58.296875 34.90625 49 38.5 
C 55.703125 41.59375 59.09375 46.90625 59.09375 54.40625 
C 59.09375 59.796875 57.09375 64.40625 53.296875 67.796875 
C 49.40625 71.296875 44.5 72.90625 37.5 72.90625 
L 7.90625 72.90625 
z
M 17.203125 41.5 
L 17.203125 64.703125 
L 35.203125 64.703125 
C 40.40625 64.703125 43.296875 64 45.796875 62.09375 
C 48.40625 60.09375 49.796875 57.09375 49.796875 53.09375 
C 49.796875 49.09375 48.40625 46.09375 45.796875 44.09375 
C 43.296875 42.203125 40.40625 41.5 35.203125 41.5 
z
M 17.203125 8.203125 
L 17.203125 33.296875 
L 39.90625 33.296875 
C 48.09375 33.296875 53 28.59375 53 20.703125 
C 53 12.90625 48.09375 8.203125 39.90625 8.203125 
z
" id="NimbusSans-Regular-66"/>
      </defs>
      <use xlink:href="#NimbusSans-Regular-66"/>
      <use x="66.699997" xlink:href="#NimbusSans-Regular-97"/>
      <use x="122.299988" xlink:href="#NimbusSans-Regular-99"/>
      <use x="172.299973" xlink:href="#NimbusSans-Regular-105"/>
      <use x="194.499969" xlink:href="#NimbusSans-Regular-108"/>
      <use x="216.699966" xlink:href="#NimbusSans-Regular-108"/>
      <use x="238.899963" xlink:href="#NimbusSans-Regular-117"/>
      <use x="294.499954" xlink:href="#NimbusSans-Regular-115"/>
     </g>
    </g>
    <g id="line2d_62"/>
    <g id="line2d_63">
     <defs>
      <path d="M 0 5 
C 1.326016 5 2.597899 4.473168 3.535534 3.535534 
C 4.473168 2.597899 5 1.326016 5 0 
C 5 -1.326016 4.473168 -2.597899 3.535534 -3.535534 
C 2.597899 -4.473168 1.326016 -5 0 -5 
C -1.326016 -5 -2.597899 -4.473168 -3.535534 -3.535534 
C -4.473168 -2.597899 -5 -1.326016 -5 0 
C -5 1.326016 -4.473168 2.597899 -3.535534 3.535534 
C -2.597899 4.473168 -1.326016 5 0 5 
z
" id="maf3dd3f6ba" style="stroke:#000000;"/>
     </defs>
     <g>
      <use style="fill:#a4de03;stroke:#000000;" x="612.173438" xlink:href="#maf3dd3f6ba" y="459.93125"/>
     </g>
    </g>
    <g id="text_33">
     <!-- Clostridium -->
     <g transform="translate(630.173438 463.43125)scale(0.1 -0.1)">
      <use xlink:href="#NimbusSans-Regular-67"/>
      <use x="72.199982" xlink:href="#NimbusSans-Regular-108"/>
      <use x="94.399979" xlink:href="#NimbusSans-Regular-111"/>
      <use x="149.999969" xlink:href="#NimbusSans-Regular-115"/>
      <use x="199.999954" xlink:href="#NimbusSans-Regular-116"/>
      <use x="227.799942" xlink:href="#NimbusSans-Regular-114"/>
      <use x="261.09993" xlink:href="#NimbusSans-Regular-105"/>
      <use x="283.299927" xlink:href="#NimbusSans-Regular-100"/>
      <use x="338.899918" xlink:href="#NimbusSans-Regular-105"/>
      <use x="361.099915" xlink:href="#NimbusSans-Regular-117"/>
      <use x="416.699905" xlink:href="#NimbusSans-Regular-109"/>
     </g>
    </g>
    <g id="line2d_64"/>
    <g id="line2d_65">
     <defs>
      <path d="M 0 5 
C 1.326016 5 2.597899 4.473168 3.535534 3.535534 
C 4.473168 2.597899 5 1.326016 5 0 
C 5 -1.326016 4.473168 -2.597899 3.535534 -3.535534 
C 2.597899 -4.473168 1.326016 -5 0 -5 
C -1.326016 -5 -2.597899 -4.473168 -3.535534 -3.535534 
C -4.473168 -2.597899 -5 -1.326016 -5 0 
C -5 1.326016 -4.473168 2.597899 -3.535534 3.535534 
C -2.597899 4.473168 -1.326016 5 0 5 
z
" id="m6619a6ba7c" style="stroke:#000000;"/>
     </defs>
     <g>
      <use style="fill:#76ba1c;stroke:#000000;" x="612.173438" xlink:href="#m6619a6ba7c" y="474.401562"/>
     </g>
    </g>
    <g id="text_34">
     <!-- Enterococcus -->
     <g transform="translate(630.173438 477.901562)scale(0.1 -0.1)">
      <use xlink:href="#NimbusSans-Regular-69"/>
      <use x="66.699997" xlink:href="#NimbusSans-Regular-110"/>
      <use x="122.299988" xlink:href="#NimbusSans-Regular-116"/>
      <use x="150.099976" xlink:href="#NimbusSans-Regular-101"/>
      <use x="205.699966" xlink:href="#NimbusSans-Regular-114"/>
      <use x="238.999954" xlink:href="#NimbusSans-Regular-111"/>
      <use x="294.599945" xlink:href="#NimbusSans-Regular-99"/>
      <use x="344.59993" xlink:href="#NimbusSans-Regular-111"/>
      <use x="400.199921" xlink:href="#NimbusSans-Regular-99"/>
      <use x="450.199905" xlink:href="#NimbusSans-Regular-99"/>
      <use x="500.19989" xlink:href="#NimbusSans-Regular-117"/>
      <use x="555.799881" xlink:href="#NimbusSans-Regular-115"/>
     </g>
    </g>
    <g id="line2d_66"/>
    <g id="line2d_67">
     <defs>
      <path d="M 0 5 
C 1.326016 5 2.597899 4.473168 3.535534 3.535534 
C 4.473168 2.597899 5 1.326016 5 0 
C 5 -1.326016 4.473168 -2.597899 3.535534 -3.535534 
C 2.597899 -4.473168 1.326016 -5 0 -5 
C -1.326016 -5 -2.597899 -4.473168 -3.535534 -3.535534 
C -4.473168 -2.597899 -5 -1.326016 -5 0 
C -5 1.326016 -4.473168 2.597899 -3.535534 3.535534 
C -2.597899 4.473168 -1.326016 5 0 5 
z
" id="mfabf67d10b" style="stroke:#000000;"/>
     </defs>
     <g>
      <use style="fill:#4c9a2a;stroke:#000000;" x="612.173438" xlink:href="#mfabf67d10b" y="488.871875"/>
     </g>
    </g>
    <g id="text_35">
     <!-- Listeria -->
     <g transform="translate(630.173438 492.371875)scale(0.1 -0.1)">
      <use xlink:href="#NimbusSans-Regular-76"/>
      <use x="55.599991" xlink:href="#NimbusSans-Regular-105"/>
      <use x="77.799988" xlink:href="#NimbusSans-Regular-115"/>
      <use x="127.799973" xlink:href="#NimbusSans-Regular-116"/>
      <use x="155.59996" xlink:href="#NimbusSans-Regular-101"/>
      <use x="211.199951" xlink:href="#NimbusSans-Regular-114"/>
      <use x="244.499939" xlink:href="#NimbusSans-Regular-105"/>
      <use x="266.699936" xlink:href="#NimbusSans-Regular-97"/>
     </g>
    </g>
    <g id="line2d_68"/>
    <g id="line2d_69">
     <defs>
      <path d="M 0 5 
C 1.326016 5 2.597899 4.473168 3.535534 3.535534 
C 4.473168 2.597899 5 1.326016 5 0 
C 5 -1.326016 4.473168 -2.597899 3.535534 -3.535534 
C 2.597899 -4.473168 1.326016 -5 0 -5 
C -1.326016 -5 -2.597899 -4.473168 -3.535534 -3.535534 
C -4.473168 -2.597899 -5 -1.326016 -5 0 
C -5 1.326016 -4.473168 2.597899 -3.535534 3.535534 
C -2.597899 4.473168 -1.326016 5 0 5 
z
" id="mb5103b2777" style="stroke:#000000;"/>
     </defs>
     <g>
      <use style="fill:#acdf87;stroke:#000000;" x="612.173438" xlink:href="#mb5103b2777" y="503.460937"/>
     </g>
    </g>
    <g id="text_36">
     <!-- Staphylococcus -->
     <g transform="translate(630.173438 506.960937)scale(0.1 -0.1)">
      <defs>
       <path d="M 5.40625 -21.796875 
L 13.796875 -21.796875 
L 13.796875 5.5 
C 18.203125 0.09375 23.09375 -2.296875 29.90625 -2.296875 
C 43.5 -2.296875 52.296875 8.59375 52.296875 25.296875 
C 52.296875 42.90625 43.703125 53.90625 29.796875 53.90625 
C 22.703125 53.90625 17 50.703125 13.09375 44.5 
L 13.09375 52.40625 
L 5.40625 52.40625 
z
M 28.40625 46.09375 
C 37.59375 46.09375 43.59375 38 43.59375 25.5 
C 43.59375 13.59375 37.5 5.5 28.40625 5.5 
C 19.5 5.5 13.796875 13.5 13.796875 25.796875 
C 13.796875 38.09375 19.5 46.09375 28.40625 46.09375 
z
" id="NimbusSans-Regular-112"/>
       <path d="M 38.796875 52.40625 
L 24.296875 11.59375 
L 10.90625 52.40625 
L 2 52.40625 
L 19.703125 -0.203125 
L 16.5 -8.5 
C 15.09375 -12.203125 13.296875 -13.59375 9.796875 -13.59375 
C 8.40625 -13.59375 7.203125 -13.40625 5.40625 -13 
L 5.40625 -20.5 
C 7.09375 -21.40625 8.796875 -21.796875 11 -21.796875 
C 13.703125 -21.796875 16.59375 -20.90625 18.796875 -19.296875 
C 21.40625 -17.40625 22.90625 -15.203125 24.5 -11 
L 47.796875 52.40625 
z
" id="NimbusSans-Regular-121"/>
      </defs>
      <use xlink:href="#NimbusSans-Regular-83"/>
      <use x="66.699997" xlink:href="#NimbusSans-Regular-116"/>
      <use x="94.499985" xlink:href="#NimbusSans-Regular-97"/>
      <use x="150.099976" xlink:href="#NimbusSans-Regular-112"/>
      <use x="205.699966" xlink:href="#NimbusSans-Regular-104"/>
      <use x="261.299957" xlink:href="#NimbusSans-Regular-121"/>
      <use x="311.299942" xlink:href="#NimbusSans-Regular-108"/>
      <use x="333.499939" xlink:href="#NimbusSans-Regular-111"/>
      <use x="389.09993" xlink:href="#NimbusSans-Regular-99"/>
      <use x="439.099915" xlink:href="#NimbusSans-Regular-111"/>
      <use x="494.699905" xlink:href="#NimbusSans-Regular-99"/>
      <use x="544.69989" xlink:href="#NimbusSans-Regular-99"/>
      <use x="594.699875" xlink:href="#NimbusSans-Regular-117"/>
      <use x="650.299866" xlink:href="#NimbusSans-Regular-115"/>
     </g>
    </g>
    <g id="line2d_70"/>
    <g id="line2d_71">
     <defs>
      <path d="M 0 5 
C 1.326016 5 2.597899 4.473168 3.535534 3.535534 
C 4.473168 2.597899 5 1.326016 5 0 
C 5 -1.326016 4.473168 -2.597899 3.535534 -3.535534 
C 2.597899 -4.473168 1.326016 -5 0 -5 
C -1.326016 -5 -2.597899 -4.473168 -3.535534 -3.535534 
C -4.473168 -2.597899 -5 -1.326016 -5 0 
C -5 1.326016 -4.473168 2.597899 -3.535534 3.535534 
C -2.597899 4.473168 -1.326016 5 0 5 
z
" id="m650c1c95be" style="stroke:#000000;"/>
     </defs>
     <g>
      <use style="fill:#65b556;stroke:#000000;" x="612.173438" xlink:href="#m650c1c95be" y="518.05"/>
     </g>
    </g>
    <g id="text_37">
     <!-- Streptococcus -->
     <g transform="translate(630.173438 521.55)scale(0.1 -0.1)">
      <use xlink:href="#NimbusSans-Regular-83"/>
      <use x="66.699997" xlink:href="#NimbusSans-Regular-116"/>
      <use x="94.499985" xlink:href="#NimbusSans-Regular-114"/>
      <use x="127.799973" xlink:href="#NimbusSans-Regular-101"/>
      <use x="183.399963" xlink:href="#NimbusSans-Regular-112"/>
      <use x="238.999954" xlink:href="#NimbusSans-Regular-116"/>
      <use x="266.799942" xlink:href="#NimbusSans-Regular-111"/>
      <use x="322.399933" xlink:href="#NimbusSans-Regular-99"/>
      <use x="372.399918" xlink:href="#NimbusSans-Regular-111"/>
      <use x="427.999908" xlink:href="#NimbusSans-Regular-99"/>
      <use x="477.999893" xlink:href="#NimbusSans-Regular-99"/>
      <use x="527.999878" xlink:href="#NimbusSans-Regular-117"/>
      <use x="583.599869" xlink:href="#NimbusSans-Regular-115"/>
     </g>
    </g>
    <g id="line2d_72"/>
    <g id="line2d_73">
     <defs>
      <path d="M 0 5 
C 1.326016 5 2.597899 4.473168 3.535534 3.535534 
C 4.473168 2.597899 5 1.326016 5 0 
C 5 -1.326016 4.473168 -2.597899 3.535534 -3.535534 
C 2.597899 -4.473168 1.326016 -5 0 -5 
C -1.326016 -5 -2.597899 -4.473168 -3.535534 -3.535534 
C -4.473168 -2.597899 -5 -1.326016 -5 0 
C -5 1.326016 -4.473168 2.597899 -3.535534 3.535534 
C -2.597899 4.473168 -1.326016 5 0 5 
z
" id="m2c1b7a475c" style="stroke:#000000;"/>
     </defs>
     <g>
      <use style="fill:#ffa500;stroke:#000000;" x="612.173438" xlink:href="#m2c1b7a475c" y="532.520313"/>
     </g>
    </g>
    <g id="text_38">
     <!-- Mycobacterium -->
     <g transform="translate(630.173438 536.020313)scale(0.1 -0.1)">
      <use xlink:href="#NimbusSans-Regular-77"/>
      <use x="83.299988" xlink:href="#NimbusSans-Regular-121"/>
      <use x="133.299973" xlink:href="#NimbusSans-Regular-99"/>
      <use x="183.299957" xlink:href="#NimbusSans-Regular-111"/>
      <use x="238.899948" xlink:href="#NimbusSans-Regular-98"/>
      <use x="294.499939" xlink:href="#NimbusSans-Regular-97"/>
      <use x="350.09993" xlink:href="#NimbusSans-Regular-99"/>
      <use x="400.099915" xlink:href="#NimbusSans-Regular-116"/>
      <use x="427.899902" xlink:href="#NimbusSans-Regular-101"/>
      <use x="483.499893" xlink:href="#NimbusSans-Regular-114"/>
      <use x="516.799881" xlink:href="#NimbusSans-Regular-105"/>
      <use x="538.999878" xlink:href="#NimbusSans-Regular-117"/>
      <use x="594.599869" xlink:href="#NimbusSans-Regular-109"/>
     </g>
    </g>
    <g id="line2d_74"/>
    <g id="line2d_75">
     <defs>
      <path d="M 0 5 
C 1.326016 5 2.597899 4.473168 3.535534 3.535534 
C 4.473168 2.597899 5 1.326016 5 0 
C 5 -1.326016 4.473168 -2.597899 3.535534 -3.535534 
C 2.597899 -4.473168 1.326016 -5 0 -5 
C -1.326016 -5 -2.597899 -4.473168 -3.535534 -3.535534 
C -4.473168 -2.597899 -5 -1.326016 -5 0 
C -5 1.326016 -4.473168 2.597899 -3.535534 3.535534 
C -2.597899 4.473168 -1.326016 5 0 5 
z
" id="m99276d9fbd" style="stroke:#000000;"/>
     </defs>
     <g>
      <use style="fill:#ffffff;stroke:#000000;" x="612.173438" xlink:href="#m99276d9fbd" y="547.020313"/>
     </g>
    </g>
    <g id="text_39">
     <!-- Unspecified -->
     <g transform="translate(630.173438 550.520313)scale(0.1 -0.1)">
      <defs>
       <path d="M 25.796875 52.40625 
L 17.09375 52.40625 
L 17.09375 60.59375 
C 17.09375 64.09375 19 65.90625 22.90625 65.90625 
C 23.59375 65.90625 23.90625 65.90625 25.796875 65.796875 
L 25.796875 72.703125 
C 23.90625 73.09375 22.796875 73.203125 21.09375 73.203125 
C 13.40625 73.203125 8.796875 68.796875 8.796875 61.296875 
L 8.796875 52.40625 
L 1.796875 52.40625 
L 1.796875 45.59375 
L 8.796875 45.59375 
L 8.796875 0 
L 17.09375 0 
L 17.09375 45.59375 
L 25.796875 45.59375 
z
" id="NimbusSans-Regular-102"/>
      </defs>
      <use xlink:href="#NimbusSans-Regular-85"/>
      <use x="72.199982" xlink:href="#NimbusSans-Regular-110"/>
      <use x="127.799973" xlink:href="#NimbusSans-Regular-115"/>
      <use x="177.799957" xlink:href="#NimbusSans-Regular-112"/>
      <use x="233.399948" xlink:href="#NimbusSans-Regular-101"/>
      <use x="288.999939" xlink:href="#NimbusSans-Regular-99"/>
      <use x="338.999924" xlink:href="#NimbusSans-Regular-105"/>
      <use x="361.199921" xlink:href="#NimbusSans-Regular-102"/>
      <use x="388.999908" xlink:href="#NimbusSans-Regular-105"/>
      <use x="411.199905" xlink:href="#NimbusSans-Regular-101"/>
      <use x="466.799896" xlink:href="#NimbusSans-Regular-100"/>
     </g>
    </g>
   </g>
   <g id="legend_3">
    <g id="patch_9">
     <path d="M 600.173438 556.7 
L 702.2 556.7 
Q 704.2 556.7 704.2 554.7 
L 704.2 367.31875 
Q 704.2 365.31875 702.2 365.31875 
L 600.173438 365.31875 
Q 598.173438 365.31875 598.173438 367.31875 
L 598.173438 554.7 
Q 598.173438 556.7 600.173438 556.7 
z
" style="fill:#ffffff;opacity:0.8;stroke:#cccccc;stroke-linejoin:miter;"/>
    </g>
    <g id="text_40">
     <!-- Host -->
     <g transform="translate(640.907031 376.609375)scale(0.1 -0.1)">
      <use xlink:href="#NimbusSans-Regular-72"/>
      <use x="72.199982" xlink:href="#NimbusSans-Regular-111"/>
      <use x="127.799973" xlink:href="#NimbusSans-Regular-115"/>
      <use x="177.799957" xlink:href="#NimbusSans-Regular-116"/>
     </g>
    </g>
    <g id="line2d_76"/>
    <g id="line2d_77">
     <g>
      <use style="fill:#17558f;stroke:#000000;" x="612.173438" xlink:href="#m2939c65507" y="387.579687"/>
     </g>
    </g>
    <g id="text_41">
     <!-- Escherichia -->
     <g transform="translate(630.173438 391.079687)scale(0.1 -0.1)">
      <use xlink:href="#NimbusSans-Regular-69"/>
      <use x="66.699997" xlink:href="#NimbusSans-Regular-115"/>
      <use x="116.699982" xlink:href="#NimbusSans-Regular-99"/>
      <use x="166.699966" xlink:href="#NimbusSans-Regular-104"/>
      <use x="222.299957" xlink:href="#NimbusSans-Regular-101"/>
      <use x="277.899948" xlink:href="#NimbusSans-Regular-114"/>
      <use x="311.199936" xlink:href="#NimbusSans-Regular-105"/>
      <use x="333.399933" xlink:href="#NimbusSans-Regular-99"/>
      <use x="383.399918" xlink:href="#NimbusSans-Regular-104"/>
      <use x="438.999908" xlink:href="#NimbusSans-Regular-105"/>
      <use x="461.199905" xlink:href="#NimbusSans-Regular-97"/>
     </g>
    </g>
    <g id="line2d_78"/>
    <g id="line2d_79">
     <g>
      <use style="fill:#0583d2;stroke:#000000;" x="612.173438" xlink:href="#mc596279df1" y="402.05"/>
     </g>
    </g>
    <g id="text_42">
     <!-- Klebsiella -->
     <g transform="translate(630.173438 405.55)scale(0.1 -0.1)">
      <use xlink:href="#NimbusSans-Regular-75"/>
      <use x="66.699997" xlink:href="#NimbusSans-Regular-108"/>
      <use x="88.899994" xlink:href="#NimbusSans-Regular-101"/>
      <use x="144.499985" xlink:href="#NimbusSans-Regular-98"/>
      <use x="200.099976" xlink:href="#NimbusSans-Regular-115"/>
      <use x="250.09996" xlink:href="#NimbusSans-Regular-105"/>
      <use x="272.299957" xlink:href="#NimbusSans-Regular-101"/>
      <use x="327.899948" xlink:href="#NimbusSans-Regular-108"/>
      <use x="350.099945" xlink:href="#NimbusSans-Regular-108"/>
      <use x="372.299942" xlink:href="#NimbusSans-Regular-97"/>
     </g>
    </g>
    <g id="line2d_80"/>
    <g id="line2d_81">
     <g>
      <use style="fill:#61b0b7;stroke:#000000;" x="612.173438" xlink:href="#m44f5698254" y="416.520312"/>
     </g>
    </g>
    <g id="text_43">
     <!-- Pseudomonas -->
     <g transform="translate(630.173438 420.020312)scale(0.1 -0.1)">
      <use xlink:href="#NimbusSans-Regular-80"/>
      <use x="66.699997" xlink:href="#NimbusSans-Regular-115"/>
      <use x="116.699982" xlink:href="#NimbusSans-Regular-101"/>
      <use x="172.299973" xlink:href="#NimbusSans-Regular-117"/>
      <use x="227.899963" xlink:href="#NimbusSans-Regular-100"/>
      <use x="283.499954" xlink:href="#NimbusSans-Regular-111"/>
      <use x="339.099945" xlink:href="#NimbusSans-Regular-109"/>
      <use x="422.399933" xlink:href="#NimbusSans-Regular-111"/>
      <use x="477.999924" xlink:href="#NimbusSans-Regular-110"/>
      <use x="533.599915" xlink:href="#NimbusSans-Regular-97"/>
      <use x="589.199905" xlink:href="#NimbusSans-Regular-115"/>
     </g>
    </g>
    <g id="line2d_82"/>
    <g id="line2d_83">
     <g>
      <use style="fill:#b8e3ff;stroke:#000000;" x="612.173438" xlink:href="#m2efc5c3aa7" y="430.990625"/>
     </g>
    </g>
    <g id="text_44">
     <!-- Wolbachia -->
     <g transform="translate(630.173438 434.490625)scale(0.1 -0.1)">
      <use xlink:href="#NimbusSans-Regular-87"/>
      <use x="94.399994" xlink:href="#NimbusSans-Regular-111"/>
      <use x="149.999985" xlink:href="#NimbusSans-Regular-108"/>
      <use x="172.199982" xlink:href="#NimbusSans-Regular-98"/>
      <use x="227.799973" xlink:href="#NimbusSans-Regular-97"/>
      <use x="283.399963" xlink:href="#NimbusSans-Regular-99"/>
      <use x="333.399948" xlink:href="#NimbusSans-Regular-104"/>
      <use x="388.999939" xlink:href="#NimbusSans-Regular-105"/>
      <use x="411.199936" xlink:href="#NimbusSans-Regular-97"/>
     </g>
    </g>
    <g id="line2d_84"/>
    <g id="line2d_85">
     <g>
      <use style="fill:#6e7c39;stroke:#000000;" x="612.173438" xlink:href="#m025a4f6444" y="445.460937"/>
     </g>
    </g>
    <g id="text_45">
     <!-- Bacillus -->
     <g transform="translate(630.173438 448.960937)scale(0.1 -0.1)">
      <use xlink:href="#NimbusSans-Regular-66"/>
      <use x="66.699997" xlink:href="#NimbusSans-Regular-97"/>
      <use x="122.299988" xlink:href="#NimbusSans-Regular-99"/>
      <use x="172.299973" xlink:href="#NimbusSans-Regular-105"/>
      <use x="194.499969" xlink:href="#NimbusSans-Regular-108"/>
      <use x="216.699966" xlink:href="#NimbusSans-Regular-108"/>
      <use x="238.899963" xlink:href="#NimbusSans-Regular-117"/>
      <use x="294.499954" xlink:href="#NimbusSans-Regular-115"/>
     </g>
    </g>
    <g id="line2d_86"/>
    <g id="line2d_87">
     <g>
      <use style="fill:#a4de03;stroke:#000000;" x="612.173438" xlink:href="#maf3dd3f6ba" y="459.93125"/>
     </g>
    </g>
    <g id="text_46">
     <!-- Clostridium -->
     <g transform="translate(630.173438 463.43125)scale(0.1 -0.1)">
      <use xlink:href="#NimbusSans-Regular-67"/>
      <use x="72.199982" xlink:href="#NimbusSans-Regular-108"/>
      <use x="94.399979" xlink:href="#NimbusSans-Regular-111"/>
      <use x="149.999969" xlink:href="#NimbusSans-Regular-115"/>
      <use x="199.999954" xlink:href="#NimbusSans-Regular-116"/>
      <use x="227.799942" xlink:href="#NimbusSans-Regular-114"/>
      <use x="261.09993" xlink:href="#NimbusSans-Regular-105"/>
      <use x="283.299927" xlink:href="#NimbusSans-Regular-100"/>
      <use x="338.899918" xlink:href="#NimbusSans-Regular-105"/>
      <use x="361.099915" xlink:href="#NimbusSans-Regular-117"/>
      <use x="416.699905" xlink:href="#NimbusSans-Regular-109"/>
     </g>
    </g>
    <g id="line2d_88"/>
    <g id="line2d_89">
     <g>
      <use style="fill:#76ba1c;stroke:#000000;" x="612.173438" xlink:href="#m6619a6ba7c" y="474.401562"/>
     </g>
    </g>
    <g id="text_47">
     <!-- Enterococcus -->
     <g transform="translate(630.173438 477.901562)scale(0.1 -0.1)">
      <use xlink:href="#NimbusSans-Regular-69"/>
      <use x="66.699997" xlink:href="#NimbusSans-Regular-110"/>
      <use x="122.299988" xlink:href="#NimbusSans-Regular-116"/>
      <use x="150.099976" xlink:href="#NimbusSans-Regular-101"/>
      <use x="205.699966" xlink:href="#NimbusSans-Regular-114"/>
      <use x="238.999954" xlink:href="#NimbusSans-Regular-111"/>
      <use x="294.599945" xlink:href="#NimbusSans-Regular-99"/>
      <use x="344.59993" xlink:href="#NimbusSans-Regular-111"/>
      <use x="400.199921" xlink:href="#NimbusSans-Regular-99"/>
      <use x="450.199905" xlink:href="#NimbusSans-Regular-99"/>
      <use x="500.19989" xlink:href="#NimbusSans-Regular-117"/>
      <use x="555.799881" xlink:href="#NimbusSans-Regular-115"/>
     </g>
    </g>
    <g id="line2d_90"/>
    <g id="line2d_91">
     <g>
      <use style="fill:#4c9a2a;stroke:#000000;" x="612.173438" xlink:href="#mfabf67d10b" y="488.871875"/>
     </g>
    </g>
    <g id="text_48">
     <!-- Listeria -->
     <g transform="translate(630.173438 492.371875)scale(0.1 -0.1)">
      <use xlink:href="#NimbusSans-Regular-76"/>
      <use x="55.599991" xlink:href="#NimbusSans-Regular-105"/>
      <use x="77.799988" xlink:href="#NimbusSans-Regular-115"/>
      <use x="127.799973" xlink:href="#NimbusSans-Regular-116"/>
      <use x="155.59996" xlink:href="#NimbusSans-Regular-101"/>
      <use x="211.199951" xlink:href="#NimbusSans-Regular-114"/>
      <use x="244.499939" xlink:href="#NimbusSans-Regular-105"/>
      <use x="266.699936" xlink:href="#NimbusSans-Regular-97"/>
     </g>
    </g>
    <g id="line2d_92"/>
    <g id="line2d_93">
     <g>
      <use style="fill:#acdf87;stroke:#000000;" x="612.173438" xlink:href="#mb5103b2777" y="503.460937"/>
     </g>
    </g>
    <g id="text_49">
     <!-- Staphylococcus -->
     <g transform="translate(630.173438 506.960937)scale(0.1 -0.1)">
      <use xlink:href="#NimbusSans-Regular-83"/>
      <use x="66.699997" xlink:href="#NimbusSans-Regular-116"/>
      <use x="94.499985" xlink:href="#NimbusSans-Regular-97"/>
      <use x="150.099976" xlink:href="#NimbusSans-Regular-112"/>
      <use x="205.699966" xlink:href="#NimbusSans-Regular-104"/>
      <use x="261.299957" xlink:href="#NimbusSans-Regular-121"/>
      <use x="311.299942" xlink:href="#NimbusSans-Regular-108"/>
      <use x="333.499939" xlink:href="#NimbusSans-Regular-111"/>
      <use x="389.09993" xlink:href="#NimbusSans-Regular-99"/>
      <use x="439.099915" xlink:href="#NimbusSans-Regular-111"/>
      <use x="494.699905" xlink:href="#NimbusSans-Regular-99"/>
      <use x="544.69989" xlink:href="#NimbusSans-Regular-99"/>
      <use x="594.699875" xlink:href="#NimbusSans-Regular-117"/>
      <use x="650.299866" xlink:href="#NimbusSans-Regular-115"/>
     </g>
    </g>
    <g id="line2d_94"/>
    <g id="line2d_95">
     <g>
      <use style="fill:#65b556;stroke:#000000;" x="612.173438" xlink:href="#m650c1c95be" y="518.05"/>
     </g>
    </g>
    <g id="text_50">
     <!-- Streptococcus -->
     <g transform="translate(630.173438 521.55)scale(0.1 -0.1)">
      <use xlink:href="#NimbusSans-Regular-83"/>
      <use x="66.699997" xlink:href="#NimbusSans-Regular-116"/>
      <use x="94.499985" xlink:href="#NimbusSans-Regular-114"/>
      <use x="127.799973" xlink:href="#NimbusSans-Regular-101"/>
      <use x="183.399963" xlink:href="#NimbusSans-Regular-112"/>
      <use x="238.999954" xlink:href="#NimbusSans-Regular-116"/>
      <use x="266.799942" xlink:href="#NimbusSans-Regular-111"/>
      <use x="322.399933" xlink:href="#NimbusSans-Regular-99"/>
      <use x="372.399918" xlink:href="#NimbusSans-Regular-111"/>
      <use x="427.999908" xlink:href="#NimbusSans-Regular-99"/>
      <use x="477.999893" xlink:href="#NimbusSans-Regular-99"/>
      <use x="527.999878" xlink:href="#NimbusSans-Regular-117"/>
      <use x="583.599869" xlink:href="#NimbusSans-Regular-115"/>
     </g>
    </g>
    <g id="line2d_96"/>
    <g id="line2d_97">
     <g>
      <use style="fill:#ffa500;stroke:#000000;" x="612.173438" xlink:href="#m2c1b7a475c" y="532.520313"/>
     </g>
    </g>
    <g id="text_51">
     <!-- Mycobacterium -->
     <g transform="translate(630.173438 536.020313)scale(0.1 -0.1)">
      <use xlink:href="#NimbusSans-Regular-77"/>
      <use x="83.299988" xlink:href="#NimbusSans-Regular-121"/>
      <use x="133.299973" xlink:href="#NimbusSans-Regular-99"/>
      <use x="183.299957" xlink:href="#NimbusSans-Regular-111"/>
      <use x="238.899948" xlink:href="#NimbusSans-Regular-98"/>
      <use x="294.499939" xlink:href="#NimbusSans-Regular-97"/>
      <use x="350.09993" xlink:href="#NimbusSans-Regular-99"/>
      <use x="400.099915" xlink:href="#NimbusSans-Regular-116"/>
      <use x="427.899902" xlink:href="#NimbusSans-Regular-101"/>
      <use x="483.499893" xlink:href="#NimbusSans-Regular-114"/>
      <use x="516.799881" xlink:href="#NimbusSans-Regular-105"/>
      <use x="538.999878" xlink:href="#NimbusSans-Regular-117"/>
      <use x="594.599869" xlink:href="#NimbusSans-Regular-109"/>
     </g>
    </g>
    <g id="line2d_98"/>
    <g id="line2d_99">
     <g>
      <use style="fill:#ffffff;stroke:#000000;" x="612.173438" xlink:href="#m99276d9fbd" y="547.020313"/>
     </g>
    </g>
    <g id="text_52">
     <!-- Unspecified -->
     <g transform="translate(630.173438 550.520313)scale(0.1 -0.1)">
      <use xlink:href="#NimbusSans-Regular-85"/>
      <use x="72.199982" xlink:href="#NimbusSans-Regular-110"/>
      <use x="127.799973" xlink:href="#NimbusSans-Regular-115"/>
      <use x="177.799957" xlink:href="#NimbusSans-Regular-112"/>
      <use x="233.399948" xlink:href="#NimbusSans-Regular-101"/>
      <use x="288.999939" xlink:href="#NimbusSans-Regular-99"/>
      <use x="338.999924" xlink:href="#NimbusSans-Regular-105"/>
      <use x="361.199921" xlink:href="#NimbusSans-Regular-102"/>
      <use x="388.999908" xlink:href="#NimbusSans-Regular-105"/>
      <use x="411.199905" xlink:href="#NimbusSans-Regular-101"/>
      <use x="466.799896" xlink:href="#NimbusSans-Regular-100"/>
     </g>
    </g>
   </g>
  </g>
 </g>
 <defs>
  <clipPath id="p2c92a3f483">
   <rect height="550.9" width="638.03" x="71.17" y="10.8"/>
  </clipPath>
 </defs>
</svg>
