<?xml version="1.0" encoding="UTF-8"?>
<svg id="Layer_1" data-name="Layer 1" xmlns="http://www.w3.org/2000/svg" xmlns:xlink="http://www.w3.org/1999/xlink" version="1.1" viewBox="0 0 829.1 325.7">
  <defs>
    <style>
      .cls-1, .cls-2, .cls-3, .cls-4, .cls-5, .cls-6 {
        stroke-width: 0px;
      }

      .cls-1, .cls-7 {
        fill: #1f77b4;
        fill-opacity: .2;
      }

      .cls-8 {
        fill: #5a5da9;
      }

      .cls-8, .cls-9, .cls-10, .cls-11, .cls-12, .cls-13, .cls-14, .cls-15, .cls-16, .cls-17 {
        stroke-linejoin: round;
      }

      .cls-8, .cls-10, .cls-15 {
        font-family: ArialMT, Arial;
        font-size: 20px;
      }

      .cls-8, .cls-13 {
        stroke: #25276a;
      }

      .cls-9 {
        stroke-width: .8px;
      }

      .cls-9, .cls-18 {
        stroke: gray;
      }

      .cls-9, .cls-4 {
        fill: gray;
      }

      .cls-19 {
        letter-spacing: 0em;
      }

      .cls-20 {
        clip-path: url(#clippath);
      }

      .cls-2, .cls-11, .cls-17 {
        fill: none;
      }

      .cls-21 {
        letter-spacing: 0em;
      }

      .cls-22 {
        letter-spacing: 0em;
      }

      .cls-7, .cls-23 {
        stroke: #231f20;
        stroke-miterlimit: 10;
      }

      .cls-10 {
        fill: #ffd694;
      }

      .cls-10, .cls-14 {
        stroke: orange;
      }

      .cls-11 {
        stroke-width: 1.5px;
      }

      .cls-11, .cls-16, .cls-17 {
        stroke: #000;
      }

      .cls-11, .cls-17 {
        stroke-linecap: square;
      }

      .cls-12 {
        stroke: #005f05;
      }

      .cls-12, .cls-13, .cls-14 {
        fill-opacity: .4;
        stroke-opacity: .4;
      }

      .cls-12, .cls-15 {
        fill: #57b947;
      }

      .cls-13 {
        fill: #26286b;
      }

      .cls-24 {
        letter-spacing: 0em;
      }

      .cls-25 {
        letter-spacing: 0em;
      }

      .cls-26 {
        letter-spacing: 0em;
      }

      .cls-18 {
        fill: #f2f2f2;
        stroke-width: .3px;
      }

      .cls-27 {
        letter-spacing: 0em;
      }

      .cls-28 {
        letter-spacing: 0em;
      }

      .cls-29 {
        clip-path: url(#clippath-1);
      }

      .cls-30 {
        clip-path: url(#clippath-4);
      }

      .cls-31 {
        clip-path: url(#clippath-3);
      }

      .cls-32 {
        clip-path: url(#clippath-2);
      }

      .cls-33 {
        clip-path: url(#clippath-7);
      }

      .cls-34 {
        clip-path: url(#clippath-8);
      }

      .cls-35 {
        clip-path: url(#clippath-6);
      }

      .cls-36 {
        clip-path: url(#clippath-5);
      }

      .cls-37 {
        clip-path: url(#clippath-9);
      }

      .cls-14 {
        fill: orange;
      }

      .cls-3, .cls-38, .cls-39 {
        fill: #000;
      }

      .cls-40 {
        clip-path: url(#clippath-14);
      }

      .cls-41 {
        clip-path: url(#clippath-13);
      }

      .cls-42 {
        clip-path: url(#clippath-12);
      }

      .cls-43 {
        clip-path: url(#clippath-10);
      }

      .cls-44 {
        clip-path: url(#clippath-15);
      }

      .cls-45 {
        clip-path: url(#clippath-17);
      }

      .cls-46 {
        clip-path: url(#clippath-16);
      }

      .cls-47 {
        clip-path: url(#clippath-11);
      }

      .cls-48 {
        clip-path: url(#clippath-18);
      }

      .cls-49 {
        letter-spacing: 0em;
      }

      .cls-23 {
        fill: #fff;
      }

      .cls-5 {
        fill: #d4d4d4;
      }

      .cls-50 {
        letter-spacing: 0em;
      }

      .cls-51 {
        letter-spacing: 0em;
      }

      .cls-38 {
        font-family: MyriadPro-Regular, 'Myriad Pro';
      }

      .cls-38, .cls-39 {
        font-size: 12px;
      }

      .cls-15 {
        stroke: #0c8b44;
      }

      .cls-52 {
        letter-spacing: 0em;
      }

      .cls-53 {
        letter-spacing: 0em;
      }

      .cls-54 {
        letter-spacing: 0em;
      }

      .cls-39 {
        font-family: Calibri, Calibri;
      }

      .cls-55 {
        letter-spacing: 0em;
      }

      .cls-56 {
        letter-spacing: 0em;
      }

      .cls-16 {
        fill: #bdbdbd;
        stroke-linecap: round;
      }

      .cls-17 {
        stroke-width: .5px;
      }

      .cls-57 {
        letter-spacing: 0em;
      }

      .cls-6 {
        fill: #231f20;
      }
    </style>
    <clipPath id="clippath">
      <polygon class="cls-2" points="28.3 78 809.5 78 821.9 294.6 40.7 294.6 28.3 78"/>
    </clipPath>
    <clipPath id="clippath-1">
      <polygon class="cls-2" points="28.3 78 809.5 78 821.9 294.6 40.7 294.6 28.3 78"/>
    </clipPath>
    <clipPath id="clippath-2">
      <polygon class="cls-2" points="28.3 78 809.5 78 821.9 294.6 40.7 294.6 28.3 78"/>
    </clipPath>
    <clipPath id="clippath-3">
      <polygon class="cls-2" points="28.3 78 809.5 78 821.9 294.6 40.7 294.6 28.3 78"/>
    </clipPath>
    <clipPath id="clippath-4">
      <polygon class="cls-2" points="28.3 78 809.5 78 821.9 294.6 40.7 294.6 28.3 78"/>
    </clipPath>
    <clipPath id="clippath-5">
      <polygon class="cls-2" points="28.3 78 809.5 78 821.9 294.6 40.7 294.6 28.3 78"/>
    </clipPath>
    <clipPath id="clippath-6">
      <polygon class="cls-2" points="28.3 78 809.5 78 821.9 294.6 40.7 294.6 28.3 78"/>
    </clipPath>
    <clipPath id="clippath-7">
      <polygon class="cls-2" points="28.3 78 809.5 78 821.9 294.6 40.7 294.6 28.3 78"/>
    </clipPath>
    <clipPath id="clippath-8">
      <polygon class="cls-2" points="28.3 78 809.5 78 821.9 294.6 40.7 294.6 28.3 78"/>
    </clipPath>
    <clipPath id="clippath-9">
      <polygon class="cls-2" points="28.3 78 809.5 78 821.9 294.6 40.7 294.6 28.3 78"/>
    </clipPath>
    <clipPath id="clippath-10">
      <polygon class="cls-2" points="28.3 78 809.5 78 821.9 294.6 40.7 294.6 28.3 78"/>
    </clipPath>
    <clipPath id="clippath-11">
      <polygon class="cls-2" points="163.4 484.7 456.2 484.7 460.8 268.1 168 268.1 163.4 484.7"/>
    </clipPath>
    <clipPath id="clippath-12">
      <rect class="cls-2" y="1063" width="468" height="17"/>
    </clipPath>
    <clipPath id="clippath-13">
      <rect class="cls-2" y="1063" width="468" height="17"/>
    </clipPath>
    <clipPath id="clippath-14">
      <rect class="cls-2" x="1" y="1064" width="467" height="16"/>
    </clipPath>
    <clipPath id="clippath-15">
      <rect class="cls-2" y="1063" width="468" height="17"/>
    </clipPath>
    <clipPath id="clippath-16">
      <rect class="cls-2" y="1063" width="468" height="17"/>
    </clipPath>
    <clipPath id="clippath-17">
      <rect class="cls-2" y="1063" width="468" height="17"/>
    </clipPath>
    <clipPath id="clippath-18">
      <rect class="cls-2" y="1063" width="468" height="17"/>
    </clipPath>
  </defs>
  <path id="m0e6b9b55a5" class="cls-13" d="M249.9,294.6v-19.5h343.6v19.5H249.9Z"/>
  <g id="line2d_1" data-name="line2d 1">
    <g class="cls-20">
      <path class="cls-11" d="M40.7,284.6h781.2"/>
    </g>
  </g>
  <g id="line2d_2" data-name="line2d 2">
    <g class="cls-29">
      <path class="cls-17" d="M121.5,244.6v40"/>
    </g>
  </g>
  <g id="line2d_3" data-name="line2d 3">
    <g class="cls-32">
      <path class="cls-17" d="M62,264.6v20"/>
    </g>
  </g>
  <g id="line2d_4" data-name="line2d 4">
    <g class="cls-31">
      <path class="cls-17" d="M712.5,244.6v20"/>
    </g>
  </g>
  <g id="patch_2" data-name="patch 2">
    <g class="cls-30">
      <path class="cls-16" d="M339.2,277.6h233.9c2.8,2.3,5.6,4.7,8.4,7-2.8,2.3-5.6,4.7-8.4,7h-233.9v-14Z"/>
    </g>
  </g>
  <g id="patch_3" data-name="patch 3">
    <g class="cls-36">
      <path class="cls-16" d="M594.8,277.6h93.7c2.8,2.3,5.6,4.7,8.4,7-2.8,2.3-5.6,4.7-8.4,7h-93.7v-14Z"/>
    </g>
  </g>
  <g id="patch_4" data-name="patch 4">
    <g class="cls-35">
      <path class="cls-16" d="M167.4,277.6h67.7c2.8,2.3,5.6,4.7,8.4,7-2.8,2.3-5.6,4.7-8.4,7h-67.7v-14Z"/>
    </g>
  </g>
  <g id="patch_5" data-name="patch 5">
    <g class="cls-33">
      <path class="cls-16" d="M728.6,277.6h46.5c2.8,2.3,5.6,4.7,8.4,7-2.8,2.3-5.6,4.7-8.4,7h-46.5v-14Z"/>
    </g>
  </g>
  <g id="patch_6" data-name="patch 6">
    <g class="cls-34">
      <path class="cls-16" d="M102,277.6h30.7c2.8,2.3,5.6,4.7,8.4,7-2.8,2.3-5.6,4.7-8.4,7h-30.7v-14Z"/>
    </g>
  </g>
  <g id="patch_7" data-name="patch 7">
    <g class="cls-37">
      <path class="cls-16" d="M44,277.6h27.5c2.8,2.3,5.6,4.7,8.4,7-2.8,2.3-5.6,4.7-8.4,7h-27.5v-14Z"/>
    </g>
  </g>
  <g id="patch_8" data-name="patch 8">
    <g class="cls-43">
      <path class="cls-16" d="M695.6,257.6c8.4,0,16.9,0,25.3,0h0c2.8,2.3,5.6,4.7,8.4,7-2.8,2.3-5.6,4.7-8.4,7h-25.3v-14Z"/>
    </g>
  </g>
  <g class="cls-47">
    <path class="cls-7" d="M244.4,78.1v220h4.8V78.1h-4.8Z"/>
  </g>
  <g id="matplotlib.axis_1" data-name="matplotlib.axis 1">
    <g id="xtick_1" data-name="xtick 1">
      <g id="line2d_5" data-name="line2d 5">
        <path id="m4b25a7b167" class="cls-9" d="M68,294.6v3.5"/>
      </g>
      <g id="text_1" data-name="text 1">
        <g>
          <path id="DejaVuSans-53" class="cls-4" d="M51.6,301.9h3.9v.8h-3v1.8c.1,0,.3,0,.4-.1.1,0,.3,0,.4,0,.8,0,1.5.2,1.9.7.5.4.7,1,.7,1.8s-.2,1.4-.7,1.8c-.5.4-1.2.7-2.1.7s-.6,0-.9,0c-.3,0-.6-.1-1-.2v-1c.3.2.6.3.9.4s.6.1,1,.1c.6,0,1-.1,1.3-.4.3-.3.5-.7.5-1.2s-.2-.9-.5-1.2c-.3-.3-.8-.4-1.3-.4s-.5,0-.8,0c-.3,0-.5.1-.8.3v-3.7Z"/>
          <path id="DejaVuSans-56" class="cls-4" d="M60.1,305.7c-.5,0-.8.1-1.1.4-.3.3-.4.6-.4,1s.1.8.4,1c.3.3.6.4,1.1.4s.8-.1,1.1-.4c.3-.3.4-.6.4-1s-.1-.8-.4-1c-.3-.3-.6-.4-1.1-.4ZM59.1,305.3c-.4-.1-.8-.3-1-.6-.2-.3-.4-.6-.4-1.1s.2-1,.6-1.4c.4-.3,1-.5,1.7-.5s1.3.2,1.7.5.6.8.6,1.4-.1.8-.4,1.1c-.2.3-.6.5-1,.6.5.1.8.3,1.1.7.3.3.4.7.4,1.2,0,.7-.2,1.3-.6,1.6-.4.4-1,.6-1.9.6s-1.4-.2-1.9-.6c-.4-.4-.6-.9-.6-1.6s.1-.9.4-1.2c.3-.3.6-.5,1.1-.7ZM58.7,303.7c0,.4.1.7.4.9.2.2.6.3,1,.3s.8-.1,1-.3c.2-.2.4-.5.4-.9s-.1-.7-.4-.9c-.2-.2-.6-.3-1-.3s-.8.1-1,.3c-.2.2-.4.5-.4.9Z"/>
          <path id="DejaVuSans-44" class="cls-4" d="M64.4,307.9h1v.8l-.8,1.6h-.6l.4-1.6v-.8Z"/>
          <path id="DejaVuSans-53-2" data-name="DejaVuSans-53" class="cls-4" d="M67.5,301.9h3.9v.8h-3v1.8c.1,0,.3,0,.4-.1.1,0,.3,0,.4,0,.8,0,1.5.2,1.9.7.5.4.7,1,.7,1.8s-.2,1.4-.7,1.8c-.5.4-1.2.7-2.1.7s-.6,0-.9,0c-.3,0-.6-.1-1-.2v-1c.3.2.6.3.9.4s.6.1,1,.1c.6,0,1-.1,1.3-.4.3-.3.5-.7.5-1.2s-.2-.9-.5-1.2c-.3-.3-.8-.4-1.3-.4s-.5,0-.8,0c-.3,0-.5.1-.8.3v-3.7Z"/>
          <path id="DejaVuSans-48" class="cls-4" d="M76,302.5c-.5,0-.9.3-1.1.8-.3.5-.4,1.3-.4,2.3s.1,1.7.4,2.2c.3.5.6.8,1.1.8s.9-.3,1.2-.8c.3-.5.4-1.2.4-2.2s-.1-1.8-.4-2.3c-.3-.5-.6-.8-1.2-.8ZM76,301.8c.8,0,1.4.3,1.9,1,.4.6.6,1.6.6,2.8s-.2,2.2-.6,2.8c-.4.6-1.1,1-1.9,1s-1.4-.3-1.9-1c-.4-.6-.6-1.6-.6-2.8s.2-2.2.6-2.8c.4-.6,1.1-1,1.9-1Z"/>
          <path id="DejaVuSans-48-2" data-name="DejaVuSans-48" class="cls-4" d="M82.3,302.5c-.5,0-.9.3-1.1.8-.3.5-.4,1.3-.4,2.3s.1,1.7.4,2.2c.3.5.6.8,1.1.8s.9-.3,1.2-.8c.3-.5.4-1.2.4-2.2s-.1-1.8-.4-2.3c-.3-.5-.6-.8-1.2-.8ZM82.3,301.8c.8,0,1.4.3,1.9,1,.4.6.6,1.6.6,2.8s-.2,2.2-.6,2.8c-.4.6-1.1,1-1.9,1s-1.4-.3-1.9-1c-.4-.6-.6-1.6-.6-2.8s.2-2.2.6-2.8c.4-.6,1.1-1,1.9-1Z"/>
        </g>
      </g>
    </g>
    <g id="xtick_2" data-name="xtick 2">
      <g id="line2d_6" data-name="line2d 6">
        <path id="m4b25a7b167-2" data-name="m4b25a7b167" class="cls-9" d="M158.6,294.6v3.5"/>
      </g>
      <g id="text_2" data-name="text 2">
        <g>
          <path id="DejaVuSans-53-3" data-name="DejaVuSans-53" class="cls-4" d="M142.2,301.9h3.9v.8h-3v1.8c.1,0,.3,0,.4-.1.1,0,.3,0,.4,0,.8,0,1.5.2,1.9.7.5.4.7,1,.7,1.8s-.2,1.4-.7,1.8c-.5.4-1.2.7-2.1.7s-.6,0-.9,0c-.3,0-.6-.1-1-.2v-1c.3.2.6.3.9.4s.6.1,1,.1c.6,0,1-.1,1.3-.4.3-.3.5-.7.5-1.2s-.2-.9-.5-1.2c-.3-.3-.8-.4-1.3-.4s-.5,0-.8,0c-.3,0-.5.1-.8.3v-3.7Z"/>
          <path id="DejaVuSans-57" class="cls-4" d="M148.5,309v-.9c.2.1.5.2.8.3.3,0,.5,0,.7,0,.7,0,1.1-.2,1.5-.7.3-.4.5-1.1.6-2-.2.3-.4.5-.7.6-.3.2-.6.2-1,.2-.7,0-1.3-.2-1.7-.7-.4-.4-.6-1-.6-1.8s.2-1.3.7-1.8c.4-.5,1-.7,1.8-.7s1.5.3,1.9,1c.4.6.7,1.6.7,2.8s-.3,2.1-.8,2.8c-.5.7-1.3,1-2.2,1s-.5,0-.8,0c-.3,0-.5-.1-.8-.2ZM150.5,305.9c.4,0,.8-.2,1.1-.5.3-.3.4-.7.4-1.2s-.1-.9-.4-1.2c-.3-.3-.6-.5-1.1-.5s-.8.2-1.1.5c-.3.3-.4.7-.4,1.2s.1.9.4,1.2c.3.3.6.5,1.1.5Z"/>
          <path id="DejaVuSans-44-2" data-name="DejaVuSans-44" class="cls-4" d="M155,307.9h1v.8l-.8,1.6h-.6l.4-1.6v-.8Z"/>
          <path id="DejaVuSans-48-3" data-name="DejaVuSans-48" class="cls-4" d="M160.2,302.5c-.5,0-.9.3-1.1.8-.3.5-.4,1.3-.4,2.3s.1,1.7.4,2.2c.3.5.6.8,1.1.8s.9-.3,1.2-.8c.3-.5.4-1.2.4-2.2s-.1-1.8-.4-2.3c-.3-.5-.6-.8-1.2-.8ZM160.2,301.8c.8,0,1.4.3,1.9,1,.4.6.6,1.6.6,2.8s-.2,2.2-.6,2.8c-.4.6-1.1,1-1.9,1s-1.4-.3-1.9-1c-.4-.6-.6-1.6-.6-2.8s.2-2.2.6-2.8c.4-.6,1.1-1,1.9-1Z"/>
          <path id="DejaVuSans-48-4" data-name="DejaVuSans-48" class="cls-4" d="M166.5,302.5c-.5,0-.9.3-1.1.8-.3.5-.4,1.3-.4,2.3s.1,1.7.4,2.2c.3.5.6.8,1.1.8s.9-.3,1.2-.8c.3-.5.4-1.2.4-2.2s-.1-1.8-.4-2.3c-.3-.5-.6-.8-1.2-.8ZM166.5,301.8c.8,0,1.4.3,1.9,1,.4.6.6,1.6.6,2.8s-.2,2.2-.6,2.8c-.4.6-1.1,1-1.9,1s-1.4-.3-1.9-1c-.4-.6-.6-1.6-.6-2.8s.2-2.2.6-2.8c.4-.6,1.1-1,1.9-1Z"/>
          <path id="DejaVuSans-48-5" data-name="DejaVuSans-48" class="cls-4" d="M172.9,302.5c-.5,0-.9.3-1.1.8-.3.5-.4,1.3-.4,2.3s.1,1.7.4,2.2c.3.5.6.8,1.1.8s.9-.3,1.2-.8c.3-.5.4-1.2.4-2.2s-.1-1.8-.4-2.3c-.3-.5-.6-.8-1.2-.8ZM172.9,301.8c.8,0,1.4.3,1.9,1,.4.6.6,1.6.6,2.8s-.2,2.2-.6,2.8c-.4.6-1.1,1-1.9,1s-1.4-.3-1.9-1c-.4-.6-.6-1.6-.6-2.8s.2-2.2.6-2.8c.4-.6,1.1-1,1.9-1Z"/>
        </g>
      </g>
    </g>
    <g id="xtick_3" data-name="xtick 3">
      <g id="line2d_7" data-name="line2d 7">
        <path id="m4b25a7b167-3" data-name="m4b25a7b167" class="cls-9" d="M249.1,294.6v3.5"/>
      </g>
      <g id="text_3" data-name="text 3">
        <g>
          <path id="DejaVuSans-53-4" data-name="DejaVuSans-53" class="cls-4" d="M232.7,301.9h3.9v.8h-3v1.8c.1,0,.3,0,.4-.1.1,0,.3,0,.4,0,.8,0,1.5.2,1.9.7.5.4.7,1,.7,1.8s-.2,1.4-.7,1.8c-.5.4-1.2.7-2.1.7s-.6,0-.9,0c-.3,0-.6-.1-1-.2v-1c.3.2.6.3.9.4s.6.1,1,.1c.6,0,1-.1,1.3-.4.3-.3.5-.7.5-1.2s-.2-.9-.5-1.2c-.3-.3-.8-.4-1.3-.4s-.5,0-.8,0c-.3,0-.5.1-.8.3v-3.7Z"/>
          <path id="DejaVuSans-57-2" data-name="DejaVuSans-57" class="cls-4" d="M239.1,309v-.9c.2.1.5.2.8.3.3,0,.5,0,.7,0,.7,0,1.1-.2,1.5-.7.3-.4.5-1.1.6-2-.2.3-.4.5-.7.6-.3.2-.6.2-1,.2-.7,0-1.3-.2-1.7-.7-.4-.4-.6-1-.6-1.8s.2-1.3.7-1.8c.4-.5,1-.7,1.8-.7s1.5.3,1.9,1c.4.6.7,1.6.7,2.8s-.3,2.1-.8,2.8c-.5.7-1.3,1-2.2,1s-.5,0-.8,0c-.3,0-.5-.1-.8-.2ZM241,305.9c.4,0,.8-.2,1.1-.5.3-.3.4-.7.4-1.2s-.1-.9-.4-1.2c-.3-.3-.6-.5-1.1-.5s-.8.2-1.1.5c-.3.3-.4.7-.4,1.2s.1.9.4,1.2c.3.3.6.5,1.1.5Z"/>
          <path id="DejaVuSans-44-3" data-name="DejaVuSans-44" class="cls-4" d="M245.5,307.9h1v.8l-.8,1.6h-.6l.4-1.6v-.8Z"/>
          <path id="DejaVuSans-53-5" data-name="DejaVuSans-53" class="cls-4" d="M248.6,301.9h3.9v.8h-3v1.8c.1,0,.3,0,.4-.1.1,0,.3,0,.4,0,.8,0,1.5.2,1.9.7.5.4.7,1,.7,1.8s-.2,1.4-.7,1.8c-.5.4-1.2.7-2.1.7s-.6,0-.9,0c-.3,0-.6-.1-1-.2v-1c.3.2.6.3.9.4s.6.1,1,.1c.6,0,1-.1,1.3-.4.3-.3.5-.7.5-1.2s-.2-.9-.5-1.2c-.3-.3-.8-.4-1.3-.4s-.5,0-.8,0c-.3,0-.5.1-.8.3v-3.7Z"/>
          <path id="DejaVuSans-48-6" data-name="DejaVuSans-48" class="cls-4" d="M257.1,302.5c-.5,0-.9.3-1.1.8-.3.5-.4,1.3-.4,2.3s.1,1.7.4,2.2c.3.5.6.8,1.1.8s.9-.3,1.2-.8c.3-.5.4-1.2.4-2.2s-.1-1.8-.4-2.3c-.3-.5-.6-.8-1.2-.8ZM257.1,301.8c.8,0,1.4.3,1.9,1,.4.6.6,1.6.6,2.8s-.2,2.2-.6,2.8c-.4.6-1.1,1-1.9,1s-1.4-.3-1.9-1c-.4-.6-.6-1.6-.6-2.8s.2-2.2.6-2.8c.4-.6,1.1-1,1.9-1Z"/>
          <path id="DejaVuSans-48-7" data-name="DejaVuSans-48" class="cls-4" d="M263.4,302.5c-.5,0-.9.3-1.1.8-.3.5-.4,1.3-.4,2.3s.1,1.7.4,2.2c.3.5.6.8,1.1.8s.9-.3,1.2-.8c.3-.5.4-1.2.4-2.2s-.1-1.8-.4-2.3c-.3-.5-.6-.8-1.2-.8ZM263.4,301.8c.8,0,1.4.3,1.9,1,.4.6.6,1.6.6,2.8s-.2,2.2-.6,2.8c-.4.6-1.1,1-1.9,1s-1.4-.3-1.9-1c-.4-.6-.6-1.6-.6-2.8s.2-2.2.6-2.8c.4-.6,1.1-1,1.9-1Z"/>
        </g>
      </g>
    </g>
    <g id="xtick_4" data-name="xtick 4">
      <g id="line2d_8" data-name="line2d 8">
        <path id="m4b25a7b167-4" data-name="m4b25a7b167" class="cls-9" d="M339.7,294.6v3.5"/>
      </g>
      <g id="text_4" data-name="text 4">
        <g>
          <path id="DejaVuSans-54" class="cls-4" d="M325.5,305.1c-.4,0-.8.2-1.1.5-.3.3-.4.7-.4,1.2s.1.9.4,1.2c.3.3.6.5,1.1.5s.8-.2,1.1-.5c.3-.3.4-.7.4-1.2s-.1-.9-.4-1.2c-.3-.3-.6-.5-1.1-.5ZM327.4,302v.9c-.2-.1-.5-.2-.8-.3-.3,0-.5,0-.8,0-.7,0-1.1.2-1.5.7-.3.4-.5,1.1-.6,2,.2-.3.4-.5.7-.7.3-.2.6-.2,1-.2.7,0,1.3.2,1.7.7.4.4.6,1,.6,1.8s-.2,1.4-.7,1.8c-.4.5-1,.7-1.8.7s-1.5-.3-1.9-1c-.4-.6-.7-1.6-.7-2.8s.3-2.1.8-2.8c.5-.7,1.3-1,2.2-1s.5,0,.8,0,.5.1.8.2Z"/>
          <path id="DejaVuSans-48-8" data-name="DejaVuSans-48" class="cls-4" d="M331.7,302.5c-.5,0-.9.3-1.1.8-.3.5-.4,1.3-.4,2.3s.1,1.7.4,2.2c.3.5.6.8,1.1.8s.9-.3,1.2-.8c.3-.5.4-1.2.4-2.2s-.1-1.8-.4-2.3c-.3-.5-.6-.8-1.2-.8ZM331.7,301.8c.8,0,1.4.3,1.9,1,.4.6.6,1.6.6,2.8s-.2,2.2-.6,2.8c-.4.6-1.1,1-1.9,1s-1.4-.3-1.9-1c-.4-.6-.6-1.6-.6-2.8s.2-2.2.6-2.8c.4-.6,1.1-1,1.9-1Z"/>
          <path id="DejaVuSans-44-4" data-name="DejaVuSans-44" class="cls-4" d="M336.1,307.9h1v.8l-.8,1.6h-.6l.4-1.6v-.8Z"/>
          <path id="DejaVuSans-48-9" data-name="DejaVuSans-48" class="cls-4" d="M341.3,302.5c-.5,0-.9.3-1.1.8-.3.5-.4,1.3-.4,2.3s.1,1.7.4,2.2c.3.5.6.8,1.1.8s.9-.3,1.2-.8c.3-.5.4-1.2.4-2.2s-.1-1.8-.4-2.3c-.3-.5-.6-.8-1.2-.8ZM341.3,301.8c.8,0,1.4.3,1.9,1,.4.6.6,1.6.6,2.8s-.2,2.2-.6,2.8c-.4.6-1.1,1-1.9,1s-1.4-.3-1.9-1c-.4-.6-.6-1.6-.6-2.8s.2-2.2.6-2.8c.4-.6,1.1-1,1.9-1Z"/>
          <path id="DejaVuSans-48-10" data-name="DejaVuSans-48" class="cls-4" d="M347.6,302.5c-.5,0-.9.3-1.1.8-.3.5-.4,1.3-.4,2.3s.1,1.7.4,2.2c.3.5.6.8,1.1.8s.9-.3,1.2-.8c.3-.5.4-1.2.4-2.2s-.1-1.8-.4-2.3c-.3-.5-.6-.8-1.2-.8ZM347.6,301.8c.8,0,1.4.3,1.9,1,.4.6.6,1.6.6,2.8s-.2,2.2-.6,2.8c-.4.6-1.1,1-1.9,1s-1.4-.3-1.9-1c-.4-.6-.6-1.6-.6-2.8s.2-2.2.6-2.8c.4-.6,1.1-1,1.9-1Z"/>
          <path id="DejaVuSans-48-11" data-name="DejaVuSans-48" class="cls-4" d="M354,302.5c-.5,0-.9.3-1.1.8-.3.5-.4,1.3-.4,2.3s.1,1.7.4,2.2c.3.5.6.8,1.1.8s.9-.3,1.2-.8c.3-.5.4-1.2.4-2.2s-.1-1.8-.4-2.3c-.3-.5-.6-.8-1.2-.8ZM354,301.8c.8,0,1.4.3,1.9,1,.4.6.6,1.6.6,2.8s-.2,2.2-.6,2.8c-.4.6-1.1,1-1.9,1s-1.4-.3-1.9-1c-.4-.6-.6-1.6-.6-2.8s.2-2.2.6-2.8c.4-.6,1.1-1,1.9-1Z"/>
        </g>
      </g>
    </g>
    <g id="xtick_5" data-name="xtick 5">
      <g id="line2d_9" data-name="line2d 9">
        <path id="m4b25a7b167-5" data-name="m4b25a7b167" class="cls-9" d="M430.2,294.6v3.5"/>
      </g>
      <g id="text_5" data-name="text 5">
        <g>
          <path id="DejaVuSans-54-2" data-name="DejaVuSans-54" class="cls-4" d="M416,305.1c-.4,0-.8.2-1.1.5-.3.3-.4.7-.4,1.2s.1.9.4,1.2c.3.3.6.5,1.1.5s.8-.2,1.1-.5c.3-.3.4-.7.4-1.2s-.1-.9-.4-1.2c-.3-.3-.6-.5-1.1-.5ZM418,302v.9c-.2-.1-.5-.2-.8-.3-.3,0-.5,0-.8,0-.7,0-1.1.2-1.5.7-.3.4-.5,1.1-.6,2,.2-.3.4-.5.7-.7.3-.2.6-.2,1-.2.7,0,1.3.2,1.7.7.4.4.6,1,.6,1.8s-.2,1.4-.7,1.8c-.4.5-1,.7-1.8.7s-1.5-.3-1.9-1c-.4-.6-.7-1.6-.7-2.8s.3-2.1.8-2.8c.5-.7,1.3-1,2.2-1s.5,0,.8,0,.5.1.8.2Z"/>
          <path id="DejaVuSans-48-12" data-name="DejaVuSans-48" class="cls-4" d="M422.3,302.5c-.5,0-.9.3-1.1.8-.3.5-.4,1.3-.4,2.3s.1,1.7.4,2.2c.3.5.6.8,1.1.8s.9-.3,1.2-.8c.3-.5.4-1.2.4-2.2s-.1-1.8-.4-2.3c-.3-.5-.6-.8-1.2-.8ZM422.3,301.8c.8,0,1.4.3,1.9,1,.4.6.6,1.6.6,2.8s-.2,2.2-.6,2.8c-.4.6-1.1,1-1.9,1s-1.4-.3-1.9-1c-.4-.6-.6-1.6-.6-2.8s.2-2.2.6-2.8c.4-.6,1.1-1,1.9-1Z"/>
          <path id="DejaVuSans-44-5" data-name="DejaVuSans-44" class="cls-4" d="M426.6,307.9h1v.8l-.8,1.6h-.6l.4-1.6v-.8Z"/>
          <path id="DejaVuSans-53-6" data-name="DejaVuSans-53" class="cls-4" d="M429.7,301.9h3.9v.8h-3v1.8c.1,0,.3,0,.4-.1.1,0,.3,0,.4,0,.8,0,1.5.2,1.9.7.5.4.7,1,.7,1.8s-.2,1.4-.7,1.8c-.5.4-1.2.7-2.1.7s-.6,0-.9,0c-.3,0-.6-.1-1-.2v-1c.3.2.6.3.9.4s.6.1,1,.1c.6,0,1-.1,1.3-.4.3-.3.5-.7.5-1.2s-.2-.9-.5-1.2c-.3-.3-.8-.4-1.3-.4s-.5,0-.8,0c-.3,0-.5.1-.8.3v-3.7Z"/>
          <path id="DejaVuSans-48-13" data-name="DejaVuSans-48" class="cls-4" d="M438.2,302.5c-.5,0-.9.3-1.1.8-.3.5-.4,1.3-.4,2.3s.1,1.7.4,2.2c.3.5.6.8,1.1.8s.9-.3,1.2-.8c.3-.5.4-1.2.4-2.2s-.1-1.8-.4-2.3c-.3-.5-.6-.8-1.2-.8ZM438.2,301.8c.8,0,1.4.3,1.9,1,.4.6.6,1.6.6,2.8s-.2,2.2-.6,2.8c-.4.6-1.1,1-1.9,1s-1.4-.3-1.9-1c-.4-.6-.6-1.6-.6-2.8s.2-2.2.6-2.8c.4-.6,1.1-1,1.9-1Z"/>
          <path id="DejaVuSans-48-14" data-name="DejaVuSans-48" class="cls-4" d="M444.5,302.5c-.5,0-.9.3-1.1.8-.3.5-.4,1.3-.4,2.3s.1,1.7.4,2.2c.3.5.6.8,1.1.8s.9-.3,1.2-.8c.3-.5.4-1.2.4-2.2s-.1-1.8-.4-2.3c-.3-.5-.6-.8-1.2-.8ZM444.5,301.8c.8,0,1.4.3,1.9,1,.4.6.6,1.6.6,2.8s-.2,2.2-.6,2.8c-.4.6-1.1,1-1.9,1s-1.4-.3-1.9-1c-.4-.6-.6-1.6-.6-2.8s.2-2.2.6-2.8c.4-.6,1.1-1,1.9-1Z"/>
        </g>
      </g>
    </g>
    <g id="xtick_6" data-name="xtick 6">
      <g id="line2d_10" data-name="line2d 10">
        <path id="m4b25a7b167-6" data-name="m4b25a7b167" class="cls-9" d="M520.8,294.6v3.5"/>
      </g>
      <g id="text_6" data-name="text 6">
        <g>
          <path id="DejaVuSans-54-3" data-name="DejaVuSans-54" class="cls-4" d="M506.6,305.1c-.4,0-.8.2-1.1.5-.3.3-.4.7-.4,1.2s.1.9.4,1.2c.3.3.6.5,1.1.5s.8-.2,1.1-.5c.3-.3.4-.7.4-1.2s-.1-.9-.4-1.2c-.3-.3-.6-.5-1.1-.5ZM508.5,302v.9c-.2-.1-.5-.2-.8-.3-.3,0-.5,0-.8,0-.7,0-1.1.2-1.5.7-.3.4-.5,1.1-.6,2,.2-.3.4-.5.7-.7.3-.2.6-.2,1-.2.7,0,1.3.2,1.7.7.4.4.6,1,.6,1.8s-.2,1.4-.7,1.8c-.4.5-1,.7-1.8.7s-1.5-.3-1.9-1c-.4-.6-.7-1.6-.7-2.8s.3-2.1.8-2.8c.5-.7,1.3-1,2.2-1s.5,0,.8,0,.5.1.8.2Z"/>
          <path id="DejaVuSans-49" class="cls-4" d="M510.9,308.3h1.6v-5.6l-1.8.4v-.9l1.7-.4h1v6.5h1.6v.8h-4.2v-.8Z"/>
          <path id="DejaVuSans-44-6" data-name="DejaVuSans-44" class="cls-4" d="M517.2,307.9h1v.8l-.8,1.6h-.6l.4-1.6v-.8Z"/>
          <path id="DejaVuSans-48-15" data-name="DejaVuSans-48" class="cls-4" d="M522.4,302.5c-.5,0-.9.3-1.1.8-.3.5-.4,1.3-.4,2.3s.1,1.7.4,2.2c.3.5.6.8,1.1.8s.9-.3,1.2-.8c.3-.5.4-1.2.4-2.2s-.1-1.8-.4-2.3c-.3-.5-.6-.8-1.2-.8ZM522.4,301.8c.8,0,1.4.3,1.9,1,.4.6.6,1.6.6,2.8s-.2,2.2-.6,2.8c-.4.6-1.1,1-1.9,1s-1.4-.3-1.9-1c-.4-.6-.6-1.6-.6-2.8s.2-2.2.6-2.8c.4-.6,1.1-1,1.9-1Z"/>
          <path id="DejaVuSans-48-16" data-name="DejaVuSans-48" class="cls-4" d="M528.7,302.5c-.5,0-.9.3-1.1.8-.3.5-.4,1.3-.4,2.3s.1,1.7.4,2.2c.3.5.6.8,1.1.8s.9-.3,1.2-.8c.3-.5.4-1.2.4-2.2s-.1-1.8-.4-2.3c-.3-.5-.6-.8-1.2-.8ZM528.7,301.8c.8,0,1.4.3,1.9,1,.4.6.6,1.6.6,2.8s-.2,2.2-.6,2.8c-.4.6-1.1,1-1.9,1s-1.4-.3-1.9-1c-.4-.6-.6-1.6-.6-2.8s.2-2.2.6-2.8c.4-.6,1.1-1,1.9-1Z"/>
          <path id="DejaVuSans-48-17" data-name="DejaVuSans-48" class="cls-4" d="M535.1,302.5c-.5,0-.9.3-1.1.8-.3.5-.4,1.3-.4,2.3s.1,1.7.4,2.2c.3.5.6.8,1.1.8s.9-.3,1.2-.8c.3-.5.4-1.2.4-2.2s-.1-1.8-.4-2.3c-.3-.5-.6-.8-1.2-.8ZM535.1,301.8c.8,0,1.4.3,1.9,1,.4.6.6,1.6.6,2.8s-.2,2.2-.6,2.8c-.4.6-1.1,1-1.9,1s-1.4-.3-1.9-1c-.4-.6-.6-1.6-.6-2.8s.2-2.2.6-2.8c.4-.6,1.1-1,1.9-1Z"/>
        </g>
      </g>
    </g>
    <g id="xtick_7" data-name="xtick 7">
      <g id="line2d_11" data-name="line2d 11">
        <path id="m4b25a7b167-7" data-name="m4b25a7b167" class="cls-9" d="M611.3,294.6v3.5"/>
      </g>
      <g id="text_7" data-name="text 7">
        <g>
          <path id="DejaVuSans-54-4" data-name="DejaVuSans-54" class="cls-4" d="M597.1,305.1c-.4,0-.8.2-1.1.5-.3.3-.4.7-.4,1.2s.1.9.4,1.2c.3.3.6.5,1.1.5s.8-.2,1.1-.5c.3-.3.4-.7.4-1.2s-.1-.9-.4-1.2c-.3-.3-.6-.5-1.1-.5ZM599.1,302v.9c-.2-.1-.5-.2-.8-.3-.3,0-.5,0-.8,0-.7,0-1.1.2-1.5.7-.3.4-.5,1.1-.6,2,.2-.3.4-.5.7-.7.3-.2.6-.2,1-.2.7,0,1.3.2,1.7.7.4.4.6,1,.6,1.8s-.2,1.4-.7,1.8c-.4.5-1,.7-1.8.7s-1.5-.3-1.9-1c-.4-.6-.7-1.6-.7-2.8s.3-2.1.8-2.8c.5-.7,1.3-1,2.2-1s.5,0,.8,0,.5.1.8.2Z"/>
          <path id="DejaVuSans-49-2" data-name="DejaVuSans-49" class="cls-4" d="M601.4,308.3h1.6v-5.6l-1.8.4v-.9l1.7-.4h1v6.5h1.6v.8h-4.2v-.8Z"/>
          <path id="DejaVuSans-44-7" data-name="DejaVuSans-44" class="cls-4" d="M607.7,307.9h1v.8l-.8,1.6h-.6l.4-1.6v-.8Z"/>
          <path id="DejaVuSans-53-7" data-name="DejaVuSans-53" class="cls-4" d="M610.8,301.9h3.9v.8h-3v1.8c.1,0,.3,0,.4-.1.1,0,.3,0,.4,0,.8,0,1.5.2,1.9.7.5.4.7,1,.7,1.8s-.2,1.4-.7,1.8c-.5.4-1.2.7-2.1.7s-.6,0-.9,0c-.3,0-.6-.1-1-.2v-1c.3.2.6.3.9.4s.6.1,1,.1c.6,0,1-.1,1.3-.4.3-.3.5-.7.5-1.2s-.2-.9-.5-1.2c-.3-.3-.8-.4-1.3-.4s-.5,0-.8,0c-.3,0-.5.1-.8.3v-3.7Z"/>
          <path id="DejaVuSans-48-18" data-name="DejaVuSans-48" class="cls-4" d="M619.3,302.5c-.5,0-.9.3-1.1.8-.3.5-.4,1.3-.4,2.3s.1,1.7.4,2.2c.3.5.6.8,1.1.8s.9-.3,1.2-.8c.3-.5.4-1.2.4-2.2s-.1-1.8-.4-2.3c-.3-.5-.6-.8-1.2-.8ZM619.3,301.8c.8,0,1.4.3,1.9,1,.4.6.6,1.6.6,2.8s-.2,2.2-.6,2.8c-.4.6-1.1,1-1.9,1s-1.4-.3-1.9-1c-.4-.6-.6-1.6-.6-2.8s.2-2.2.6-2.8c.4-.6,1.1-1,1.9-1Z"/>
          <path id="DejaVuSans-48-19" data-name="DejaVuSans-48" class="cls-4" d="M625.6,302.5c-.5,0-.9.3-1.1.8-.3.5-.4,1.3-.4,2.3s.1,1.7.4,2.2c.3.5.6.8,1.1.8s.9-.3,1.2-.8c.3-.5.4-1.2.4-2.2s-.1-1.8-.4-2.3c-.3-.5-.6-.8-1.2-.8ZM625.6,301.8c.8,0,1.4.3,1.9,1,.4.6.6,1.6.6,2.8s-.2,2.2-.6,2.8c-.4.6-1.1,1-1.9,1s-1.4-.3-1.9-1c-.4-.6-.6-1.6-.6-2.8s.2-2.2.6-2.8c.4-.6,1.1-1,1.9-1Z"/>
        </g>
      </g>
    </g>
    <g id="xtick_8" data-name="xtick 8">
      <g id="line2d_12" data-name="line2d 12">
        <path id="m4b25a7b167-8" data-name="m4b25a7b167" class="cls-9" d="M701.9,294.6v3.5"/>
      </g>
      <g id="text_8" data-name="text 8">
        <g>
          <path id="DejaVuSans-54-5" data-name="DejaVuSans-54" class="cls-4" d="M687.7,305.1c-.4,0-.8.2-1.1.5-.3.3-.4.7-.4,1.2s.1.9.4,1.2c.3.3.6.5,1.1.5s.8-.2,1.1-.5c.3-.3.4-.7.4-1.2s-.1-.9-.4-1.2c-.3-.3-.6-.5-1.1-.5ZM689.6,302v.9c-.2-.1-.5-.2-.8-.3-.3,0-.5,0-.8,0-.7,0-1.1.2-1.5.7-.3.4-.5,1.1-.6,2,.2-.3.4-.5.7-.7.3-.2.6-.2,1-.2.7,0,1.3.2,1.7.7.4.4.6,1,.6,1.8s-.2,1.4-.7,1.8c-.4.5-1,.7-1.8.7s-1.5-.3-1.9-1c-.4-.6-.7-1.6-.7-2.8s.3-2.1.8-2.8c.5-.7,1.3-1,2.2-1s.5,0,.8,0,.5.1.8.2Z"/>
          <path id="DejaVuSans-50" class="cls-4" d="M692.7,308.3h3.4v.8h-4.6v-.8c.4-.4.9-.9,1.5-1.6.6-.7,1.1-1.1,1.2-1.3.3-.4.5-.7.7-.9.1-.2.2-.5.2-.7,0-.4-.1-.7-.4-.9-.3-.2-.6-.4-1.1-.4s-.6,0-1,.2c-.3.1-.7.3-1.1.5v-1c.4-.2.8-.3,1.1-.4.3,0,.7-.1.9-.1.8,0,1.4.2,1.8.6.4.4.7.9.7,1.5s0,.6-.2.9c-.1.3-.3.6-.6.9,0,0-.3.4-.8.8-.4.5-1.1,1.1-1.8,1.9Z"/>
          <path id="DejaVuSans-44-8" data-name="DejaVuSans-44" class="cls-4" d="M698.3,307.9h1v.8l-.8,1.6h-.6l.4-1.6v-.8Z"/>
          <path id="DejaVuSans-48-20" data-name="DejaVuSans-48" class="cls-4" d="M703.5,302.5c-.5,0-.9.3-1.1.8-.3.5-.4,1.3-.4,2.3s.1,1.7.4,2.2c.3.5.6.8,1.1.8s.9-.3,1.2-.8c.3-.5.4-1.2.4-2.2s-.1-1.8-.4-2.3c-.3-.5-.6-.8-1.2-.8ZM703.5,301.8c.8,0,1.4.3,1.9,1,.4.6.6,1.6.6,2.8s-.2,2.2-.6,2.8c-.4.6-1.1,1-1.9,1s-1.4-.3-1.9-1c-.4-.6-.6-1.6-.6-2.8s.2-2.2.6-2.8c.4-.6,1.1-1,1.9-1Z"/>
          <path id="DejaVuSans-48-21" data-name="DejaVuSans-48" class="cls-4" d="M709.8,302.5c-.5,0-.9.3-1.1.8-.3.5-.4,1.3-.4,2.3s.1,1.7.4,2.2c.3.5.6.8,1.1.8s.9-.3,1.2-.8c.3-.5.4-1.2.4-2.2s-.1-1.8-.4-2.3c-.3-.5-.6-.8-1.2-.8ZM709.8,301.8c.8,0,1.4.3,1.9,1,.4.6.6,1.6.6,2.8s-.2,2.2-.6,2.8c-.4.6-1.1,1-1.9,1s-1.4-.3-1.9-1c-.4-.6-.6-1.6-.6-2.8s.2-2.2.6-2.8c.4-.6,1.1-1,1.9-1Z"/>
          <path id="DejaVuSans-48-22" data-name="DejaVuSans-48" class="cls-4" d="M716.2,302.5c-.5,0-.9.3-1.1.8-.3.5-.4,1.3-.4,2.3s.1,1.7.4,2.2c.3.5.6.8,1.1.8s.9-.3,1.2-.8c.3-.5.4-1.2.4-2.2s-.1-1.8-.4-2.3c-.3-.5-.6-.8-1.2-.8ZM716.2,301.8c.8,0,1.4.3,1.9,1,.4.6.6,1.6.6,2.8s-.2,2.2-.6,2.8c-.4.6-1.1,1-1.9,1s-1.4-.3-1.9-1c-.4-.6-.6-1.6-.6-2.8s.2-2.2.6-2.8c.4-.6,1.1-1,1.9-1Z"/>
        </g>
      </g>
    </g>
    <g id="xtick_9" data-name="xtick 9">
      <g id="line2d_13" data-name="line2d 13">
        <path id="m4b25a7b167-9" data-name="m4b25a7b167" class="cls-9" d="M792.4,294.6v3.5"/>
      </g>
      <g id="text_9" data-name="text 9">
        <g>
          <path id="DejaVuSans-54-6" data-name="DejaVuSans-54" class="cls-4" d="M778.2,305.1c-.4,0-.8.2-1.1.5-.3.3-.4.7-.4,1.2s.1.9.4,1.2c.3.3.6.5,1.1.5s.8-.2,1.1-.5c.3-.3.4-.7.4-1.2s-.1-.9-.4-1.2c-.3-.3-.6-.5-1.1-.5ZM780.2,302v.9c-.2-.1-.5-.2-.8-.3-.3,0-.5,0-.8,0-.7,0-1.1.2-1.5.7-.3.4-.5,1.1-.6,2,.2-.3.4-.5.7-.7.3-.2.6-.2,1-.2.7,0,1.3.2,1.7.7.4.4.6,1,.6,1.8s-.2,1.4-.7,1.8c-.4.5-1,.7-1.8.7s-1.5-.3-1.9-1c-.4-.6-.7-1.6-.7-2.8s.3-2.1.8-2.8c.5-.7,1.3-1,2.2-1s.5,0,.8,0,.5.1.8.2Z"/>
          <path id="DejaVuSans-50-2" data-name="DejaVuSans-50" class="cls-4" d="M783.2,308.3h3.4v.8h-4.6v-.8c.4-.4.9-.9,1.5-1.6.6-.7,1.1-1.1,1.2-1.3.3-.4.5-.7.7-.9.1-.2.2-.5.2-.7,0-.4-.1-.7-.4-.9-.3-.2-.6-.4-1.1-.4s-.6,0-1,.2c-.3.1-.7.3-1.1.5v-1c.4-.2.8-.3,1.1-.4.3,0,.7-.1.9-.1.8,0,1.4.2,1.8.6.4.4.7.9.7,1.5s0,.6-.2.9c-.1.3-.3.6-.6.9,0,0-.3.4-.8.8-.4.5-1.1,1.1-1.8,1.9Z"/>
          <path id="DejaVuSans-44-9" data-name="DejaVuSans-44" class="cls-4" d="M788.8,307.9h1v.8l-.8,1.6h-.6l.4-1.6v-.8Z"/>
          <path id="DejaVuSans-53-8" data-name="DejaVuSans-53" class="cls-4" d="M791.9,301.9h3.9v.8h-3v1.8c.1,0,.3,0,.4-.1.1,0,.3,0,.4,0,.8,0,1.5.2,1.9.7.5.4.7,1,.7,1.8s-.2,1.4-.7,1.8c-.5.4-1.2.7-2.1.7s-.6,0-.9,0c-.3,0-.6-.1-1-.2v-1c.3.2.6.3.9.4s.6.1,1,.1c.6,0,1-.1,1.3-.4.3-.3.5-.7.5-1.2s-.2-.9-.5-1.2c-.3-.3-.8-.4-1.3-.4s-.5,0-.8,0c-.3,0-.5.1-.8.3v-3.7Z"/>
          <path id="DejaVuSans-48-23" data-name="DejaVuSans-48" class="cls-4" d="M800.4,302.5c-.5,0-.9.3-1.1.8-.3.5-.4,1.3-.4,2.3s.1,1.7.4,2.2c.3.5.6.8,1.1.8s.9-.3,1.2-.8c.3-.5.4-1.2.4-2.2s-.1-1.8-.4-2.3c-.3-.5-.6-.8-1.2-.8ZM800.4,301.8c.8,0,1.4.3,1.9,1,.4.6.6,1.6.6,2.8s-.2,2.2-.6,2.8c-.4.6-1.1,1-1.9,1s-1.4-.3-1.9-1c-.4-.6-.6-1.6-.6-2.8s.2-2.2.6-2.8c.4-.6,1.1-1,1.9-1Z"/>
          <path id="DejaVuSans-48-24" data-name="DejaVuSans-48" class="cls-4" d="M806.7,302.5c-.5,0-.9.3-1.1.8-.3.5-.4,1.3-.4,2.3s.1,1.7.4,2.2c.3.5.6.8,1.1.8s.9-.3,1.2-.8c.3-.5.4-1.2.4-2.2s-.1-1.8-.4-2.3c-.3-.5-.6-.8-1.2-.8ZM806.7,301.8c.8,0,1.4.3,1.9,1,.4.6.6,1.6.6,2.8s-.2,2.2-.6,2.8c-.4.6-1.1,1-1.9,1s-1.4-.3-1.9-1c-.4-.6-.6-1.6-.6-2.8s.2-2.2.6-2.8c.4-.6,1.1-1,1.9-1Z"/>
        </g>
      </g>
    </g>
  </g>
  <g id="text_10" data-name="text 10">
    <g>
      <path id="DejaVuSans-82" class="cls-3" d="M458.1,283.8c.2,0,.5.2.7.5s.4.6.7,1.1l1.1,2.2h-1.2l-1-2.1c-.3-.5-.5-.9-.8-1.1s-.6-.3-1-.3h-1.2v3.4h-1.1v-8h2.4c.9,0,1.6.2,2.1.6.5.4.7,1,.7,1.7s-.1.9-.4,1.3c-.2.3-.6.6-1,.7ZM455.4,280.5v2.8h1.4c.5,0,.9-.1,1.2-.4s.4-.6.4-1.1-.1-.8-.4-1.1-.7-.4-1.2-.4h-1.4Z"/>
      <path id="DejaVuSans-84" class="cls-3" d="M460.8,279.6h6.8v.9h-2.8v7.1h-1.1v-7.1h-2.8v-.9Z"/>
    </g>
  </g>
  <g id="text_11" data-name="text 11">
    <g>
      <path id="DejaVuSans-100" class="cls-3" d="M621.4,282.5v-3.3h1v8.4h-1v-.9c-.2.4-.5.6-.8.8-.3.2-.7.3-1.1.3-.7,0-1.3-.3-1.8-.9-.5-.6-.7-1.3-.7-2.3s.2-1.7.7-2.3c.5-.6,1-.9,1.8-.9s.8,0,1.1.3c.3.2.6.4.8.8ZM618.1,284.6c0,.7.1,1.3.4,1.7.3.4.7.6,1.2.6s.9-.2,1.2-.6c.3-.4.5-1,.5-1.7s-.2-1.3-.5-1.7c-.3-.4-.7-.6-1.2-.6s-.9.2-1.2.6-.4,1-.4,1.7Z"/>
      <path id="DejaVuSans-121" class="cls-3" d="M627,288.2c-.3.7-.6,1.2-.8,1.4-.3.2-.6.3-1.1.3h-.8v-.8h.6c.3,0,.5,0,.6-.2.2-.1.3-.4.5-.9l.2-.5-2.4-5.9h1l1.9,4.7,1.9-4.7h1l-2.6,6.6Z"/>
      <path id="DejaVuSans-105" class="cls-3" d="M631,281.6h1v6h-1v-6ZM631,279.3h1v1.3h-1v-1.3Z"/>
      <path id="DejaVuSans-110" class="cls-3" d="M639,284v3.6h-1v-3.6c0-.6-.1-1-.3-1.3-.2-.3-.6-.4-1-.4s-1,.2-1.3.5c-.3.3-.5.8-.5,1.4v3.4h-1v-6h1v.9c.2-.4.5-.6.8-.8.3-.2.7-.3,1.1-.3.7,0,1.2.2,1.6.6.4.4.5,1.1.5,1.9Z"/>
      <path id="DejaVuSans-103" class="cls-3" d="M645,284.5c0-.7-.1-1.3-.4-1.7-.3-.4-.7-.6-1.2-.6s-.9.2-1.2.6c-.3.4-.4.9-.4,1.7s.1,1.3.4,1.7c.3.4.7.6,1.2.6s.9-.2,1.2-.6c.3-.4.4-.9.4-1.7ZM645.9,286.9c0,1-.2,1.8-.7,2.3-.5.5-1.1.7-2.1.7s-.7,0-1,0-.6-.1-.9-.2v-1c.3.2.6.3.9.3.3,0,.6.1.9.1.6,0,1.1-.2,1.5-.5.3-.3.5-.8.5-1.5v-.5c-.2.4-.5.6-.8.8s-.7.3-1.1.3c-.7,0-1.3-.3-1.8-.8-.5-.6-.7-1.3-.7-2.2s.2-1.7.7-2.2c.5-.6,1-.8,1.8-.8s.8,0,1.1.3.6.4.8.8v-.9h1v5.3Z"/>
      <path id="DejaVuSans-32" class="cls-3" d="M646.9,287.6"/>
      <path id="DejaVuSans-72" class="cls-3" d="M651.5,279.6h1.1v3.3h3.9v-3.3h1.1v8h-1.1v-3.8h-3.9v3.8h-1.1v-8Z"/>
      <path id="DejaVuSans-78" class="cls-3" d="M659.8,279.6h1.5l3.6,6.7v-6.7h1.1v8h-1.5l-3.6-6.7v6.7h-1.1v-8Z"/>
      <path id="DejaVuSans-72-2" data-name="DejaVuSans-72" class="cls-3" d="M668,279.6h1.1v3.3h3.9v-3.3h1.1v8h-1.1v-3.8h-3.9v3.8h-1.1v-8Z"/>
    </g>
  </g>
  <g id="text_12" data-name="text 12">
    <g>
      <path id="DejaVuSans-72-3" data-name="DejaVuSans-72" class="cls-3" d="M194.1,279.6h1.1v3.3h3.9v-3.3h1.1v8h-1.1v-3.8h-3.9v3.8h-1.1v-8Z"/>
      <path id="DejaVuSans-78-2" data-name="DejaVuSans-78" class="cls-3" d="M202.3,279.6h1.5l3.6,6.7v-6.7h1.1v8h-1.5l-3.6-6.7v6.7h-1.1v-8Z"/>
      <path id="DejaVuSans-72-4" data-name="DejaVuSans-72" class="cls-3" d="M210.6,279.6h1.1v3.3h3.9v-3.3h1.1v8h-1.1v-3.8h-3.9v3.8h-1.1v-8Z"/>
    </g>
  </g>
  <g id="text_13" data-name="text 13">
    <g>
      <path id="DejaVuSans-72-5" data-name="DejaVuSans-72" class="cls-3" d="M744.7,279.6h1.1v3.3h3.9v-3.3h1.1v8h-1.1v-3.8h-3.9v3.8h-1.1v-8Z"/>
      <path id="DejaVuSans-78-3" data-name="DejaVuSans-78" class="cls-3" d="M753,279.6h1.5l3.6,6.7v-6.7h1.1v8h-1.5l-3.6-6.7v6.7h-1.1v-8Z"/>
      <path id="DejaVuSans-72-6" data-name="DejaVuSans-72" class="cls-3" d="M761.2,279.6h1.1v3.3h3.9v-3.3h1.1v8h-1.1v-3.8h-3.9v3.8h-1.1v-8Z"/>
    </g>
  </g>
  <g id="text_14" data-name="text 14">
    <g id="patch_9" data-name="patch 9">
      <path class="cls-18" d="M77.3,253.2h88.4c2.2,0,3.3-1.1,3.3-3.3v-10.6c0-2.2-1.1-3.3-3.3-3.3h-88.4c-2.2,0-3.3,1.1-3.3,3.3v10.6c0,2.2,1.1,3.3,3.3,3.3Z"/>
    </g>
    <g>
      <path id="DejaVuSans-72-7" data-name="DejaVuSans-72" class="cls-3" d="M78.4,239.6h1.1v3.3h3.9v-3.3h1.1v8h-1.1v-3.8h-3.9v3.8h-1.1v-8Z"/>
      <path id="DejaVuSans-105-2" data-name="DejaVuSans-105" class="cls-3" d="M86.6,241.6h1v6h-1v-6ZM86.6,239.3h1v1.3h-1v-1.3Z"/>
      <path id="DejaVuSans-99" class="cls-3" d="M94,241.8v.9c-.3-.2-.6-.3-.8-.3s-.6-.1-.9-.1c-.6,0-1.1.2-1.5.6-.4.4-.5,1-.5,1.7s.2,1.3.5,1.7c.4.4.9.6,1.5.6s.6,0,.9-.1.6-.2.8-.3v.9c-.3.1-.6.2-.9.3-.3,0-.6,0-.9,0-.9,0-1.6-.3-2.2-.9-.5-.6-.8-1.3-.8-2.3s.3-1.8.8-2.3c.5-.6,1.3-.8,2.2-.8s.6,0,.9,0c.3,0,.6.2.8.3Z"/>
      <path id="DejaVuSans-65" class="cls-3" d="M98.5,240.7l-1.5,4h2.9l-1.5-4ZM97.9,239.6h1.2l3.1,8h-1.1l-.7-2.1h-3.6l-.7,2.1h-1.1l3.1-8Z"/>
      <path id="DejaVuSans-45" class="cls-3" d="M102.8,244.2h2.9v.9h-2.9v-.9Z"/>
      <path id="DejaVuSans-108" class="cls-3" d="M107.2,239.3h1v8.4h-1v-8.4Z"/>
      <path id="DejaVuSans-105-3" data-name="DejaVuSans-105" class="cls-3" d="M110.3,241.6h1v6h-1v-6ZM110.3,239.3h1v1.3h-1v-1.3Z"/>
      <path id="DejaVuSans-107" class="cls-3" d="M113.3,239.3h1v4.9l2.9-2.6h1.3l-3.2,2.8,3.3,3.2h-1.3l-3.1-2.9v2.9h-1v-8.4Z"/>
      <path id="DejaVuSans-101" class="cls-3" d="M124.9,244.4v.5h-4.5c0,.7.2,1.2.6,1.6.4.4.9.5,1.5.5s.7,0,1.1-.1.7-.2,1.1-.4v.9c-.4.2-.7.3-1.1.3s-.7.1-1.1.1c-1,0-1.7-.3-2.3-.8-.6-.6-.8-1.3-.8-2.3s.3-1.8.8-2.3c.5-.6,1.2-.9,2.2-.9s1.4.3,1.9.8c.5.5.7,1.2.7,2.1ZM123.9,244.1c0-.5-.2-1-.5-1.3-.3-.3-.7-.5-1.2-.5s-1,.2-1.3.5-.5.8-.6,1.3h3.5Z"/>
      <path id="DejaVuSans-32-2" data-name="DejaVuSans-32" class="cls-3" d="M125.4,247.6"/>
      <path id="DejaVuSans-116" class="cls-3" d="M131,239.9v1.7h2v.8h-2v3.3c0,.5,0,.8.2.9s.4.2.8.2h1v.8h-1c-.8,0-1.3-.1-1.6-.4-.3-.3-.4-.8-.4-1.6v-3.3h-.7v-.8h.7v-1.7h1Z"/>
      <path id="DejaVuSans-111" class="cls-3" d="M136.6,242.3c-.5,0-.9.2-1.3.6s-.5,1-.5,1.7.2,1.3.5,1.7c.3.4.7.6,1.3.6s.9-.2,1.3-.6c.3-.4.5-1,.5-1.7s-.2-1.3-.5-1.7c-.3-.4-.7-.6-1.3-.6ZM136.6,241.5c.9,0,1.5.3,2,.8.5.6.7,1.3.7,2.3s-.2,1.8-.7,2.3c-.5.6-1.2.8-2,.8s-1.5-.3-2-.8c-.5-.6-.7-1.3-.7-2.3s.2-1.8.7-2.3c.5-.6,1.2-.8,2-.8Z"/>
      <path id="DejaVuSans-120" class="cls-3" d="M146,241.6l-2.2,2.9,2.3,3.1h-1.2l-1.8-2.4-1.7,2.4h-1.2l2.3-3.1-2.1-2.9h1.2l1.6,2.1,1.6-2.1h1.2Z"/>
      <path id="DejaVuSans-105-4" data-name="DejaVuSans-105" class="cls-3" d="M147.5,241.6h1v6h-1v-6ZM147.5,239.3h1v1.3h-1v-1.3Z"/>
      <path id="DejaVuSans-110-2" data-name="DejaVuSans-110" class="cls-3" d="M155.6,244v3.6h-1v-3.6c0-.6-.1-1-.3-1.3-.2-.3-.6-.4-1-.4s-1,.2-1.3.5c-.3.3-.5.8-.5,1.4v3.4h-1v-6h1v.9c.2-.4.5-.6.8-.8.3-.2.7-.3,1.1-.3.7,0,1.2.2,1.6.6.4.4.5,1.1.5,1.9Z"/>
      <path id="DejaVuSans-8680" class="cls-3" d="M163,242.7v.7h-5.6v1.5h5.6v.7l1.4-1.4-1.4-1.4ZM162.5,246.9v-1.5h-5.6v-2.5h5.6v-1.5l2.7,2.7-2.7,2.7Z"/>
    </g>
  </g>
  <g id="text_15" data-name="text 15">
    <g id="patch_10" data-name="patch 10">
      <path class="cls-18" d="M7.2,273.2h109.5c2.2,0,3.3-1.1,3.3-3.3v-10.6c0-2.2-1.1-3.3-3.3-3.3H7.2c-2.2,0-3.3,1.1-3.3,3.3v10.6c0,2.2,1.1,3.3,3.3,3.3Z"/>
    </g>
    <g>
      <path id="DejaVuSans-72-8" data-name="DejaVuSans-72" class="cls-3" d="M8.3,259.6h1.1v3.3h3.9v-3.3h1.1v8h-1.1v-3.8h-3.9v3.8h-1.1v-8Z"/>
      <path id="DejaVuSans-105-5" data-name="DejaVuSans-105" class="cls-3" d="M16.5,261.6h1v6h-1v-6ZM16.5,259.3h1v1.3h-1v-1.3Z"/>
      <path id="DejaVuSans-99-2" data-name="DejaVuSans-99" class="cls-3" d="M23.9,261.8v.9c-.3-.2-.6-.3-.8-.3s-.6-.1-.9-.1c-.6,0-1.1.2-1.5.6-.4.4-.5,1-.5,1.7s.2,1.3.5,1.7c.4.4.9.6,1.5.6s.6,0,.9-.1.6-.2.8-.3v.9c-.3.1-.6.2-.9.3-.3,0-.6,0-.9,0-.9,0-1.6-.3-2.2-.9-.5-.6-.8-1.3-.8-2.3s.3-1.8.8-2.3c.5-.6,1.3-.8,2.2-.8s.6,0,.9,0c.3,0,.6.2.8.3Z"/>
      <path id="DejaVuSans-66" class="cls-3" d="M26.7,263.8v2.9h1.7c.6,0,1-.1,1.3-.4.3-.2.4-.6.4-1.1s-.1-.9-.4-1.1c-.3-.2-.7-.4-1.3-.4h-1.7ZM26.7,260.5v2.4h1.6c.5,0,.9,0,1.2-.3.3-.2.4-.5.4-.9s-.1-.7-.4-.9c-.3-.2-.7-.3-1.2-.3h-1.6ZM25.7,259.6h2.8c.8,0,1.5.2,1.9.5.4.3.7.8.7,1.5s-.1.9-.3,1.2-.6.5-1,.5c.5.1.9.4,1.2.7.3.4.4.8.4,1.4s-.2,1.3-.7,1.7c-.5.4-1.2.6-2.1.6h-2.9v-8Z"/>
      <path id="DejaVuSans-45-2" data-name="DejaVuSans-45" class="cls-3" d="M32.7,264.2h2.9v.9h-2.9v-.9Z"/>
      <path id="DejaVuSans-108-2" data-name="DejaVuSans-108" class="cls-3" d="M37.1,259.3h1v8.4h-1v-8.4Z"/>
      <path id="DejaVuSans-105-6" data-name="DejaVuSans-105" class="cls-3" d="M40.2,261.6h1v6h-1v-6ZM40.2,259.3h1v1.3h-1v-1.3Z"/>
      <path id="DejaVuSans-107-2" data-name="DejaVuSans-107" class="cls-3" d="M43.2,259.3h1v4.9l2.9-2.6h1.3l-3.2,2.8,3.3,3.2h-1.3l-3.1-2.9v2.9h-1v-8.4Z"/>
      <path id="DejaVuSans-101-2" data-name="DejaVuSans-101" class="cls-3" d="M54.8,264.4v.5h-4.5c0,.7.2,1.2.6,1.6.4.4.9.5,1.5.5s.7,0,1.1-.1.7-.2,1.1-.4v.9c-.4.2-.7.3-1.1.3s-.7.1-1.1.1c-1,0-1.7-.3-2.3-.8-.6-.6-.8-1.3-.8-2.3s.3-1.8.8-2.3c.5-.6,1.2-.9,2.2-.9s1.4.3,1.9.8c.5.5.7,1.2.7,2.1ZM53.8,264.1c0-.5-.2-1-.5-1.3-.3-.3-.7-.5-1.2-.5s-1,.2-1.3.5-.5.8-.6,1.3h3.5Z"/>
      <path id="DejaVuSans-32-3" data-name="DejaVuSans-32" class="cls-3" d="M55.3,267.6"/>
      <path id="DejaVuSans-97" class="cls-3" d="M62.6,264.6c-.8,0-1.4,0-1.7.3s-.5.5-.5.9.1.6.3.8c.2.2.5.3.9.3s1-.2,1.3-.6.5-.9.5-1.5v-.2h-1ZM64.6,264.2v3.4h-1v-.9c-.2.4-.5.6-.8.8-.3.2-.7.3-1.2.3s-1.1-.2-1.5-.5c-.4-.3-.5-.8-.5-1.4s.2-1.2.7-1.5c.5-.3,1.1-.5,2-.5h1.4c0-.6-.1-.9-.4-1.2s-.7-.4-1.3-.4-.7,0-1,.1c-.3,0-.6.2-.9.4v-.9c.4-.1.7-.2,1.1-.3.3,0,.7-.1,1-.1.9,0,1.5.2,2,.7.4.5.6,1.1.6,2.1Z"/>
      <path id="DejaVuSans-110-3" data-name="DejaVuSans-110" class="cls-3" d="M71.6,264v3.6h-1v-3.6c0-.6-.1-1-.3-1.3-.2-.3-.6-.4-1-.4s-1,.2-1.3.5c-.3.3-.5.8-.5,1.4v3.4h-1v-6h1v.9c.2-.4.5-.6.8-.8.3-.2.7-.3,1.1-.3.7,0,1.2.2,1.6.6.4.4.5,1.1.5,1.9Z"/>
      <path id="DejaVuSans-116-2" data-name="DejaVuSans-116" class="cls-3" d="M74.6,259.9v1.7h2v.8h-2v3.3c0,.5,0,.8.2.9s.4.2.8.2h1v.8h-1c-.8,0-1.3-.1-1.6-.4-.3-.3-.4-.8-.4-1.6v-3.3h-.7v-.8h.7v-1.7h1Z"/>
      <path id="DejaVuSans-105-7" data-name="DejaVuSans-105" class="cls-3" d="M77.9,261.6h1v6h-1v-6ZM77.9,259.3h1v1.3h-1v-1.3Z"/>
      <path id="DejaVuSans-116-3" data-name="DejaVuSans-116" class="cls-3" d="M81.9,259.9v1.7h2v.8h-2v3.3c0,.5,0,.8.2.9s.4.2.8.2h1v.8h-1c-.8,0-1.3-.1-1.6-.4-.3-.3-.4-.8-.4-1.6v-3.3h-.7v-.8h.7v-1.7h1Z"/>
      <path id="DejaVuSans-111-2" data-name="DejaVuSans-111" class="cls-3" d="M87.6,262.3c-.5,0-.9.2-1.3.6s-.5,1-.5,1.7.2,1.3.5,1.7c.3.4.7.6,1.3.6s.9-.2,1.3-.6c.3-.4.5-1,.5-1.7s-.2-1.3-.5-1.7c-.3-.4-.7-.6-1.3-.6ZM87.6,261.5c.9,0,1.5.3,2,.8.5.6.7,1.3.7,2.3s-.2,1.8-.7,2.3c-.5.6-1.2.8-2,.8s-1.5-.3-2-.8c-.5-.6-.7-1.3-.7-2.3s.2-1.8.7-2.3c.5-.6,1.2-.8,2-.8Z"/>
      <path id="DejaVuSans-120-2" data-name="DejaVuSans-120" class="cls-3" d="M97,261.6l-2.2,2.9,2.3,3.1h-1.2l-1.8-2.4-1.7,2.4h-1.2l2.3-3.1-2.1-2.9h1.2l1.6,2.1,1.6-2.1h1.2Z"/>
      <path id="DejaVuSans-105-8" data-name="DejaVuSans-105" class="cls-3" d="M98.5,261.6h1v6h-1v-6ZM98.5,259.3h1v1.3h-1v-1.3Z"/>
      <path id="DejaVuSans-110-4" data-name="DejaVuSans-110" class="cls-3" d="M106.6,264v3.6h-1v-3.6c0-.6-.1-1-.3-1.3-.2-.3-.6-.4-1-.4s-1,.2-1.3.5c-.3.3-.5.8-.5,1.4v3.4h-1v-6h1v.9c.2-.4.5-.6.8-.8.3-.2.7-.3,1.1-.3.7,0,1.2.2,1.6.6.4.4.5,1.1.5,1.9Z"/>
      <path id="DejaVuSans-8680-2" data-name="DejaVuSans-8680" class="cls-3" d="M114,262.7v.7h-5.6v1.5h5.6v.7l1.4-1.4-1.4-1.4ZM113.4,266.9v-1.5h-5.6v-2.5h5.6v-1.5l2.7,2.7-2.7,2.7Z"/>
    </g>
  </g>
  <g id="text_16" data-name="text 16">
    <g id="patch_11" data-name="patch 11">
      <path class="cls-18" d="M673.2,253.2h78.6c2.2,0,3.3-1.1,3.3-3.3v-10.6c0-2.2-1.1-3.3-3.3-3.3h-78.6c-2.2,0-3.3,1.1-3.3,3.3v10.6c0,2.2,1.1,3.3,3.3,3.3Z"/>
    </g>
    <g>
      <path id="DejaVuSans-84-2" data-name="DejaVuSans-84" class="cls-3" d="M673.2,239.6h6.8v.9h-2.8v7.1h-1.1v-7.1h-2.8v-.9Z"/>
      <path id="DejaVuSans-114" class="cls-3" d="M684.4,242.5c-.1,0-.2-.1-.4-.1-.1,0-.3,0-.4,0-.6,0-1,.2-1.3.5s-.4.9-.4,1.6v3.2h-1v-6h1v.9c.2-.4.5-.6.8-.8.3-.2.7-.3,1.2-.3s.1,0,.2,0c0,0,.2,0,.3,0v1Z"/>
      <path id="DejaVuSans-97-2" data-name="DejaVuSans-97" class="cls-3" d="M688.2,244.6c-.8,0-1.4,0-1.7.3s-.5.5-.5.9.1.6.3.8c.2.2.5.3.9.3s1-.2,1.3-.6.5-.9.5-1.5v-.2h-1ZM690.2,244.2v3.4h-1v-.9c-.2.4-.5.6-.8.8-.3.2-.7.3-1.2.3s-1.1-.2-1.5-.5c-.4-.3-.5-.8-.5-1.4s.2-1.2.7-1.5c.5-.3,1.1-.5,2-.5h1.4c0-.6-.1-.9-.4-1.2s-.7-.4-1.3-.4-.7,0-1,.1c-.3,0-.6.2-.9.4v-.9c.4-.1.7-.2,1.1-.3.3,0,.7-.1,1-.1.9,0,1.5.2,2,.7.4.5.6,1.1.6,2.1Z"/>
      <path id="DejaVuSans-110-5" data-name="DejaVuSans-110" class="cls-3" d="M697.2,244v3.6h-1v-3.6c0-.6-.1-1-.3-1.3-.2-.3-.6-.4-1-.4s-1,.2-1.3.5c-.3.3-.5.8-.5,1.4v3.4h-1v-6h1v.9c.2-.4.5-.6.8-.8.3-.2.7-.3,1.1-.3.7,0,1.2.2,1.6.6.4.4.5,1.1.5,1.9Z"/>
      <path id="DejaVuSans-115" class="cls-3" d="M703,241.8v.9c-.3-.1-.6-.3-.9-.3-.3,0-.6-.1-.9-.1-.5,0-.9,0-1.1.2-.2.2-.4.4-.4.7s0,.4.3.5.5.3,1.1.4h.3c.7.2,1.2.4,1.5.7s.4.7.4,1.1-.2,1-.7,1.3c-.4.3-1.1.5-1.8.5s-.7,0-1,0c-.3,0-.7-.2-1.1-.3v-1c.4.2.7.3,1.1.4.4,0,.7.1,1.1.1s.8,0,1.1-.2c.3-.2.4-.4.4-.7s0-.5-.3-.6c-.2-.1-.6-.3-1.2-.4h-.3c-.6-.2-1.1-.4-1.3-.7-.3-.3-.4-.6-.4-1.1s.2-1,.6-1.3c.4-.3,1-.5,1.7-.5s.7,0,1,0c.3,0,.6.1.9.2Z"/>
      <path id="DejaVuSans-112" class="cls-3" d="M705.8,246.7v3.2h-1v-8.3h1v.9c.2-.4.5-.6.8-.8.3-.2.7-.3,1.1-.3.7,0,1.3.3,1.8.9.5.6.7,1.3.7,2.3s-.2,1.7-.7,2.3c-.5.6-1,.9-1.8.9s-.8,0-1.1-.3c-.3-.2-.6-.4-.8-.8ZM709.2,244.6c0-.7-.1-1.3-.4-1.7s-.7-.6-1.2-.6-.9.2-1.2.6-.4,1-.4,1.7.1,1.3.4,1.7c.3.4.7.6,1.2.6s.9-.2,1.2-.6c.3-.4.4-1,.4-1.7Z"/>
      <path id="DejaVuSans-111-3" data-name="DejaVuSans-111" class="cls-3" d="M714.2,242.3c-.5,0-.9.2-1.3.6s-.5,1-.5,1.7.2,1.3.5,1.7c.3.4.7.6,1.3.6s.9-.2,1.3-.6c.3-.4.5-1,.5-1.7s-.2-1.3-.5-1.7c-.3-.4-.7-.6-1.3-.6ZM714.2,241.5c.9,0,1.5.3,2,.8.5.6.7,1.3.7,2.3s-.2,1.8-.7,2.3c-.5.6-1.2.8-2,.8s-1.5-.3-2-.8c-.5-.6-.7-1.3-.7-2.3s.2-1.8.7-2.3c.5-.6,1.2-.8,2-.8Z"/>
      <path id="DejaVuSans-115-2" data-name="DejaVuSans-115" class="cls-3" d="M722.4,241.8v.9c-.3-.1-.6-.3-.9-.3-.3,0-.6-.1-.9-.1-.5,0-.9,0-1.1.2-.2.2-.4.4-.4.7s0,.4.3.5.5.3,1.1.4h.3c.7.2,1.2.4,1.5.7s.4.7.4,1.1-.2,1-.7,1.3c-.4.3-1.1.5-1.8.5s-.7,0-1,0c-.3,0-.7-.2-1.1-.3v-1c.4.2.7.3,1.1.4.4,0,.7.1,1.1.1s.8,0,1.1-.2c.3-.2.4-.4.4-.7s0-.5-.3-.6c-.2-.1-.6-.3-1.2-.4h-.3c-.6-.2-1.1-.4-1.3-.7-.3-.3-.4-.6-.4-1.1s.2-1,.6-1.3c.4-.3,1-.5,1.7-.5s.7,0,1,0c.3,0,.6.1.9.2Z"/>
      <path id="DejaVuSans-97-3" data-name="DejaVuSans-97" class="cls-3" d="M727.1,244.6c-.8,0-1.4,0-1.7.3s-.5.5-.5.9.1.6.3.8c.2.2.5.3.9.3s1-.2,1.3-.6.5-.9.5-1.5v-.2h-1ZM729,244.2v3.4h-1v-.9c-.2.4-.5.6-.8.8-.3.2-.7.3-1.2.3s-1.1-.2-1.5-.5c-.4-.3-.5-.8-.5-1.4s.2-1.2.7-1.5c.5-.3,1.1-.5,2-.5h1.4c0-.6-.1-.9-.4-1.2s-.7-.4-1.3-.4-.7,0-1,.1c-.3,0-.6.2-.9.4v-.9c.4-.1.7-.2,1.1-.3.3,0,.7-.1,1-.1.9,0,1.5.2,2,.7.4.5.6,1.1.6,2.1Z"/>
      <path id="DejaVuSans-115-3" data-name="DejaVuSans-115" class="cls-3" d="M734.9,241.8v.9c-.3-.1-.6-.3-.9-.3-.3,0-.6-.1-.9-.1-.5,0-.9,0-1.1.2-.2.2-.4.4-.4.7s0,.4.3.5.5.3,1.1.4h.3c.7.2,1.2.4,1.5.7s.4.7.4,1.1-.2,1-.7,1.3c-.4.3-1.1.5-1.8.5s-.7,0-1,0c-.3,0-.7-.2-1.1-.3v-1c.4.2.7.3,1.1.4.4,0,.7.1,1.1.1s.8,0,1.1-.2c.3-.2.4-.4.4-.7s0-.5-.3-.6c-.2-.1-.6-.3-1.2-.4h-.3c-.6-.2-1.1-.4-1.3-.7-.3-.3-.4-.6-.4-1.1s.2-1,.6-1.3c.4-.3,1-.5,1.7-.5s.7,0,1,0c.3,0,.6.1.9.2Z"/>
      <path id="DejaVuSans-101-3" data-name="DejaVuSans-101" class="cls-3" d="M741.9,244.4v.5h-4.5c0,.7.2,1.2.6,1.6.4.4.9.5,1.5.5s.7,0,1.1-.1.7-.2,1.1-.4v.9c-.4.2-.7.3-1.1.3s-.7.1-1.1.1c-1,0-1.7-.3-2.3-.8-.6-.6-.8-1.3-.8-2.3s.3-1.8.8-2.3c.5-.6,1.2-.9,2.2-.9s1.4.3,1.9.8c.5.5.7,1.2.7,2.1ZM741,244.1c0-.5-.2-1-.5-1.3-.3-.3-.7-.5-1.2-.5s-1,.2-1.3.5-.5.8-.6,1.3h3.5Z"/>
      <path id="DejaVuSans-8680-3" data-name="DejaVuSans-8680" class="cls-3" d="M749,242.7v.7h-5.6v1.5h5.6v.7l1.4-1.4-1.4-1.4ZM748.5,246.9v-1.5h-5.6v-2.5h5.6v-1.5l2.7,2.7-2.7,2.7Z"/>
    </g>
  </g>
  <line class="cls-23" x1="243.6" y1="268.1" x2="163.1" y2="186"/>
  <line class="cls-23" x1="249.1" y1="268.8" x2="435.7" y2="184.1"/>
  <line class="cls-2" x1="170.3" y1="300" x2="158.3" y2="149.8"/>
  <line class="cls-2" x1="145.9" y1="81.4" x2="927.1" y2="81.4"/>
  <path id="m1ec657e772" class="cls-14" d="M215.8,182.4V55.2h79.6v127.2h-79.6Z"/>
  <line class="cls-2" x1="189.8" y1="188.8" x2="202.2" y2="-3.7"/>
  <line class="cls-2" x1="444.9" y1="-3.7" x2="432.5" y2="188.8"/>
  <path id="m0e6b9b55a5-2" data-name="m0e6b9b55a5" class="cls-12" d="M350.2,184.1v-16.4h55.2v16.4h-55.2Z"/>
  <polyline class="cls-2" points="422.5 39.4 422.5 187.7 -346.4 256.1"/>
  <g id="text_17" data-name="text 17">
    <path id="DejaVuSans-71" class="cls-3" d="M169,179.7v-2.2h-1.8v-.9h2.8v3.4c-.4.3-.9.5-1.4.7-.5.2-1,.2-1.6.2-1.3,0-2.2-.4-2.9-1.1-.7-.7-1.1-1.8-1.1-3.1s.4-2.3,1.1-3.1c.7-.7,1.7-1.1,2.9-1.1s1,0,1.5.2c.5.1.9.3,1.3.6v1.2c-.4-.3-.8-.6-1.3-.8s-.9-.3-1.4-.3c-1,0-1.7.3-2.2.8-.5.5-.7,1.4-.7,2.4s.2,1.9.7,2.4c.5.5,1.2.8,2.2.8s.7,0,1,0c.3,0,.6-.2.8-.3Z"/>
  </g>
  <g id="text_18" data-name="text 18">
    <path id="DejaVuSans-67" class="cls-3" d="M181,173.4v1.1c-.4-.3-.8-.6-1.2-.8-.4-.2-.9-.3-1.3-.3-.9,0-1.6.3-2.1.8s-.7,1.4-.7,2.4.2,1.9.7,2.4,1.2.8,2.1.8.9,0,1.3-.3.8-.4,1.2-.8v1.1c-.4.3-.8.5-1.2.6-.4.1-.9.2-1.3.2-1.2,0-2.2-.4-2.9-1.1-.7-.7-1-1.8-1-3s.3-2.3,1-3c.7-.7,1.7-1.1,2.9-1.1s.9,0,1.4.2c.4.1.8.3,1.2.6Z"/>
  </g>
  <g id="text_19" data-name="text 19">
    <path id="DejaVuSans-71-2" data-name="DejaVuSans-71" class="cls-3" d="M191.1,179.7v-2.2h-1.8v-.9h2.8v3.4c-.4.3-.9.5-1.4.7-.5.2-1,.2-1.6.2-1.3,0-2.2-.4-2.9-1.1-.7-.7-1.1-1.8-1.1-3.1s.4-2.3,1.1-3.1c.7-.7,1.7-1.1,2.9-1.1s1,0,1.5.2c.5.1.9.3,1.3.6v1.2c-.4-.3-.8-.6-1.3-.8s-.9-.3-1.4-.3c-1,0-1.7.3-2.2.8-.5.5-.7,1.4-.7,2.4s.2,1.9.7,2.4c.5.5,1.2.8,2.2.8s.7,0,1,0c.3,0,.6-.2.8-.3Z"/>
  </g>
  <g id="text_20" data-name="text 20">
    <path id="DejaVuSans-65-2" data-name="DejaVuSans-65" class="cls-3" d="M199.8,173.9l-1.5,4h2.9l-1.5-4ZM199.2,172.8h1.2l3.1,8h-1.1l-.7-2.1h-3.6l-.7,2.1h-1.1l3.1-8Z"/>
  </g>
  <g id="text_21" data-name="text 21">
    <path id="DejaVuSans-65-3" data-name="DejaVuSans-65" class="cls-3" d="M210.8,173.9l-1.5,4h2.9l-1.5-4ZM210.2,172.8h1.2l3.1,8h-1.1l-.7-2.1h-3.6l-.7,2.1h-1.1l3.1-8Z"/>
  </g>
  <g id="text_22" data-name="text 22">
    <path id="DejaVuSans-65-4" data-name="DejaVuSans-65" class="cls-3" d="M221.9,173.9l-1.5,4h2.9l-1.5-4ZM221.3,172.8h1.2l3.1,8h-1.1l-.7-2.1h-3.6l-.7,2.1h-1.1l3.1-8Z"/>
  </g>
  <g id="text_23" data-name="text 23">
    <path id="DejaVuSans-71-3" data-name="DejaVuSans-71" class="cls-3" d="M235.2,179.7v-2.2h-1.8v-.9h2.8v3.4c-.4.3-.9.5-1.4.7-.5.2-1,.2-1.6.2-1.3,0-2.2-.4-2.9-1.1-.7-.7-1.1-1.8-1.1-3.1s.4-2.3,1.1-3.1c.7-.7,1.7-1.1,2.9-1.1s1,0,1.5.2c.5.1.9.3,1.3.6v1.2c-.4-.3-.8-.6-1.3-.8s-.9-.3-1.4-.3c-1,0-1.7.3-2.2.8-.5.5-.7,1.4-.7,2.4s.2,1.9.7,2.4c.5.5,1.2.8,2.2.8s.7,0,1,0c.3,0,.6-.2.8-.3Z"/>
  </g>
  <g id="text_24" data-name="text 24">
    <path id="DejaVuSans-67-2" data-name="DejaVuSans-67" class="cls-3" d="M235.9,160.1v1.1c-.4-.3-.8-.6-1.2-.8-.4-.2-.9-.3-1.3-.3-.9,0-1.6.3-2.1.8s-.7,1.4-.7,2.4.2,1.9.7,2.4,1.2.8,2.1.8.9,0,1.3-.3.8-.4,1.2-.8v1.1c-.4.3-.8.5-1.2.6-.4.1-.9.2-1.3.2-1.2,0-2.2-.4-2.9-1.1-.7-.7-1-1.8-1-3s.3-2.3,1-3c.7-.7,1.7-1.1,2.9-1.1s.9,0,1.4.2c.4.1.8.3,1.2.6Z"/>
  </g>
  <g id="text_25" data-name="text 25">
    <path id="DejaVuSans-67-3" data-name="DejaVuSans-67" class="cls-3" d="M235.9,147.1v1.1c-.4-.3-.8-.6-1.2-.8-.4-.2-.9-.3-1.3-.3-.9,0-1.6.3-2.1.8s-.7,1.4-.7,2.4.2,1.9.7,2.4,1.2.8,2.1.8.9,0,1.3-.3.8-.4,1.2-.8v1.1c-.4.3-.8.5-1.2.6-.4.1-.9.2-1.3.2-1.2,0-2.2-.4-2.9-1.1-.7-.7-1-1.8-1-3s.3-2.3,1-3c.7-.7,1.7-1.1,2.9-1.1s.9,0,1.4.2c.4.1.8.3,1.2.6Z"/>
  </g>
  <g id="text_26" data-name="text 26">
    <path id="DejaVuSans-67-4" data-name="DejaVuSans-67" class="cls-3" d="M235.9,134.1v1.1c-.4-.3-.8-.6-1.2-.8-.4-.2-.9-.3-1.3-.3-.9,0-1.6.3-2.1.8s-.7,1.4-.7,2.4.2,1.9.7,2.4,1.2.8,2.1.8.9,0,1.3-.3.8-.4,1.2-.8v1.1c-.4.3-.8.5-1.2.6-.4.1-.9.2-1.3.2-1.2,0-2.2-.4-2.9-1.1-.7-.7-1-1.8-1-3s.3-2.3,1-3c.7-.7,1.7-1.1,2.9-1.1s.9,0,1.4.2c.4.1.8.3,1.2.6Z"/>
  </g>
  <g id="text_27" data-name="text 27">
    <path id="DejaVuSans-67-5" data-name="DejaVuSans-67" class="cls-3" d="M235.9,121.1v1.1c-.4-.3-.8-.6-1.2-.8-.4-.2-.9-.3-1.3-.3-.9,0-1.6.3-2.1.8s-.7,1.4-.7,2.4.2,1.9.7,2.4,1.2.8,2.1.8.9,0,1.3-.3.8-.4,1.2-.8v1.1c-.4.3-.8.5-1.2.6-.4.1-.9.2-1.3.2-1.2,0-2.2-.4-2.9-1.1-.7-.7-1-1.8-1-3s.3-2.3,1-3c.7-.7,1.7-1.1,2.9-1.1s.9,0,1.4.2c.4.1.8.3,1.2.6Z"/>
  </g>
  <g id="text_28" data-name="text 28">
    <path id="DejaVuSans-84-3" data-name="DejaVuSans-84" class="cls-3" d="M229.7,109.6h6.8v.9h-2.8v7.1h-1.1v-7.1h-2.8v-.9Z"/>
  </g>
  <g id="text_29" data-name="text 29">
    <path id="DejaVuSans-71-4" data-name="DejaVuSans-71" class="cls-3" d="M235.1,104.2v-2.2h-1.8v-.9h2.8v3.4c-.4.3-.9.5-1.4.7-.5.2-1,.2-1.6.2-1.3,0-2.2-.4-2.9-1.1-.7-.7-1.1-1.8-1.1-3.1s.4-2.3,1.1-3.1c.7-.7,1.7-1.1,2.9-1.1s1,0,1.5.2c.5.1.9.3,1.3.6v1.2c-.4-.3-.8-.6-1.3-.8s-.9-.3-1.4-.3c-1,0-1.7.3-2.2.8-.5.5-.7,1.4-.7,2.4s.2,1.9.7,2.4c.5.5,1.2.8,2.2.8s.7,0,1,0c.3,0,.6-.2.8-.3Z"/>
  </g>
  <g id="text_30" data-name="text 30">
    <path id="DejaVuSans-67-6" data-name="DejaVuSans-67" class="cls-3" d="M235.9,84.7v1.1c-.4-.3-.8-.6-1.2-.8-.4-.2-.9-.3-1.3-.3-.9,0-1.6.3-2.1.8s-.7,1.4-.7,2.4.2,1.9.7,2.4,1.2.8,2.1.8.9,0,1.3-.3.8-.4,1.2-.8v1.1c-.4.3-.8.5-1.2.6-.4.1-.9.2-1.3.2-1.2,0-2.2-.4-2.9-1.1-.7-.7-1-1.8-1-3s.3-2.3,1-3c.7-.7,1.7-1.1,2.9-1.1s.9,0,1.4.2c.4.1.8.3,1.2.6Z"/>
  </g>
  <g id="text_31" data-name="text 31">
    <path id="DejaVuSans-84-4" data-name="DejaVuSans-84" class="cls-3" d="M224,71.9h6.8v.9h-2.8v7.1h-1.1v-7.1h-2.8v-.9Z"/>
  </g>
  <g id="text_32" data-name="text 32">
    <path id="DejaVuSans-65-5" data-name="DejaVuSans-65" class="cls-3" d="M235.2,58.8l-1.5,4h2.9l-1.5-4ZM234.6,57.7h1.2l3.1,8h-1.1l-.7-2.1h-3.6l-.7,2.1h-1.1l3.1-8Z"/>
  </g>
  <g id="text_33" data-name="text 33">
    <path id="DejaVuSans-67-7" data-name="DejaVuSans-67" class="cls-3" d="M251.6,59v1.1c-.4-.3-.8-.6-1.2-.8-.4-.2-.9-.3-1.3-.3-.9,0-1.6.3-2.1.8s-.7,1.4-.7,2.4.2,1.9.7,2.4,1.2.8,2.1.8.9,0,1.3-.3.8-.4,1.2-.8v1.1c-.4.3-.8.5-1.2.6-.4.1-.9.2-1.3.2-1.2,0-2.2-.4-2.9-1.1-.7-.7-1-1.8-1-3s.3-2.3,1-3c.7-.7,1.7-1.1,2.9-1.1s.9,0,1.4.2c.4.1.8.3,1.2.6Z"/>
  </g>
  <g id="text_34" data-name="text 34">
    <path id="DejaVuSans-71-5" data-name="DejaVuSans-71" class="cls-3" d="M256.1,78.8v-2.2h-1.8v-.9h2.8v3.4c-.4.3-.9.5-1.4.7-.5.2-1,.2-1.6.2-1.3,0-2.2-.4-2.9-1.1-.7-.7-1.1-1.8-1.1-3.1s.4-2.3,1.1-3.1c.7-.7,1.7-1.1,2.9-1.1s1,0,1.5.2c.5.1.9.3,1.3.6v1.2c-.4-.3-.8-.6-1.3-.8s-.9-.3-1.4-.3c-1,0-1.7.3-2.2.8-.5.5-.7,1.4-.7,2.4s.2,1.9.7,2.4c.5.5,1.2.8,2.2.8s.7,0,1,0c.3,0,.6-.2.8-.3Z"/>
  </g>
  <g id="text_35" data-name="text 35">
    <path id="DejaVuSans-71-6" data-name="DejaVuSans-71" class="cls-3" d="M249.6,90.3v-2.2h-1.8v-.9h2.8v3.4c-.4.3-.9.5-1.4.7-.5.2-1,.2-1.6.2-1.3,0-2.2-.4-2.9-1.1-.7-.7-1.1-1.8-1.1-3.1s.4-2.3,1.1-3.1c.7-.7,1.7-1.1,2.9-1.1s1,0,1.5.2c.5.1.9.3,1.3.6v1.2c-.4-.3-.8-.6-1.3-.8s-.9-.3-1.4-.3c-1,0-1.7.3-2.2.8-.5.5-.7,1.4-.7,2.4s.2,1.9.7,2.4c.5.5,1.2.8,2.2.8s.7,0,1,0c.3,0,.6-.2.8-.3Z"/>
  </g>
  <g id="text_36" data-name="text 36">
    <path id="DejaVuSans-67-8" data-name="DejaVuSans-67" class="cls-3" d="M250,97.9v1.1c-.4-.3-.8-.6-1.2-.8-.4-.2-.9-.3-1.3-.3-.9,0-1.6.3-2.1.8s-.7,1.4-.7,2.4.2,1.9.7,2.4,1.2.8,2.1.8.9,0,1.3-.3.8-.4,1.2-.8v1.1c-.4.3-.8.5-1.2.6-.4.1-.9.2-1.3.2-1.2,0-2.2-.4-2.9-1.1-.7-.7-1-1.8-1-3s.3-2.3,1-3c.7-.7,1.7-1.1,2.9-1.1s.9,0,1.4.2c.4.1.8.3,1.2.6Z"/>
  </g>
  <g id="text_37" data-name="text 37">
    <path id="DejaVuSans-71-7" data-name="DejaVuSans-71" class="cls-3" d="M249.1,116.4v-2.2h-1.8v-.9h2.8v3.4c-.4.3-.9.5-1.4.7-.5.2-1,.2-1.6.2-1.3,0-2.2-.4-2.9-1.1-.7-.7-1.1-1.8-1.1-3.1s.4-2.3,1.1-3.1c.7-.7,1.7-1.1,2.9-1.1s1,0,1.5.2c.5.1.9.3,1.3.6v1.2c-.4-.3-.8-.6-1.3-.8s-.9-.3-1.4-.3c-1,0-1.7.3-2.2.8-.5.5-.7,1.4-.7,2.4s.2,1.9.7,2.4c.5.5,1.2.8,2.2.8s.7,0,1,0c.3,0,.6-.2.8-.3Z"/>
  </g>
  <g id="text_38" data-name="text 38">
    <path id="DejaVuSans-71-8" data-name="DejaVuSans-71" class="cls-3" d="M248.9,127.5v-2.2h-1.8v-.9h2.8v3.4c-.4.3-.9.5-1.4.7-.5.2-1,.2-1.6.2-1.3,0-2.2-.4-2.9-1.1-.7-.7-1.1-1.8-1.1-3.1s.4-2.3,1.1-3.1c.7-.7,1.7-1.1,2.9-1.1s1,0,1.5.2c.5.1.9.3,1.3.6v1.2c-.4-.3-.8-.6-1.3-.8s-.9-.3-1.4-.3c-1,0-1.7.3-2.2.8-.5.5-.7,1.4-.7,2.4s.2,1.9.7,2.4c.5.5,1.2.8,2.2.8s.7,0,1,0c.3,0,.6-.2.8-.3Z"/>
  </g>
  <g id="text_39" data-name="text 39">
    <path id="DejaVuSans-71-9" data-name="DejaVuSans-71" class="cls-3" d="M249.2,140.3v-2.2h-1.8v-.9h2.8v3.4c-.4.3-.9.5-1.4.7-.5.2-1,.2-1.6.2-1.3,0-2.2-.4-2.9-1.1-.7-.7-1.1-1.8-1.1-3.1s.4-2.3,1.1-3.1c.7-.7,1.7-1.1,2.9-1.1s1,0,1.5.2c.5.1.9.3,1.3.6v1.2c-.4-.3-.8-.6-1.3-.8s-.9-.3-1.4-.3c-1,0-1.7.3-2.2.8-.5.5-.7,1.4-.7,2.4s.2,1.9.7,2.4c.5.5,1.2.8,2.2.8s.7,0,1,0c.3,0,.6-.2.8-.3Z"/>
  </g>
  <g id="text_40" data-name="text 40">
    <path id="DejaVuSans-71-10" data-name="DejaVuSans-71" class="cls-3" d="M248.9,153.3v-2.2h-1.8v-.9h2.8v3.4c-.4.3-.9.5-1.4.7-.5.2-1,.2-1.6.2-1.3,0-2.2-.4-2.9-1.1-.7-.7-1.1-1.8-1.1-3.1s.4-2.3,1.1-3.1c.7-.7,1.7-1.1,2.9-1.1s1,0,1.5.2c.5.1.9.3,1.3.6v1.2c-.4-.3-.8-.6-1.3-.8s-.9-.3-1.4-.3c-1,0-1.7.3-2.2.8-.5.5-.7,1.4-.7,2.4s.2,1.9.7,2.4c.5.5,1.2.8,2.2.8s.7,0,1,0c.3,0,.6-.2.8-.3Z"/>
  </g>
  <g id="text_41" data-name="text 41">
    <path id="DejaVuSans-71-11" data-name="DejaVuSans-71" class="cls-3" d="M248.9,166.3v-2.2h-1.8v-.9h2.8v3.4c-.4.3-.9.5-1.4.7-.5.2-1,.2-1.6.2-1.3,0-2.2-.4-2.9-1.1-.7-.7-1.1-1.8-1.1-3.1s.4-2.3,1.1-3.1c.7-.7,1.7-1.1,2.9-1.1s1,0,1.5.2c.5.1.9.3,1.3.6v1.2c-.4-.3-.8-.6-1.3-.8s-.9-.3-1.4-.3c-1,0-1.7.3-2.2.8-.5.5-.7,1.4-.7,2.4s.2,1.9.7,2.4c.5.5,1.2.8,2.2.8s.7,0,1,0c.3,0,.6-.2.8-.3Z"/>
  </g>
  <g id="text_42" data-name="text 42">
    <path id="DejaVuSans-67-9" data-name="DejaVuSans-67" class="cls-3" d="M249.8,173.4v1.1c-.4-.3-.8-.6-1.2-.8-.4-.2-.9-.3-1.3-.3-.9,0-1.6.3-2.1.8s-.7,1.4-.7,2.4.2,1.9.7,2.4,1.2.8,2.1.8.9,0,1.3-.3.8-.4,1.2-.8v1.1c-.4.3-.8.5-1.2.6-.4.1-.9.2-1.3.2-1.2,0-2.2-.4-2.9-1.1-.7-.7-1-1.8-1-3s.3-2.3,1-3c.7-.7,1.7-1.1,2.9-1.1s.9,0,1.4.2c.4.1.8.3,1.2.6Z"/>
  </g>
  <g id="text_43" data-name="text 43">
    <path id="DejaVuSans-84-5" data-name="DejaVuSans-84" class="cls-3" d="M253.7,172.8h6.8v.9h-2.8v7.1h-1.1v-7.1h-2.8v-.9Z"/>
  </g>
  <g id="text_44" data-name="text 44">
    <path id="DejaVuSans-84-6" data-name="DejaVuSans-84" class="cls-3" d="M264.7,172.8h6.8v.9h-2.8v7.1h-1.1v-7.1h-2.8v-.9Z"/>
  </g>
  <g id="text_45" data-name="text 45">
    <path id="DejaVuSans-84-7" data-name="DejaVuSans-84" class="cls-3" d="M275.8,172.8h6.8v.9h-2.8v7.1h-1.1v-7.1h-2.8v-.9Z"/>
  </g>
  <g id="text_46" data-name="text 46">
    <path id="DejaVuSans-84-8" data-name="DejaVuSans-84" class="cls-3" d="M286.8,172.8h6.8v.9h-2.8v7.1h-1.1v-7.1h-2.8v-.9Z"/>
  </g>
  <g id="text_47" data-name="text 47">
    <path id="DejaVuSans-71-12" data-name="DejaVuSans-71" class="cls-3" d="M303.4,179.7v-2.2h-1.8v-.9h2.8v3.4c-.4.3-.9.5-1.4.7-.5.2-1,.2-1.6.2-1.3,0-2.2-.4-2.9-1.1-.7-.7-1.1-1.8-1.1-3.1s.4-2.3,1.1-3.1c.7-.7,1.7-1.1,2.9-1.1s1,0,1.5.2c.5.1.9.3,1.3.6v1.2c-.4-.3-.8-.6-1.3-.8s-.9-.3-1.4-.3c-1,0-1.7.3-2.2.8-.5.5-.7,1.4-.7,2.4s.2,1.9.7,2.4c.5.5,1.2.8,2.2.8s.7,0,1,0c.3,0,.6-.2.8-.3Z"/>
  </g>
  <g id="text_48" data-name="text 48">
    <path id="DejaVuSans-84-9" data-name="DejaVuSans-84" class="cls-3" d="M308.7,172.8h6.8v.9h-2.8v7.1h-1.1v-7.1h-2.8v-.9Z"/>
  </g>
  <g id="text_49" data-name="text 49">
    <path id="DejaVuSans-67-10" data-name="DejaVuSans-67" class="cls-3" d="M326.4,173.4v1.1c-.4-.3-.8-.6-1.2-.8-.4-.2-.9-.3-1.3-.3-.9,0-1.6.3-2.1.8s-.7,1.4-.7,2.4.2,1.9.7,2.4,1.2.8,2.1.8.9,0,1.3-.3.8-.4,1.2-.8v1.1c-.4.3-.8.5-1.2.6-.4.1-.9.2-1.3.2-1.2,0-2.2-.4-2.9-1.1-.7-.7-1-1.8-1-3s.3-2.3,1-3c.7-.7,1.7-1.1,2.9-1.1s.9,0,1.4.2c.4.1.8.3,1.2.6Z"/>
  </g>
  <g id="text_50" data-name="text 50">
    <path id="DejaVuSans-71-13" data-name="DejaVuSans-71" class="cls-3" d="M336.5,179.7v-2.2h-1.8v-.9h2.8v3.4c-.4.3-.9.5-1.4.7-.5.2-1,.2-1.6.2-1.3,0-2.2-.4-2.9-1.1-.7-.7-1.1-1.8-1.1-3.1s.4-2.3,1.1-3.1c.7-.7,1.7-1.1,2.9-1.1s1,0,1.5.2c.5.1.9.3,1.3.6v1.2c-.4-.3-.8-.6-1.3-.8s-.9-.3-1.4-.3c-1,0-1.7.3-2.2.8-.5.5-.7,1.4-.7,2.4s.2,1.9.7,2.4c.5.5,1.2.8,2.2.8s.7,0,1,0c.3,0,.6-.2.8-.3Z"/>
  </g>
  <g id="text_51" data-name="text 51">
    <path id="DejaVuSans-84-10" data-name="DejaVuSans-84" class="cls-3" d="M341.8,172.8h6.8v.9h-2.8v7.1h-1.1v-7.1h-2.8v-.9Z"/>
  </g>
  <g id="text_52" data-name="text 52">
    <path id="DejaVuSans-71-14" data-name="DejaVuSans-71" class="cls-3" d="M358.5,179.7v-2.2h-1.8v-.9h2.8v3.4c-.4.3-.9.5-1.4.7-.5.2-1,.2-1.6.2-1.3,0-2.2-.4-2.9-1.1-.7-.7-1.1-1.8-1.1-3.1s.4-2.3,1.1-3.1c.7-.7,1.7-1.1,2.9-1.1s1,0,1.5.2c.5.1.9.3,1.3.6v1.2c-.4-.3-.8-.6-1.3-.8s-.9-.3-1.4-.3c-1,0-1.7.3-2.2.8-.5.5-.7,1.4-.7,2.4s.2,1.9.7,2.4c.5.5,1.2.8,2.2.8s.7,0,1,0c.3,0,.6-.2.8-.3Z"/>
  </g>
  <g id="text_53" data-name="text 53">
    <path id="DejaVuSans-84-11" data-name="DejaVuSans-84" class="cls-3" d="M363.9,172.8h6.8v.9h-2.8v7.1h-1.1v-7.1h-2.8v-.9Z"/>
  </g>
  <g id="text_54" data-name="text 54">
    <path id="DejaVuSans-65-6" data-name="DejaVuSans-65" class="cls-3" d="M378.3,173.9l-1.5,4h2.9l-1.5-4ZM377.7,172.8h1.2l3.1,8h-1.1l-.7-2.1h-3.6l-.7,2.1h-1.1l3.1-8Z"/>
  </g>
  <g id="text_55" data-name="text 55">
    <path id="DejaVuSans-67-11" data-name="DejaVuSans-67" class="cls-3" d="M392.6,173.4v1.1c-.4-.3-.8-.6-1.2-.8-.4-.2-.9-.3-1.3-.3-.9,0-1.6.3-2.1.8s-.7,1.4-.7,2.4.2,1.9.7,2.4,1.2.8,2.1.8.9,0,1.3-.3.8-.4,1.2-.8v1.1c-.4.3-.8.5-1.2.6-.4.1-.9.2-1.3.2-1.2,0-2.2-.4-2.9-1.1-.7-.7-1-1.8-1-3s.3-2.3,1-3c.7-.7,1.7-1.1,2.9-1.1s.9,0,1.4.2c.4.1.8.3,1.2.6Z"/>
  </g>
  <g id="text_56" data-name="text 56">
    <path id="DejaVuSans-71-15" data-name="DejaVuSans-71" class="cls-3" d="M402.7,179.7v-2.2h-1.8v-.9h2.8v3.4c-.4.3-.9.5-1.4.7-.5.2-1,.2-1.6.2-1.3,0-2.2-.4-2.9-1.1-.7-.7-1.1-1.8-1.1-3.1s.4-2.3,1.1-3.1c.7-.7,1.7-1.1,2.9-1.1s1,0,1.5.2c.5.1.9.3,1.3.6v1.2c-.4-.3-.8-.6-1.3-.8s-.9-.3-1.4-.3c-1,0-1.7.3-2.2.8-.5.5-.7,1.4-.7,2.4s.2,1.9.7,2.4c.5.5,1.2.8,2.2.8s.7,0,1,0c.3,0,.6-.2.8-.3Z"/>
  </g>
  <g id="text_57" data-name="text 57">
    <path id="DejaVuSans-67-12" data-name="DejaVuSans-67" class="cls-3" d="M414.7,173.4v1.1c-.4-.3-.8-.6-1.2-.8-.4-.2-.9-.3-1.3-.3-.9,0-1.6.3-2.1.8s-.7,1.4-.7,2.4.2,1.9.7,2.4,1.2.8,2.1.8.9,0,1.3-.3.8-.4,1.2-.8v1.1c-.4.3-.8.5-1.2.6-.4.1-.9.2-1.3.2-1.2,0-2.2-.4-2.9-1.1-.7-.7-1-1.8-1-3s.3-2.3,1-3c.7-.7,1.7-1.1,2.9-1.1s.9,0,1.4.2c.4.1.8.3,1.2.6Z"/>
  </g>
  <g id="text_58" data-name="text 58">
    <path id="DejaVuSans-67-13" data-name="DejaVuSans-67" class="cls-3" d="M425.7,173.4v1.1c-.4-.3-.8-.6-1.2-.8-.4-.2-.9-.3-1.3-.3-.9,0-1.6.3-2.1.8s-.7,1.4-.7,2.4.2,1.9.7,2.4,1.2.8,2.1.8.9,0,1.3-.3.8-.4,1.2-.8v1.1c-.4.3-.8.5-1.2.6-.4.1-.9.2-1.3.2-1.2,0-2.2-.4-2.9-1.1-.7-.7-1-1.8-1-3s.3-2.3,1-3c.7-.7,1.7-1.1,2.9-1.1s.9,0,1.4.2c.4.1.8.3,1.2.6Z"/>
  </g>
  <g id="text_59" data-name="text 59">
    <path id="DejaVuSans-67-14" data-name="DejaVuSans-67" class="cls-3" d="M436.7,173.4v1.1c-.4-.3-.8-.6-1.2-.8-.4-.2-.9-.3-1.3-.3-.9,0-1.6.3-2.1.8s-.7,1.4-.7,2.4.2,1.9.7,2.4,1.2.8,2.1.8.9,0,1.3-.3.8-.4,1.2-.8v1.1c-.4.3-.8.5-1.2.6-.4.1-.9.2-1.3.2-1.2,0-2.2-.4-2.9-1.1-.7-.7-1-1.8-1-3s.3-2.3,1-3c.7-.7,1.7-1.1,2.9-1.1s.9,0,1.4.2c.4.1.8.3,1.2.6Z"/>
  </g>
  <line class="cls-1" x1="344.1" y1="10.1" x2="144.3" y2="148.2"/>
  <line class="cls-23" x1="163.1" y1="186" x2="435.7" y2="184.1"/>
  <text class="cls-15" transform="translate(308.6 134.9)"><tspan x="0" y="0">Proposed Intron</tspan><tspan x="30" y="24">Start Site</tspan></text>
  <text class="cls-10" transform="translate(176.3 22.9)"><tspan x="0" y="0">Rho Independent</tspan><tspan x="28.4" y="24">Terminator</tspan></text>
  <text class="cls-8" transform="translate(377.5 268.1)"><tspan x="0" y="0">Group 2 Intron</tspan></text>
  <path id="m0e6b9b55a5-3" data-name="m0e6b9b55a5" class="cls-13" d="M405.4,184.1v-16h32.8v16h-32.8Z"/>
  <g class="cls-42">
    <rect class="cls-5" y="1063" width="468" height="1"/>
  </g>
  <g class="cls-41">
    <rect class="cls-5" y="1063" width="1" height="17"/>
  </g>
  <g class="cls-40">
    <text class="cls-39" transform="translate(3 1076)"><tspan class="cls-19" x="0" y="0">!</tspan><tspan class="cls-57" x="2.5" y="0">&quot;</tspan><tspan class="cls-21" x="6.1" y="0">#</tspan><tspan class="cls-49" x="12" y="0">$</tspan><tspan class="cls-27" x="17.9" y="0">%</tspan><tspan class="cls-24" x="27.1" y="0">&amp;</tspan><tspan class="cls-28" x="34.6" y="0">#</tspan><tspan class="cls-50" x="40.5" y="0">&apos;</tspan><tspan class="cls-22" x="42.7" y="0">(</tspan><tspan class="cls-55" x="46.1" y="0">)</tspan><tspan class="cls-24" x="49.4" y="0">*</tspan><tspan class="cls-53" x="54.6" y="0">+</tspan><tspan class="cls-51" x="61.4" y="0">,</tspan><tspan class="cls-52" x="64.3" y="0">-</tspan><tspan class="cls-53" x="68.3" y="0">./</tspan><tspan class="cls-24" x="74.3" y="0">&amp;</tspan><tspan class="cls-56" x="81.8" y="0">0</tspan><tspan class="cls-22" x="88.3" y="0">(</tspan><tspan class="cls-52" x="91.7" y="0">-</tspan><tspan class="cls-25" x="95.7" y="0">1&amp;</tspan><tspan class="cls-27" x="109.6" y="0">2</tspan><tspan class="cls-26" x="115.4" y="0">3</tspan><tspan class="cls-21" x="121.9" y="0">456</tspan><tspan x="140.1" y="0">7</tspan><tspan class="cls-52" x="146.3" y="0">-</tspan><tspan class="cls-21" x="150.2" y="0">#</tspan><tspan class="cls-49" x="156.1" y="0">$</tspan><tspan class="cls-51" x="161.9" y="0">,</tspan><tspan class="cls-53" x="164.8" y="0">.</tspan><tspan class="cls-24" x="167" y="0">8</tspan><tspan class="cls-22" x="173.4" y="0">(</tspan><tspan class="cls-50" x="176.9" y="0">&apos;</tspan><tspan class="cls-22" x="179.1" y="0">(</tspan><tspan class="cls-54" x="182.5" y="0">-</tspan><tspan class="cls-56" x="186.5" y="0">0</tspan><tspan class="cls-22" x="193" y="0">(</tspan><tspan class="cls-27" x="196.4" y="0">2</tspan><tspan class="cls-49" x="202.3" y="0">$</tspan><tspan class="cls-51" x="208.1" y="0">,</tspan><tspan class="cls-22" x="211" y="0">(</tspan><tspan x="214.4" y="0">9</tspan></text>
  </g>
  <g class="cls-44">
    <rect class="cls-5" y="1063" width="467" height="1"/>
  </g>
  <g class="cls-46">
    <rect class="cls-5" y="1079" width="467" height="1"/>
  </g>
  <g class="cls-45">
    <rect class="cls-5" y="1063" width="1" height="17"/>
  </g>
  <g class="cls-48">
    <rect class="cls-5" x="467" y="1063" width="1" height="17"/>
  </g>
  <g>
    <path class="cls-6" d="M476.8,31.9v-15.7h4.8l2.9,10.7,2.8-10.7h4.8v15.7h-3v-12.4l-3.1,12.4h-3.1l-3.1-12.4v12.4h-3Z"/>
    <path class="cls-6" d="M493.7,20.5h3.2l2.7,8.1,2.7-8.1h3.1l-4,11-.7,2c-.3.7-.5,1.2-.8,1.5-.2.4-.5.6-.8.9-.3.2-.7.4-1.1.5-.5.1-1,.2-1.5.2s-1.1,0-1.7-.2l-.3-2.4c.5,0,.9.1,1.3.1.7,0,1.2-.2,1.6-.6.3-.4.6-.9.8-1.6l-4.3-11.4Z"/>
    <path class="cls-6" d="M517.3,23.8l-3,.5c-.1-.6-.3-1-.7-1.3s-.8-.5-1.4-.5-1.4.3-1.8.8c-.4.5-.7,1.4-.7,2.6s.2,2.3.7,2.9c.5.6,1.1.8,1.8.8s1-.2,1.4-.5c.4-.3.6-.9.8-1.7l3,.5c-.3,1.4-.9,2.4-1.8,3.1s-2,1-3.5,1-3-.5-4-1.6c-1-1.1-1.5-2.5-1.5-4.4s.5-3.3,1.5-4.4c1-1,2.3-1.6,4-1.6s2.5.3,3.3.9c.8.6,1.4,1.5,1.8,2.7Z"/>
    <path class="cls-6" d="M518.9,26c0-1,.2-2,.7-2.9s1.2-1.7,2.1-2.1c.9-.5,1.9-.7,3-.7,1.7,0,3.1.6,4.2,1.7,1.1,1.1,1.7,2.5,1.7,4.2s-.6,3.2-1.7,4.3c-1.1,1.1-2.5,1.7-4.2,1.7s-2-.2-3-.7c-.9-.5-1.7-1.2-2.2-2.1-.5-.9-.7-2-.7-3.3ZM522,26.2c0,1.1.3,2,.8,2.6s1.2.9,2,.9,1.4-.3,2-.9c.5-.6.8-1.5.8-2.6s-.3-2-.8-2.6c-.5-.6-1.2-.9-2-.9s-1.5.3-2,.9-.8,1.5-.8,2.6Z"/>
    <path class="cls-6" d="M532.9,31.9v-15.7h3v5.7c.9-1.1,2-1.6,3.3-1.6s2.5.5,3.4,1.5c.9,1,1.4,2.5,1.4,4.3s-.5,3.4-1.4,4.5c-.9,1.1-2.1,1.6-3.4,1.6s-1.3-.2-1.9-.5c-.6-.3-1.2-.8-1.6-1.4v1.7h-2.8ZM535.9,25.9c0,1.2.2,2.1.6,2.6.5.8,1.2,1.2,2.1,1.2s1.2-.3,1.7-.9c.5-.6.7-1.5.7-2.7s-.2-2.2-.7-2.8c-.5-.6-1.1-.9-1.8-.9s-1.3.3-1.8.8c-.5.6-.7,1.4-.7,2.6Z"/>
    <path class="cls-6" d="M548.7,24l-2.7-.5c.3-1.1.8-1.9,1.6-2.4s1.9-.8,3.4-.8,2.3.2,3,.5c.7.3,1.1.7,1.4,1.2.3.5.4,1.4.4,2.7v3.5c0,1,0,1.7.1,2.2,0,.5.3,1,.5,1.5h-3c0-.2-.2-.5-.3-.9,0-.2,0-.3-.1-.4-.5.5-1.1.9-1.7,1.1s-1.2.4-1.9.4c-1.2,0-2.1-.3-2.8-1s-1-1.4-1-2.4.2-1.2.5-1.7c.3-.5.7-.9,1.3-1.2.6-.3,1.4-.5,2.4-.7,1.4-.3,2.4-.5,2.9-.7v-.3c0-.6-.1-1-.4-1.2-.3-.2-.8-.4-1.6-.4s-1,.1-1.3.3c-.3.2-.5.6-.7,1.1ZM552.7,26.4c-.4.1-1,.3-1.8.5s-1.4.4-1.6.5c-.4.3-.6.6-.6,1.1s.2.8.5,1.1.7.5,1.2.5,1.1-.2,1.6-.5c.4-.3.6-.6.7-1,0-.3.1-.7.1-1.5v-.6Z"/>
    <path class="cls-6" d="M568.6,23.8l-3,.5c-.1-.6-.3-1-.7-1.3s-.8-.5-1.4-.5-1.4.3-1.8.8c-.4.5-.7,1.4-.7,2.6s.2,2.3.7,2.9c.5.6,1.1.8,1.8.8s1-.2,1.4-.5c.4-.3.6-.9.8-1.7l3,.5c-.3,1.4-.9,2.4-1.8,3.1s-2,1-3.5,1-3-.5-4-1.6c-1-1.1-1.5-2.5-1.5-4.4s.5-3.3,1.5-4.4c1-1,2.3-1.6,4-1.6s2.5.3,3.3.9c.8.6,1.4,1.5,1.8,2.7Z"/>
    <path class="cls-6" d="M576.2,20.5v2.4h-2.1v4.6c0,.9,0,1.5,0,1.6,0,.2.1.3.3.4s.3.2.5.2.7,0,1.2-.3l.3,2.3c-.7.3-1.5.5-2.4.5s-1,0-1.5-.3c-.4-.2-.8-.4-1-.7-.2-.3-.3-.7-.4-1.2,0-.4,0-1.1,0-2.1v-5h-1.4v-2.4h1.4v-2.3l3-1.8v4h2.1Z"/>
    <path class="cls-6" d="M584.9,28.3l3,.5c-.4,1.1-1,1.9-1.8,2.5-.8.6-1.9.9-3.1.9-2,0-3.5-.6-4.4-1.9-.8-1-1.1-2.3-1.1-3.9s.5-3.4,1.5-4.4c1-1.1,2.2-1.6,3.7-1.6s3,.6,4,1.7c1,1.1,1.5,2.8,1.4,5.2h-7.6c0,.9.3,1.6.7,2.1.5.5,1,.7,1.7.7s.9-.1,1.2-.4.6-.7.7-1.2ZM585,25.2c0-.9-.2-1.5-.7-2-.4-.5-1-.7-1.6-.7s-1.2.2-1.6.7-.6,1.1-.6,2h4.5Z"/>
    <path class="cls-6" d="M593.4,31.9h-3v-11.4h2.8v1.6c.5-.8.9-1.3,1.3-1.5.4-.2.8-.4,1.3-.4s1.3.2,2,.6l-.9,2.6c-.5-.3-1-.5-1.4-.5s-.8.1-1.1.3c-.3.2-.5.7-.7,1.3-.2.6-.3,1.9-.3,3.8v3.5Z"/>
    <path class="cls-6" d="M599,18.9v-2.8h3v2.8h-3ZM599,31.9v-11.4h3v11.4h-3Z"/>
    <path class="cls-6" d="M612.7,31.9v-1.7c-.4.6-1,1.1-1.6,1.4s-1.4.5-2.1.5-1.5-.2-2.1-.5-1-.8-1.3-1.4-.4-1.5-.4-2.5v-7.2h3v5.2c0,1.6,0,2.6.2,2.9.1.4.3.6.6.9.3.2.7.3,1.1.3s1-.1,1.4-.4c.4-.3.7-.6.8-1.1.2-.4.2-1.4.2-3.1v-4.8h3v11.4h-2.8Z"/>
    <path class="cls-6" d="M618.4,20.5h2.8v1.6c1-1.2,2.2-1.8,3.6-1.8s1.4.2,1.9.5,1,.8,1.3,1.4c.5-.6,1-1.1,1.6-1.4s1.2-.5,1.9-.5,1.5.2,2.1.5c.6.3,1,.8,1.3,1.5.2.5.3,1.3.3,2.4v7.3h-3v-6.5c0-1.1-.1-1.9-.3-2.2-.3-.4-.7-.6-1.3-.6s-.8.1-1.2.4-.6.6-.8,1.1c-.2.5-.2,1.3-.2,2.4v5.5h-3v-6.3c0-1.1,0-1.8-.2-2.1s-.3-.6-.5-.7-.5-.2-.9-.2-.9.1-1.3.4-.6.6-.8,1.1-.2,1.3-.2,2.4v5.5h-3v-11.4Z"/>
    <path class="cls-6" d="M644.2,20.5h2.8v1.7c.4-.6.9-1,1.5-1.4s1.3-.5,2.1-.5c1.3,0,2.4.5,3.4,1.6s1.4,2.5,1.4,4.3-.5,3.4-1.4,4.4c-.9,1.1-2.1,1.6-3.4,1.6s-1.2-.1-1.7-.4c-.5-.3-1.1-.7-1.6-1.3v5.7h-3v-15.7ZM647.2,26c0,1.3.3,2.2.8,2.8.5.6,1.1.9,1.9.9s1.3-.3,1.8-.8c.5-.6.7-1.5.7-2.8s-.2-2.1-.7-2.7-1.1-.9-1.8-.9-1.3.3-1.8.9c-.5.6-.7,1.4-.7,2.5Z"/>
    <path class="cls-6" d="M660.7,16.1v5.8c1-1.1,2.1-1.7,3.5-1.7s1.3.1,1.9.4,1,.6,1.3,1c.3.4.5.8.6,1.3.1.5.2,1.2.2,2.3v6.7h-3v-6c0-1.2,0-2-.2-2.3s-.3-.6-.6-.8c-.3-.2-.7-.3-1.1-.3s-.9.1-1.3.4-.7.6-.9,1.1c-.2.5-.3,1.2-.3,2.2v5.7h-3v-15.7h3Z"/>
    <path class="cls-6" d="M673.4,24l-2.7-.5c.3-1.1.8-1.9,1.6-2.4s1.9-.8,3.4-.8,2.3.2,3,.5c.7.3,1.1.7,1.4,1.2.3.5.4,1.4.4,2.7v3.5c0,1,0,1.7.1,2.2,0,.5.3,1,.5,1.5h-3c0-.2-.2-.5-.3-.9,0-.2,0-.3-.1-.4-.5.5-1.1.9-1.7,1.1s-1.2.4-1.9.4c-1.2,0-2.1-.3-2.8-1s-1-1.4-1-2.4.2-1.2.5-1.7c.3-.5.7-.9,1.3-1.2.6-.3,1.4-.5,2.4-.7,1.4-.3,2.4-.5,2.9-.7v-.3c0-.6-.1-1-.4-1.2-.3-.2-.8-.4-1.6-.4s-1,.1-1.3.3c-.3.2-.5.6-.7,1.1ZM677.4,26.4c-.4.1-1,.3-1.8.5s-1.4.4-1.6.5c-.4.3-.6.6-.6,1.1s.2.8.5,1.1.7.5,1.2.5,1.1-.2,1.6-.5c.4-.3.6-.6.7-1,0-.3.1-.7.1-1.5v-.6Z"/>
    <path class="cls-6" d="M683.1,32.6l3.4.4c0,.4.2.7.4.8.3.2.7.3,1.4.3s1.4-.1,1.8-.4c.3-.2.5-.4.6-.8,0-.3.1-.7.1-1.4v-1.7c-.9,1.2-2,1.8-3.4,1.8s-2.7-.6-3.6-1.9c-.7-1-1.1-2.3-1.1-3.8s.5-3.4,1.4-4.4c.9-1,2.1-1.5,3.4-1.5s2.6.6,3.5,1.9v-1.6h2.8v10.2c0,1.3-.1,2.4-.3,3s-.5,1.2-.9,1.6-.9.7-1.6.9c-.7.2-1.5.3-2.5.3-1.9,0-3.3-.3-4.1-1-.8-.7-1.2-1.5-1.2-2.5s0-.2,0-.4ZM685.8,25.9c0,1.2.2,2.1.7,2.7.5.6,1,.8,1.7.8s1.4-.3,1.9-.9c.5-.6.8-1.4.8-2.6s-.2-2.1-.7-2.6-1.1-.9-1.8-.9-1.3.3-1.8.8c-.5.6-.7,1.4-.7,2.6Z"/>
    <path class="cls-6" d="M703.4,28.3l3,.5c-.4,1.1-1,1.9-1.8,2.5-.8.6-1.9.9-3.1.9-2,0-3.5-.6-4.4-1.9-.8-1-1.1-2.3-1.1-3.9s.5-3.4,1.5-4.4c1-1.1,2.2-1.6,3.7-1.6s3,.6,4,1.7c1,1.1,1.5,2.8,1.4,5.2h-7.6c0,.9.3,1.6.7,2.1.5.5,1,.7,1.7.7s.9-.1,1.2-.4.6-.7.7-1.2ZM703.6,25.2c0-.9-.2-1.5-.7-2-.4-.5-1-.7-1.6-.7s-1.2.2-1.6.7-.6,1.1-.6,2h4.5Z"/>
    <path class="cls-6" d="M715.2,31.9v-15.7h3.1l6.4,10.5v-10.5h3v15.7h-3.2l-6.3-10.3v10.3h-3Z"/>
    <path class="cls-6" d="M733.3,24l-2.7-.5c.3-1.1.8-1.9,1.6-2.4s1.9-.8,3.4-.8,2.3.2,3,.5c.7.3,1.1.7,1.4,1.2.3.5.4,1.4.4,2.7v3.5c0,1,0,1.7.1,2.2,0,.5.3,1,.5,1.5h-3c0-.2-.2-.5-.3-.9,0-.2,0-.3-.1-.4-.5.5-1.1.9-1.7,1.1s-1.2.4-1.9.4c-1.2,0-2.1-.3-2.8-1s-1-1.4-1-2.4.2-1.2.5-1.7c.3-.5.7-.9,1.3-1.2.6-.3,1.4-.5,2.4-.7,1.4-.3,2.4-.5,2.9-.7v-.3c0-.6-.1-1-.4-1.2-.3-.2-.8-.4-1.6-.4s-1,.1-1.3.3c-.3.2-.5.6-.7,1.1ZM737.3,26.4c-.4.1-1,.3-1.8.5s-1.4.4-1.6.5c-.4.3-.6.6-.6,1.1s.2.8.5,1.1.7.5,1.2.5,1.1-.2,1.6-.5c.4-.3.6-.6.7-1,0-.3.1-.7.1-1.5v-.6Z"/>
    <path class="cls-6" d="M753.7,31.9h-3v-5.8c0-1.2,0-2-.2-2.4-.1-.4-.3-.6-.6-.8s-.6-.3-1-.3-1,.1-1.4.4-.7.7-.9,1.1c-.2.5-.2,1.3-.2,2.6v5.2h-3v-11.4h2.8v1.7c1-1.3,2.2-1.9,3.8-1.9s1.3.1,1.8.4c.6.2,1,.5,1.3.9.3.4.5.8.6,1.3.1.5.2,1.1.2,2v7.1Z"/>
    <path class="cls-6" d="M755.5,31.9v-2.4l4.3-4.9c.7-.8,1.2-1.4,1.6-1.7-.4,0-.8,0-1.4,0h-4s0-2.5,0-2.5h9.4v2.1l-4.4,5-1.5,1.7c.8,0,1.4,0,1.6,0h4.7v2.7h-10.2Z"/>
    <path class="cls-6" d="M774.8,31.9h-3v-11.4c-1.1,1-2.4,1.8-3.9,2.3v-2.7c.8-.3,1.6-.7,2.6-1.5.9-.7,1.6-1.6,1.9-2.5h2.4v15.8Z"/>
    <path class="cls-6" d="M779.4,28.2l2.9-.3c0,.6.3,1,.6,1.3s.7.4,1.2.4,1.2-.3,1.6-.9.7-1.8.8-3.6c-.8.9-1.7,1.3-2.8,1.3s-2.3-.5-3.2-1.4c-.9-1-1.3-2.2-1.3-3.7s.5-2.9,1.4-3.9c.9-1,2.2-1.5,3.6-1.5s2.9.6,3.9,1.9c1,1.2,1.5,3.3,1.5,6.1s-.5,5-1.6,6.2-2.5,1.9-4.2,1.9-2.2-.3-3-1c-.8-.7-1.2-1.6-1.5-2.9ZM786.2,21.6c0-1-.2-1.7-.7-2.3-.4-.5-1-.8-1.6-.8s-1,.2-1.4.7c-.4.4-.6,1.2-.6,2.2s.2,1.8.6,2.2c.4.5.9.7,1.5.7s1.1-.2,1.5-.7.6-1.1.6-2Z"/>
    <path class="cls-6" d="M791.6,19.2v-2.8h10.3v2.2c-.9.8-1.7,2-2.6,3.6s-1.6,3.2-2,5c-.5,1.8-.7,3.3-.7,4.7h-2.9c0-2.2.5-4.4,1.3-6.7s2-4.3,3.4-6.1h-6.9Z"/>
    <path class="cls-6" d="M481.2,52.1v-1.8h6.7s0,5.8,0,5.8c-1,.8-2.1,1.4-3.2,1.8-1.1.4-2.2.6-3.4.6s-3-.3-4.2-1c-1.3-.7-2.2-1.6-2.9-2.9s-1-2.7-1-4.2.3-3,1-4.3c.6-1.3,1.6-2.3,2.8-3s2.6-1,4.2-1,2.2.2,3.1.6c.9.4,1.6.9,2.2,1.5s.9,1.5,1.2,2.6l-1.9.5c-.2-.8-.5-1.4-.9-1.9s-.9-.8-1.5-1.1c-.7-.3-1.4-.4-2.2-.4s-1.8.1-2.5.4c-.7.3-1.3.7-1.7,1.1-.4.5-.8,1-1,1.6-.4,1-.6,2-.6,3.2s.2,2.6.7,3.5,1.2,1.6,2.1,2.1,1.9.7,2.9.7,1.8-.2,2.6-.5c.9-.3,1.5-.7,2-1.1v-2.9h-4.6Z"/>
    <path class="cls-6" d="M490.6,58.3v-11.4h1.7v1.7c.4-.8.9-1.3,1.2-1.6s.8-.4,1.2-.4c.7,0,1.3.2,2,.6l-.7,1.8c-.5-.3-.9-.4-1.4-.4s-.8.1-1.1.4c-.3.3-.6.6-.7,1.1-.2.7-.3,1.4-.3,2.3v6h-1.9Z"/>
    <path class="cls-6" d="M497.3,52.6c0-2.1.6-3.7,1.8-4.7,1-.8,2.2-1.3,3.6-1.3s2.9.5,3.8,1.5c1,1,1.5,2.4,1.5,4.3s-.2,2.6-.7,3.5c-.4.8-1.1,1.5-1.9,2-.8.5-1.8.7-2.8.7-1.6,0-2.9-.5-3.9-1.5-1-1-1.5-2.5-1.5-4.4ZM499.2,52.6c0,1.5.3,2.6,1,3.3.6.7,1.4,1.1,2.4,1.1s1.8-.4,2.4-1.1,1-1.8,1-3.3-.3-2.5-1-3.2c-.6-.7-1.4-1.1-2.4-1.1s-1.8.4-2.4,1.1-1,1.8-1,3.3Z"/>
    <path class="cls-6" d="M517.7,58.3v-1.7c-.9,1.3-2.1,1.9-3.6,1.9s-1.3-.1-1.9-.4c-.6-.3-1-.6-1.3-1-.3-.4-.5-.9-.6-1.4,0-.4-.1-1-.1-1.8v-7.1h1.9v6.3c0,1,0,1.7.1,2,.1.5.4.9.8,1.2.4.3.9.4,1.5.4s1.1-.1,1.6-.4c.5-.3.9-.7,1.1-1.2.2-.5.3-1.3.3-2.2v-6.1h1.9v11.4h-1.7Z"/>
    <path class="cls-6" d="M522.5,62.7v-15.8h1.8v1.5c.4-.6.9-1,1.4-1.3.5-.3,1.2-.4,1.9-.4s1.8.3,2.6.8,1.3,1.2,1.7,2.1c.4.9.6,1.9.6,3s-.2,2.2-.6,3.2c-.4.9-1,1.7-1.8,2.1-.8.5-1.6.7-2.5.7s-1.2-.1-1.7-.4c-.5-.3-.9-.6-1.3-1v5.6h-1.9ZM524.2,52.6c0,1.5.3,2.6.9,3.3s1.3,1.1,2.2,1.1,1.6-.4,2.2-1.1c.6-.7.9-1.9.9-3.4s-.3-2.5-.9-3.3c-.6-.7-1.3-1.1-2.1-1.1s-1.6.4-2.2,1.2c-.6.8-1,1.9-1,3.4Z"/>
    <path class="cls-6" d="M541.4,58.3v-15.7h2.1v15.7h-2.1Z"/>
    <path class="cls-6" d="M547.5,58.3v-15.7h2.1v15.7h-2.1Z"/>
    <path class="cls-6" d="M559.7,58.3v-15.7h2.1v15.7h-2.1Z"/>
    <path class="cls-6" d="M565.2,58.3v-11.4h1.7v1.6c.8-1.3,2-1.9,3.6-1.9s1.3.1,1.9.4c.6.2,1,.6,1.3,1s.5.9.6,1.4c0,.4.1,1,.1,1.9v7h-1.9v-6.9c0-.8,0-1.4-.2-1.8-.2-.4-.4-.7-.8-.9-.4-.2-.8-.3-1.3-.3-.8,0-1.5.3-2.1.8-.6.5-.9,1.5-.9,3v6.2h-1.9Z"/>
    <path class="cls-6" d="M581.7,56.6l.3,1.7c-.5.1-1,.2-1.5.2-.7,0-1.2-.1-1.6-.3s-.7-.5-.8-.9c-.2-.4-.2-1.1-.2-2.3v-6.6h-1.4v-1.5h1.4v-2.8l1.9-1.2v4h1.9v1.5h-1.9v6.7c0,.6,0,.9.1,1.1,0,.2.2.3.3.4.2,0,.4.1.7.1s.5,0,.8,0Z"/>
    <path class="cls-6" d="M583.6,58.3v-11.4h1.7v1.7c.4-.8.9-1.3,1.2-1.6s.8-.4,1.2-.4c.7,0,1.3.2,2,.6l-.7,1.8c-.5-.3-.9-.4-1.4-.4s-.8.1-1.1.4c-.3.3-.6.6-.7,1.1-.2.7-.3,1.4-.3,2.3v6h-1.9Z"/>
    <path class="cls-6" d="M590.2,52.6c0-2.1.6-3.7,1.8-4.7,1-.8,2.2-1.3,3.6-1.3s2.9.5,3.8,1.5c1,1,1.5,2.4,1.5,4.3s-.2,2.6-.7,3.5c-.4.8-1.1,1.5-1.9,2-.8.5-1.8.7-2.8.7-1.6,0-2.9-.5-3.9-1.5-1-1-1.5-2.5-1.5-4.4ZM592.2,52.6c0,1.5.3,2.6,1,3.3.6.7,1.4,1.1,2.4,1.1s1.8-.4,2.4-1.1,1-1.8,1-3.3-.3-2.5-1-3.2c-.6-.7-1.4-1.1-2.4-1.1s-1.8.4-2.4,1.1-1,1.8-1,3.3Z"/>
    <path class="cls-6" d="M603.2,58.3v-11.4h1.7v1.6c.8-1.3,2-1.9,3.6-1.9s1.3.1,1.9.4c.6.2,1,.6,1.3,1s.5.9.6,1.4c0,.4.1,1,.1,1.9v7h-1.9v-6.9c0-.8,0-1.4-.2-1.8-.2-.4-.4-.7-.8-.9-.4-.2-.8-.3-1.3-.3-.8,0-1.5.3-2.1.8-.6.5-.9,1.5-.9,3v6.2h-1.9Z"/>
    <path class="cls-6" d="M621.5,44.8v-2.2h1.9v2.2h-1.9ZM621.5,58.3v-11.4h1.9v11.4h-1.9Z"/>
    <path class="cls-6" d="M626.4,58.3v-11.4h1.7v1.6c.8-1.3,2-1.9,3.6-1.9s1.3.1,1.9.4c.6.2,1,.6,1.3,1s.5.9.6,1.4c0,.4.1,1,.1,1.9v7h-1.9v-6.9c0-.8,0-1.4-.2-1.8-.2-.4-.4-.7-.8-.9-.4-.2-.8-.3-1.3-.3-.8,0-1.5.3-2.1.8-.6.5-.9,1.5-.9,3v6.2h-1.9Z"/>
    <path class="cls-6" d="M637.9,54.9l1.9-.3c.1.8.4,1.4.9,1.8.5.4,1.2.6,2.1.6s1.5-.2,2-.5c.4-.4.6-.8.6-1.3s-.2-.8-.6-1c-.3-.2-.9-.4-2-.7-1.4-.4-2.4-.7-2.9-.9-.5-.3-1-.6-1.2-1.1-.3-.5-.4-1-.4-1.5s.1-1,.3-1.4c.2-.4.5-.8,1-1.1.3-.2.7-.4,1.2-.6.5-.2,1.1-.2,1.7-.2.9,0,1.7.1,2.4.4s1.2.6,1.5,1c.3.4.5,1,.7,1.8l-1.9.3c0-.6-.3-1-.7-1.4-.4-.3-1-.5-1.7-.5s-1.5.1-1.9.4-.6.6-.6,1,0,.5.2.7c.2.2.4.4.7.5.2,0,.8.2,1.7.5,1.4.4,2.3.7,2.9.9.5.2,1,.6,1.3,1s.5,1,.5,1.7-.2,1.3-.6,1.8c-.4.6-.9,1-1.6,1.3-.7.3-1.5.5-2.4.5-1.5,0-2.6-.3-3.4-.9-.8-.6-1.3-1.5-1.5-2.7Z"/>
    <path class="cls-6" d="M657.4,54.6l2,.2c-.3,1.2-.9,2.1-1.8,2.7s-1.9,1-3.3,1-3-.5-4-1.5c-1-1-1.5-2.5-1.5-4.3s.5-3.4,1.5-4.5,2.3-1.6,3.8-1.6,2.8.5,3.7,1.6,1.5,2.5,1.5,4.4,0,.3,0,.5h-8.5c0,1.3.4,2.2,1.1,2.9s1.4,1,2.4,1,1.3-.2,1.8-.6.9-1,1.2-1.8ZM651.1,51.5h6.4c0-1-.3-1.7-.7-2.2-.6-.7-1.4-1.1-2.4-1.1s-1.6.3-2.2.9c-.6.6-.9,1.4-1,2.4Z"/>
    <path class="cls-6" d="M661.8,58.3v-11.4h1.7v1.7c.4-.8.9-1.3,1.2-1.6s.8-.4,1.2-.4c.7,0,1.3.2,2,.6l-.7,1.8c-.5-.3-.9-.4-1.4-.4s-.8.1-1.1.4c-.3.3-.6.6-.7,1.1-.2.7-.3,1.4-.3,2.3v6h-1.9Z"/>
    <path class="cls-6" d="M673.4,56.6l.3,1.7c-.5.1-1,.2-1.5.2-.7,0-1.2-.1-1.6-.3s-.7-.5-.8-.9c-.2-.4-.2-1.1-.2-2.3v-6.6h-1.4v-1.5h1.4v-2.8l1.9-1.2v4h1.9v1.5h-1.9v6.7c0,.6,0,.9.1,1.1,0,.2.2.3.3.4.2,0,.4.1.7.1s.5,0,.8,0Z"/>
    <path class="cls-6" d="M683.1,54.6l2,.2c-.3,1.2-.9,2.1-1.8,2.7s-1.9,1-3.3,1-3-.5-4-1.5c-1-1-1.5-2.5-1.5-4.3s.5-3.4,1.5-4.5,2.3-1.6,3.8-1.6,2.8.5,3.7,1.6,1.5,2.5,1.5,4.4,0,.3,0,.5h-8.5c0,1.3.4,2.2,1.1,2.9s1.4,1,2.4,1,1.3-.2,1.8-.6.9-1,1.2-1.8ZM676.8,51.5h6.4c0-1-.3-1.7-.7-2.2-.6-.7-1.4-1.1-2.4-1.1s-1.6.3-2.2.9c-.6.6-.9,1.4-1,2.4Z"/>
    <path class="cls-6" d="M694.9,58.3v-1.4c-.7,1.1-1.8,1.7-3.2,1.7s-1.7-.3-2.5-.8-1.4-1.2-1.8-2.1c-.4-.9-.6-1.9-.6-3.1s.2-2.2.6-3.1c.4-.9.9-1.6,1.7-2.1s1.6-.7,2.5-.7,1.3.1,1.8.4c.5.3,1,.7,1.3,1.1v-5.7h1.9v15.7h-1.8ZM688.8,52.6c0,1.5.3,2.6.9,3.3s1.3,1.1,2.2,1.1,1.6-.3,2.2-1c.6-.7.9-1.7.9-3.2s-.3-2.7-.9-3.4-1.3-1.1-2.2-1.1-1.6.4-2.2,1.1c-.6.7-.9,1.8-.9,3.3Z"/>
    <path class="cls-6" d="M707.7,58.3h-1.8v-15.7h1.9v5.6c.8-1,1.9-1.5,3.1-1.5s1.4.1,2,.4c.6.3,1.1.7,1.5,1.2.4.5.7,1.1,1,1.9s.3,1.5.3,2.3c0,2-.5,3.5-1.5,4.5s-2.1,1.6-3.5,1.6-2.4-.6-3.2-1.7v1.4ZM707.6,52.5c0,1.4.2,2.4.6,3,.6,1,1.4,1.5,2.5,1.5s1.6-.4,2.2-1.1c.6-.7.9-1.8.9-3.3s-.3-2.6-.9-3.3-1.3-1.1-2.1-1.1-1.6.4-2.2,1.1c-.6.7-.9,1.8-.9,3.2Z"/>
    <path class="cls-6" d="M725.9,54.6l2,.2c-.3,1.2-.9,2.1-1.8,2.7s-1.9,1-3.3,1-3-.5-4-1.5c-1-1-1.5-2.5-1.5-4.3s.5-3.4,1.5-4.5,2.3-1.6,3.8-1.6,2.8.5,3.7,1.6,1.5,2.5,1.5,4.4,0,.3,0,.5h-8.5c0,1.3.4,2.2,1.1,2.9s1.4,1,2.4,1,1.3-.2,1.8-.6.9-1,1.2-1.8ZM719.6,51.5h6.4c0-1-.3-1.7-.7-2.2-.6-.7-1.4-1.1-2.4-1.1s-1.6.3-2.2.9c-.6.6-.9,1.4-1,2.4Z"/>
    <path class="cls-6" d="M734.6,56.6l.3,1.7c-.5.1-1,.2-1.5.2-.7,0-1.2-.1-1.6-.3s-.7-.5-.8-.9c-.2-.4-.2-1.1-.2-2.3v-6.6h-1.4v-1.5h1.4v-2.8l1.9-1.2v4h1.9v1.5h-1.9v6.7c0,.6,0,.9.1,1.1,0,.2.2.3.3.4.2,0,.4.1.7.1s.5,0,.8,0Z"/>
    <path class="cls-6" d="M738.6,58.3l-3.5-11.4h2l1.8,6.6.7,2.4c0-.1.2-.9.6-2.4l1.8-6.7h2l1.7,6.6.6,2.2.7-2.2,2-6.6h1.9l-3.6,11.4h-2l-1.8-6.8-.4-1.9-2.3,8.8h-2Z"/>
    <path class="cls-6" d="M760.2,54.6l2,.2c-.3,1.2-.9,2.1-1.8,2.7s-1.9,1-3.3,1-3-.5-4-1.5c-1-1-1.5-2.5-1.5-4.3s.5-3.4,1.5-4.5,2.3-1.6,3.8-1.6,2.8.5,3.7,1.6,1.5,2.5,1.5,4.4,0,.3,0,.5h-8.5c0,1.3.4,2.2,1.1,2.9s1.4,1,2.4,1,1.3-.2,1.8-.6.9-1,1.2-1.8ZM753.8,51.5h6.4c0-1-.3-1.7-.7-2.2-.6-.7-1.4-1.1-2.4-1.1s-1.6.3-2.2.9c-.6.6-.9,1.4-1,2.4Z"/>
    <path class="cls-6" d="M772.4,54.6l2,.2c-.3,1.2-.9,2.1-1.8,2.7s-1.9,1-3.3,1-3-.5-4-1.5c-1-1-1.5-2.5-1.5-4.3s.5-3.4,1.5-4.5,2.3-1.6,3.8-1.6,2.8.5,3.7,1.6,1.5,2.5,1.5,4.4,0,.3,0,.5h-8.5c0,1.3.4,2.2,1.1,2.9s1.4,1,2.4,1,1.3-.2,1.8-.6.9-1,1.2-1.8ZM766.1,51.5h6.4c0-1-.3-1.7-.7-2.2-.6-.7-1.4-1.1-2.4-1.1s-1.6.3-2.2.9c-.6.6-.9,1.4-1,2.4Z"/>
    <path class="cls-6" d="M776.8,58.3v-11.4h1.7v1.6c.8-1.3,2-1.9,3.6-1.9s1.3.1,1.9.4c.6.2,1,.6,1.3,1s.5.9.6,1.4c0,.4.1,1,.1,1.9v7h-1.9v-6.9c0-.8,0-1.4-.2-1.8-.2-.4-.4-.7-.8-.9-.4-.2-.8-.3-1.3-.3-.8,0-1.5.3-2.1.8-.6.5-.9,1.5-.9,3v6.2h-1.9Z"/>
    <path class="cls-6" d="M802.6,56.9c-.7.6-1.4,1-2.1,1.3-.7.3-1.4.4-2.1.4-1.3,0-2.2-.3-2.9-.9-.7-.6-1-1.4-1-2.3s.1-1.1.4-1.5c.3-.5.6-.8,1-1.1.4-.3.9-.5,1.4-.6.4-.1,1-.2,1.7-.3,1.6-.2,2.7-.4,3.4-.7,0-.3,0-.4,0-.5,0-.8-.2-1.3-.5-1.7-.5-.4-1.2-.7-2.2-.7s-1.6.2-2,.5c-.4.3-.8.9-1,1.7l-1.9-.3c.2-.8.5-1.5.8-2,.4-.5,1-.9,1.7-1.2.7-.3,1.6-.4,2.6-.4s1.8.1,2.4.3,1.1.5,1.3.9c.3.3.5.8.6,1.3,0,.3,0,.9,0,1.8v2.6c0,1.8,0,2.9.1,3.4,0,.5.2.9.5,1.4h-2c-.2-.4-.3-.9-.4-1.4ZM802.5,52.6c-.7.3-1.8.5-3.2.7-.8.1-1.4.2-1.7.4s-.6.4-.8.6c-.2.3-.3.6-.3.9,0,.5.2.9.6,1.3.4.3,1,.5,1.7.5s1.4-.2,2-.5c.6-.3,1-.8,1.3-1.3.2-.4.3-1.1.3-1.9v-.7Z"/>
    <path class="cls-6" d="M502.2,83l.3,1.7c-.5.1-1,.2-1.5.2-.7,0-1.2-.1-1.6-.3s-.7-.5-.8-.9c-.2-.4-.2-1.1-.2-2.3v-6.6h-1.4v-1.5h1.4v-2.8l1.9-1.2v4h1.9v1.5h-1.9v6.7c0,.6,0,.9.1,1.1s.2.3.3.4.4.1.7.1.5,0,.8,0Z"/>
    <path class="cls-6" d="M504.1,84.7v-11.4h1.7v1.7c.4-.8.9-1.3,1.2-1.6s.8-.4,1.2-.4c.7,0,1.3.2,2,.6l-.7,1.8c-.5-.3-.9-.4-1.4-.4s-.8.1-1.1.4c-.3.3-.6.6-.7,1.1-.2.7-.3,1.4-.3,2.3v6h-1.9Z"/>
    <path class="cls-6" d="M518.9,83.3c-.7.6-1.4,1-2.1,1.3s-1.4.4-2.1.4c-1.3,0-2.2-.3-2.9-.9-.7-.6-1-1.4-1-2.3s.1-1.1.4-1.5c.3-.5.6-.8,1-1.1s.9-.5,1.4-.6c.4-.1,1-.2,1.7-.3,1.6-.2,2.7-.4,3.4-.7,0-.3,0-.4,0-.5,0-.8-.2-1.3-.5-1.7-.5-.4-1.2-.7-2.2-.7s-1.6.2-2,.5c-.4.3-.8.9-1,1.7l-1.9-.3c.2-.8.5-1.5.8-2,.4-.5,1-.9,1.7-1.2.7-.3,1.6-.4,2.6-.4s1.8.1,2.4.3c.6.2,1.1.5,1.3.9.3.3.5.8.6,1.3,0,.3,0,.9,0,1.8v2.6c0,1.8,0,2.9.1,3.4,0,.5.2.9.5,1.4h-2c-.2-.4-.3-.9-.4-1.4ZM518.7,79c-.7.3-1.8.5-3.2.7-.8.1-1.4.2-1.7.4-.3.1-.6.4-.8.6-.2.3-.3.6-.3.9,0,.5.2.9.6,1.3s1,.5,1.7.5,1.4-.2,2-.5c.6-.3,1-.8,1.3-1.3.2-.4.3-1.1.3-1.9v-.7Z"/>
    <path class="cls-6" d="M523.7,84.7v-11.4h1.7v1.6c.8-1.3,2-1.9,3.6-1.9s1.3.1,1.9.4c.6.2,1,.6,1.3,1,.3.4.5.9.6,1.4,0,.4.1,1,.1,1.9v7h-1.9v-6.9c0-.8,0-1.4-.2-1.8-.2-.4-.4-.7-.8-.9-.4-.2-.8-.3-1.3-.3-.8,0-1.5.3-2.1.8s-.9,1.5-.9,3v6.2h-1.9Z"/>
    <path class="cls-6" d="M535.2,81.3l1.9-.3c.1.8.4,1.4.9,1.8s1.2.6,2.1.6,1.5-.2,2-.5c.4-.4.6-.8.6-1.3s-.2-.8-.6-1c-.3-.2-.9-.4-2-.7-1.4-.4-2.4-.7-2.9-.9-.5-.3-1-.6-1.2-1.1-.3-.5-.4-1-.4-1.5s.1-1,.3-1.4c.2-.4.5-.8,1-1.1.3-.2.7-.4,1.2-.6.5-.2,1.1-.2,1.7-.2.9,0,1.7.1,2.4.4s1.2.6,1.5,1c.3.4.5,1,.7,1.8l-1.9.3c0-.6-.3-1-.7-1.4s-1-.5-1.7-.5-1.5.1-1.9.4c-.4.3-.6.6-.6,1s0,.5.2.7c.2.2.4.4.7.5.2,0,.8.2,1.7.5,1.4.4,2.3.7,2.9.9.5.2,1,.6,1.3,1,.3.4.5,1,.5,1.7s-.2,1.3-.6,1.8c-.4.6-.9,1-1.6,1.3-.7.3-1.5.5-2.4.5-1.5,0-2.6-.3-3.4-.9s-1.3-1.5-1.5-2.7Z"/>
    <path class="cls-6" d="M554.4,80.5l1.9.2c-.2,1.3-.7,2.3-1.6,3.1-.9.7-1.9,1.1-3.2,1.1s-2.8-.5-3.8-1.5c-.9-1-1.4-2.5-1.4-4.4s.2-2.3.6-3.2,1-1.6,1.9-2.1c.8-.5,1.7-.7,2.7-.7s2.3.3,3,.9c.8.6,1.3,1.5,1.5,2.7l-1.9.3c-.2-.8-.5-1.3-1-1.7s-1-.6-1.6-.6c-1,0-1.8.3-2.4,1-.6.7-.9,1.8-.9,3.3s.3,2.6.9,3.3c.6.7,1.4,1,2.3,1s1.4-.2,1.9-.7c.5-.5.8-1.2,1-2.1Z"/>
    <path class="cls-6" d="M557.9,84.7v-11.4h1.7v1.7c.4-.8.9-1.3,1.2-1.6s.8-.4,1.2-.4c.7,0,1.3.2,2,.6l-.7,1.8c-.5-.3-.9-.4-1.4-.4s-.8.1-1.1.4c-.3.3-.6.6-.7,1.1-.2.7-.3,1.4-.3,2.3v6h-1.9Z"/>
    <path class="cls-6" d="M565.3,71.2v-2.2h1.9v2.2h-1.9ZM565.3,84.7v-11.4h1.9v11.4h-1.9Z"/>
    <path class="cls-6" d="M570.1,89.1v-15.8h1.8v1.5c.4-.6.9-1,1.4-1.3.5-.3,1.2-.4,1.9-.4s1.8.3,2.6.8c.7.5,1.3,1.2,1.7,2.1.4.9.6,1.9.6,3s-.2,2.2-.6,3.2c-.4.9-1,1.7-1.8,2.1-.8.5-1.6.7-2.5.7s-1.2-.1-1.7-.4-.9-.6-1.3-1v5.6h-1.9ZM571.9,79c0,1.5.3,2.6.9,3.3.6.7,1.3,1.1,2.2,1.1s1.6-.4,2.2-1.1c.6-.7.9-1.9.9-3.4s-.3-2.5-.9-3.3-1.3-1.1-2.1-1.1-1.6.4-2.2,1.2c-.6.8-1,1.9-1,3.4Z"/>
    <path class="cls-6" d="M586.6,83l.3,1.7c-.5.1-1,.2-1.5.2-.7,0-1.2-.1-1.6-.3s-.7-.5-.8-.9c-.2-.4-.2-1.1-.2-2.3v-6.6h-1.4v-1.5h1.4v-2.8l1.9-1.2v4h1.9v1.5h-1.9v6.7c0,.6,0,.9.1,1.1s.2.3.3.4.4.1.7.1.5,0,.8,0Z"/>
    <path class="cls-6" d="M588.5,71.2v-2.2h1.9v2.2h-1.9ZM588.5,84.7v-11.4h1.9v11.4h-1.9Z"/>
    <path class="cls-6" d="M592.7,79c0-2.1.6-3.7,1.8-4.7,1-.8,2.2-1.3,3.6-1.3s2.8.5,3.8,1.5c1,1,1.5,2.4,1.5,4.3s-.2,2.6-.7,3.5c-.4.8-1.1,1.5-1.9,2s-1.8.7-2.8.7c-1.6,0-2.9-.5-3.9-1.5s-1.5-2.5-1.5-4.4ZM594.6,79c0,1.5.3,2.6,1,3.3.6.7,1.4,1.1,2.4,1.1s1.8-.4,2.4-1.1c.6-.7,1-1.8,1-3.3s-.3-2.5-1-3.2c-.6-.7-1.4-1.1-2.4-1.1s-1.8.4-2.4,1.1c-.6.7-1,1.8-1,3.3Z"/>
    <path class="cls-6" d="M605.6,84.7v-11.4h1.7v1.6c.8-1.3,2-1.9,3.6-1.9s1.3.1,1.9.4c.6.2,1,.6,1.3,1,.3.4.5.9.6,1.4,0,.4.1,1,.1,1.9v7h-1.9v-6.9c0-.8,0-1.4-.2-1.8-.2-.4-.4-.7-.8-.9-.4-.2-.8-.3-1.3-.3-.8,0-1.5.3-2.1.8s-.9,1.5-.9,3v6.2h-1.9Z"/>
    <path class="cls-6" d="M625.3,83.3c-.7.6-1.4,1-2.1,1.3s-1.4.4-2.1.4c-1.3,0-2.2-.3-2.9-.9-.7-.6-1-1.4-1-2.3s.1-1.1.4-1.5c.3-.5.6-.8,1-1.1s.9-.5,1.4-.6c.4-.1,1-.2,1.7-.3,1.6-.2,2.7-.4,3.4-.7,0-.3,0-.4,0-.5,0-.8-.2-1.3-.5-1.7-.5-.4-1.2-.7-2.2-.7s-1.6.2-2,.5c-.4.3-.8.9-1,1.7l-1.9-.3c.2-.8.5-1.5.8-2,.4-.5,1-.9,1.7-1.2.7-.3,1.6-.4,2.6-.4s1.8.1,2.4.3c.6.2,1.1.5,1.3.9.3.3.5.8.6,1.3,0,.3,0,.9,0,1.8v2.6c0,1.8,0,2.9.1,3.4,0,.5.2.9.5,1.4h-2c-.2-.4-.3-.9-.4-1.4ZM625.1,79c-.7.3-1.8.5-3.2.7-.8.1-1.4.2-1.7.4-.3.1-.6.4-.8.6-.2.3-.3.6-.3.9,0,.5.2.9.6,1.3s1,.5,1.7.5,1.4-.2,2-.5c.6-.3,1-.8,1.3-1.3.2-.4.3-1.1.3-1.9v-.7Z"/>
    <path class="cls-6" d="M630,84.7v-15.7h1.9v15.7h-1.9Z"/>
    <path class="cls-6" d="M645.3,83l.3,1.7c-.5.1-1,.2-1.5.2-.7,0-1.2-.1-1.6-.3s-.7-.5-.8-.9c-.2-.4-.2-1.1-.2-2.3v-6.6h-1.4v-1.5h1.4v-2.8l1.9-1.2v4h1.9v1.5h-1.9v6.7c0,.6,0,.9.1,1.1s.2.3.3.4.4.1.7.1.5,0,.8,0Z"/>
    <path class="cls-6" d="M655,81l2,.2c-.3,1.2-.9,2.1-1.8,2.7-.9.6-1.9,1-3.3,1s-3-.5-4-1.5c-1-1-1.5-2.5-1.5-4.3s.5-3.4,1.5-4.5,2.3-1.6,3.8-1.6,2.8.5,3.7,1.6,1.5,2.5,1.5,4.4,0,.3,0,.5h-8.5c0,1.3.4,2.2,1.1,2.9.6.7,1.4,1,2.4,1s1.3-.2,1.8-.6c.5-.4.9-1,1.2-1.8ZM648.7,77.9h6.4c0-1-.3-1.7-.7-2.2-.6-.7-1.4-1.1-2.4-1.1s-1.6.3-2.2.9-.9,1.4-1,2.4Z"/>
    <path class="cls-6" d="M659.4,84.7v-11.4h1.7v1.7c.4-.8.9-1.3,1.2-1.6s.8-.4,1.2-.4c.7,0,1.3.2,2,.6l-.7,1.8c-.5-.3-.9-.4-1.4-.4s-.8.1-1.1.4c-.3.3-.6.6-.7,1.1-.2.7-.3,1.4-.3,2.3v6h-1.9Z"/>
    <path class="cls-6" d="M666.8,84.7v-11.4h1.7v1.6c.4-.6.8-1,1.4-1.3.6-.3,1.3-.5,2-.5s1.5.2,2.1.5.9.8,1.1,1.5c.9-1.3,2.1-2,3.5-2s2,.3,2.6.9c.6.6.9,1.6.9,2.9v7.8h-1.9v-7.2c0-.8,0-1.3-.2-1.7-.1-.3-.4-.6-.7-.8-.3-.2-.7-.3-1.2-.3-.8,0-1.5.3-2,.8-.5.5-.8,1.4-.8,2.6v6.6h-1.9v-7.4c0-.9-.2-1.5-.5-1.9-.3-.4-.8-.6-1.5-.6s-1,.1-1.5.4-.8.7-1,1.3c-.2.6-.3,1.3-.3,2.4v5.9h-1.9Z"/>
    <path class="cls-6" d="M685.1,71.2v-2.2h1.9v2.2h-1.9ZM685.1,84.7v-11.4h1.9v11.4h-1.9Z"/>
    <path class="cls-6" d="M690,84.7v-11.4h1.7v1.6c.8-1.3,2-1.9,3.6-1.9s1.3.1,1.9.4c.6.2,1,.6,1.3,1,.3.4.5.9.6,1.4,0,.4.1,1,.1,1.9v7h-1.9v-6.9c0-.8,0-1.4-.2-1.8-.2-.4-.4-.7-.8-.9-.4-.2-.8-.3-1.3-.3-.8,0-1.5.3-2.1.8s-.9,1.5-.9,3v6.2h-1.9Z"/>
    <path class="cls-6" d="M709.6,83.3c-.7.6-1.4,1-2.1,1.3s-1.4.4-2.1.4c-1.3,0-2.2-.3-2.9-.9-.7-.6-1-1.4-1-2.3s.1-1.1.4-1.5c.3-.5.6-.8,1-1.1s.9-.5,1.4-.6c.4-.1,1-.2,1.7-.3,1.6-.2,2.7-.4,3.4-.7,0-.3,0-.4,0-.5,0-.8-.2-1.3-.5-1.7-.5-.4-1.2-.7-2.2-.7s-1.6.2-2,.5c-.4.3-.8.9-1,1.7l-1.9-.3c.2-.8.5-1.5.8-2,.4-.5,1-.9,1.7-1.2.7-.3,1.6-.4,2.6-.4s1.8.1,2.4.3c.6.2,1.1.5,1.3.9.3.3.5.8.6,1.3,0,.3,0,.9,0,1.8v2.6c0,1.8,0,2.9.1,3.4,0,.5.2.9.5,1.4h-2c-.2-.4-.3-.9-.4-1.4ZM709.5,79c-.7.3-1.8.5-3.2.7-.8.1-1.4.2-1.7.4-.3.1-.6.4-.8.6-.2.3-.3.6-.3.9,0,.5.2.9.6,1.3s1,.5,1.7.5,1.4-.2,2-.5c.6-.3,1-.8,1.3-1.3.2-.4.3-1.1.3-1.9v-.7Z"/>
    <path class="cls-6" d="M718.7,83l.3,1.7c-.5.1-1,.2-1.5.2-.7,0-1.2-.1-1.6-.3s-.7-.5-.8-.9c-.2-.4-.2-1.1-.2-2.3v-6.6h-1.4v-1.5h1.4v-2.8l1.9-1.2v4h1.9v1.5h-1.9v6.7c0,.6,0,.9.1,1.1s.2.3.3.4.4.1.7.1.5,0,.8,0Z"/>
    <path class="cls-6" d="M719.8,79c0-2.1.6-3.7,1.8-4.7,1-.8,2.2-1.3,3.6-1.3s2.8.5,3.8,1.5c1,1,1.5,2.4,1.5,4.3s-.2,2.6-.7,3.5c-.4.8-1.1,1.5-1.9,2s-1.8.7-2.8.7c-1.6,0-2.9-.5-3.9-1.5s-1.5-2.5-1.5-4.4ZM721.8,79c0,1.5.3,2.6,1,3.3.6.7,1.4,1.1,2.4,1.1s1.8-.4,2.4-1.1c.6-.7,1-1.8,1-3.3s-.3-2.5-1-3.2c-.6-.7-1.4-1.1-2.4-1.1s-1.8.4-2.4,1.1c-.6.7-1,1.8-1,3.3Z"/>
    <path class="cls-6" d="M732.8,84.7v-11.4h1.7v1.7c.4-.8.9-1.3,1.2-1.6s.8-.4,1.2-.4c.7,0,1.3.2,2,.6l-.7,1.8c-.5-.3-.9-.4-1.4-.4s-.8.1-1.1.4c-.3.3-.6.6-.7,1.1-.2.7-.3,1.4-.3,2.3v6h-1.9Z"/>
    <path class="cls-6" d="M753.7,83.3c-.7.6-1.4,1-2.1,1.3s-1.4.4-2.1.4c-1.3,0-2.2-.3-2.9-.9-.7-.6-1-1.4-1-2.3s.1-1.1.4-1.5c.3-.5.6-.8,1-1.1s.9-.5,1.4-.6c.4-.1,1-.2,1.7-.3,1.6-.2,2.7-.4,3.4-.7,0-.3,0-.4,0-.5,0-.8-.2-1.3-.5-1.7-.5-.4-1.2-.7-2.2-.7s-1.6.2-2,.5c-.4.3-.8.9-1,1.7l-1.9-.3c.2-.8.5-1.5.8-2,.4-.5,1-.9,1.7-1.2.7-.3,1.6-.4,2.6-.4s1.8.1,2.4.3c.6.2,1.1.5,1.3.9.3.3.5.8.6,1.3,0,.3,0,.9,0,1.8v2.6c0,1.8,0,2.9.1,3.4,0,.5.2.9.5,1.4h-2c-.2-.4-.3-.9-.4-1.4ZM753.5,79c-.7.3-1.8.5-3.2.7-.8.1-1.4.2-1.7.4-.3.1-.6.4-.8.6-.2.3-.3.6-.3.9,0,.5.2.9.6,1.3s1,.5,1.7.5,1.4-.2,2-.5c.6-.3,1-.8,1.3-1.3.2-.4.3-1.1.3-1.9v-.7Z"/>
    <path class="cls-6" d="M758.5,84.7v-11.4h1.7v1.6c.8-1.3,2-1.9,3.6-1.9s1.3.1,1.9.4c.6.2,1,.6,1.3,1,.3.4.5.9.6,1.4,0,.4.1,1,.1,1.9v7h-1.9v-6.9c0-.8,0-1.4-.2-1.8-.2-.4-.4-.7-.8-.9-.4-.2-.8-.3-1.3-.3-.8,0-1.5.3-2.1.8s-.9,1.5-.9,3v6.2h-1.9Z"/>
    <path class="cls-6" d="M778.1,84.7v-1.4c-.7,1.1-1.8,1.7-3.2,1.7s-1.7-.3-2.5-.8-1.4-1.2-1.8-2.1c-.4-.9-.6-1.9-.6-3.1s.2-2.2.6-3.1c.4-.9.9-1.6,1.7-2.1.8-.5,1.6-.7,2.5-.7s1.3.1,1.8.4c.5.3,1,.7,1.3,1.1v-5.7h1.9v15.7h-1.8ZM772,79c0,1.5.3,2.6.9,3.3.6.7,1.3,1.1,2.2,1.1s1.6-.3,2.2-1c.6-.7.9-1.7.9-3.2s-.3-2.7-.9-3.4-1.3-1.1-2.2-1.1-1.6.4-2.2,1.1-.9,1.8-.9,3.3Z"/>
    <path class="cls-6" d="M467.4,115.5v-15.8h1.8v1.5c.4-.6.9-1,1.4-1.3.5-.3,1.2-.4,1.9-.4s1.8.3,2.6.8,1.3,1.2,1.7,2.1c.4.9.6,1.9.6,3s-.2,2.2-.6,3.2c-.4.9-1,1.7-1.8,2.1-.8.5-1.6.7-2.5.7s-1.2-.1-1.7-.4c-.5-.3-.9-.6-1.3-1v5.6h-1.9ZM469.2,105.4c0,1.5.3,2.6.9,3.3s1.3,1.1,2.2,1.1,1.6-.4,2.2-1.1c.6-.7.9-1.9.9-3.4s-.3-2.5-.9-3.3c-.6-.7-1.3-1.1-2.1-1.1s-1.6.4-2.2,1.2c-.6.8-1,1.9-1,3.4Z"/>
    <path class="cls-6" d="M478.9,107.7l1.9-.3c.1.8.4,1.4.9,1.8.5.4,1.2.6,2.1.6s1.5-.2,2-.5c.4-.4.6-.8.6-1.3s-.2-.8-.6-1c-.3-.2-.9-.4-2-.7-1.4-.4-2.4-.7-2.9-.9-.5-.3-1-.6-1.2-1.1-.3-.5-.4-1-.4-1.5s.1-1,.3-1.4c.2-.4.5-.8,1-1.1.3-.2.7-.4,1.2-.6.5-.2,1.1-.2,1.7-.2.9,0,1.7.1,2.4.4s1.2.6,1.5,1c.3.4.5,1,.7,1.8l-1.9.3c0-.6-.3-1-.7-1.4-.4-.3-1-.5-1.7-.5s-1.5.1-1.9.4-.6.6-.6,1,0,.5.2.7c.2.2.4.4.7.5.2,0,.8.2,1.7.5,1.4.4,2.3.7,2.9.9.5.2,1,.6,1.3,1s.5,1,.5,1.7-.2,1.3-.6,1.8c-.4.6-.9,1-1.6,1.3-.7.3-1.5.5-2.4.5-1.5,0-2.6-.3-3.4-.9-.8-.6-1.3-1.5-1.5-2.7Z"/>
    <path class="cls-6" d="M498.5,107.4l2,.2c-.3,1.2-.9,2.1-1.8,2.7s-1.9,1-3.3,1-3-.5-4-1.5c-1-1-1.5-2.5-1.5-4.3s.5-3.4,1.5-4.5,2.3-1.6,3.8-1.6,2.8.5,3.7,1.6,1.5,2.5,1.5,4.4,0,.3,0,.5h-8.5c0,1.3.4,2.2,1.1,2.9s1.4,1,2.4,1,1.3-.2,1.8-.6.9-1,1.2-1.8ZM492.1,104.3h6.4c0-1-.3-1.7-.7-2.2-.6-.7-1.4-1.1-2.4-1.1s-1.6.3-2.2.9c-.6.6-.9,1.4-1,2.4Z"/>
    <path class="cls-6" d="M510.4,111.1v-1.7c-.9,1.3-2.1,1.9-3.6,1.9s-1.3-.1-1.9-.4c-.6-.3-1-.6-1.3-1-.3-.4-.5-.9-.6-1.4,0-.4-.1-1-.1-1.8v-7.1h1.9v6.3c0,1,0,1.7.1,2,.1.5.4.9.8,1.2.4.3.9.4,1.5.4s1.1-.1,1.6-.4c.5-.3.9-.7,1.1-1.2.2-.5.3-1.3.3-2.2v-6.1h1.9v11.4h-1.7Z"/>
    <path class="cls-6" d="M522.5,111.1v-1.4c-.7,1.1-1.8,1.7-3.2,1.7s-1.7-.3-2.5-.8-1.4-1.2-1.8-2.1c-.4-.9-.6-1.9-.6-3.1s.2-2.2.6-3.1c.4-.9.9-1.6,1.7-2.1s1.6-.7,2.5-.7,1.3.1,1.8.4c.5.3,1,.7,1.3,1.1v-5.7h1.9v15.7h-1.8ZM516.4,105.4c0,1.5.3,2.6.9,3.3s1.3,1.1,2.2,1.1,1.6-.3,2.2-1c.6-.7.9-1.7.9-3.2s-.3-2.7-.9-3.4-1.3-1.1-2.2-1.1-1.6.4-2.2,1.1c-.6.7-.9,1.8-.9,3.3Z"/>
    <path class="cls-6" d="M526.6,105.4c0-2.1.6-3.7,1.8-4.7,1-.8,2.2-1.3,3.6-1.3s2.9.5,3.8,1.5c1,1,1.5,2.4,1.5,4.3s-.2,2.6-.7,3.5c-.4.8-1.1,1.5-1.9,2-.8.5-1.8.7-2.8.7-1.6,0-2.9-.5-3.9-1.5-1-1-1.5-2.5-1.5-4.4ZM528.6,105.4c0,1.5.3,2.6,1,3.3.6.7,1.4,1.1,2.4,1.1s1.8-.4,2.4-1.1,1-1.8,1-3.3-.3-2.5-1-3.2c-.6-.7-1.4-1.1-2.4-1.1s-1.8.4-2.4,1.1-1,1.8-1,3.3Z"/>
    <path class="cls-6" d="M539.2,112l1.9.3c0,.6.3,1,.7,1.3.5.4,1.1.5,2,.5s1.6-.2,2.1-.5.8-.9,1-1.5c.1-.4.1-1.2.1-2.5-.8,1-1.9,1.5-3.2,1.5s-2.8-.6-3.6-1.7-1.3-2.5-1.3-4.1.2-2.1.6-3c.4-.9,1-1.6,1.7-2.1.7-.5,1.6-.8,2.6-.8s2.5.5,3.3,1.6v-1.4h1.8v9.9c0,1.8-.2,3-.5,3.8-.4.7-.9,1.3-1.7,1.8s-1.8.6-2.9.6-2.5-.3-3.3-.9c-.8-.6-1.2-1.5-1.2-2.8ZM540.8,105.2c0,1.5.3,2.6.9,3.3s1.3,1,2.2,1,1.6-.3,2.2-1c.6-.7.9-1.8.9-3.2s-.3-2.4-.9-3.2c-.6-.7-1.4-1.1-2.2-1.1s-1.6.3-2.2,1c-.6.7-.9,1.7-.9,3.1Z"/>
    <path class="cls-6" d="M559.6,107.4l2,.2c-.3,1.2-.9,2.1-1.8,2.7s-1.9,1-3.3,1-3-.5-4-1.5c-1-1-1.5-2.5-1.5-4.3s.5-3.4,1.5-4.5,2.3-1.6,3.8-1.6,2.8.5,3.7,1.6,1.5,2.5,1.5,4.4,0,.3,0,.5h-8.5c0,1.3.4,2.2,1.1,2.9s1.4,1,2.4,1,1.3-.2,1.8-.6.9-1,1.2-1.8ZM553.3,104.3h6.4c0-1-.3-1.7-.7-2.2-.6-.7-1.4-1.1-2.4-1.1s-1.6.3-2.2.9c-.6.6-.9,1.4-1,2.4Z"/>
    <path class="cls-6" d="M564.1,111.1v-11.4h1.7v1.6c.8-1.3,2-1.9,3.6-1.9s1.3.1,1.9.4c.6.2,1,.6,1.3,1s.5.9.6,1.4c0,.4.1,1,.1,1.9v7h-1.9v-6.9c0-.8,0-1.4-.2-1.8-.2-.4-.4-.7-.8-.9-.4-.2-.8-.3-1.3-.3-.8,0-1.5.3-2.1.8-.6.5-.9,1.5-.9,3v6.2h-1.9Z"/>
    <path class="cls-6" d="M576.3,97.6v-2.2h1.9v2.2h-1.9ZM576.3,111.1v-11.4h1.9v11.4h-1.9Z"/>
    <path class="cls-6" d="M580.2,111.1v-1.6l7.3-8.3c-.8,0-1.6,0-2.2,0h-4.7v-1.6h9.3v1.3l-6.2,7.2-1.2,1.3c.9,0,1.7,0,2.4,0h5.3v1.7h-10.1Z"/>
    <path class="cls-6" d="M600,107.4l2,.2c-.3,1.2-.9,2.1-1.8,2.7s-1.9,1-3.3,1-3-.5-4-1.5c-1-1-1.5-2.5-1.5-4.3s.5-3.4,1.5-4.5,2.3-1.6,3.8-1.6,2.8.5,3.7,1.6,1.5,2.5,1.5,4.4,0,.3,0,.5h-8.5c0,1.3.4,2.2,1.1,2.9s1.4,1,2.4,1,1.3-.2,1.8-.6.9-1,1.2-1.8ZM593.6,104.3h6.4c0-1-.3-1.7-.7-2.2-.6-.7-1.4-1.1-2.4-1.1s-1.6.3-2.2.9c-.6.6-.9,1.4-1,2.4Z"/>
    <path class="cls-6" d="M611.8,111.1v-1.4c-.7,1.1-1.8,1.7-3.2,1.7s-1.7-.3-2.5-.8-1.4-1.2-1.8-2.1c-.4-.9-.6-1.9-.6-3.1s.2-2.2.6-3.1c.4-.9.9-1.6,1.7-2.1s1.6-.7,2.5-.7,1.3.1,1.8.4c.5.3,1,.7,1.3,1.1v-5.7h1.9v15.7h-1.8ZM605.7,105.4c0,1.5.3,2.6.9,3.3s1.3,1.1,2.2,1.1,1.6-.3,2.2-1c.6-.7.9-1.7.9-3.2s-.3-2.7-.9-3.4-1.3-1.1-2.2-1.1-1.6.4-2.2,1.1c-.6.7-.9,1.8-.9,3.3Z"/>
    <path class="cls-6" d="M623.1,111.1v-15.7h2.1v6.5h8.2v-6.5h2.1v15.7h-2.1v-7.4h-8.2v7.4h-2.1Z"/>
    <path class="cls-6" d="M638.9,111.1v-15.7h2.1l8.3,12.4v-12.4h2v15.7h-2.1l-8.3-12.4v12.4h-2Z"/>
    <path class="cls-6" d="M654.8,111.1v-15.7h2.1v6.5h8.2v-6.5h2.1v15.7h-2.1v-7.4h-8.2v7.4h-2.1Z"/>
    <path class="cls-6" d="M684.3,107.4l2,.2c-.3,1.2-.9,2.1-1.8,2.7s-1.9,1-3.3,1-3-.5-4-1.5c-1-1-1.5-2.5-1.5-4.3s.5-3.4,1.5-4.5,2.3-1.6,3.8-1.6,2.8.5,3.7,1.6,1.5,2.5,1.5,4.4,0,.3,0,.5h-8.5c0,1.3.4,2.2,1.1,2.9s1.4,1,2.4,1,1.3-.2,1.8-.6.9-1,1.2-1.8ZM678,104.3h6.4c0-1-.3-1.7-.7-2.2-.6-.7-1.4-1.1-2.4-1.1s-1.6.3-2.2.9c-.6.6-.9,1.4-1,2.4Z"/>
    <path class="cls-6" d="M688.8,111.1v-11.4h1.7v1.6c.8-1.3,2-1.9,3.6-1.9s1.3.1,1.9.4c.6.2,1,.6,1.3,1s.5.9.6,1.4c0,.4.1,1,.1,1.9v7h-1.9v-6.9c0-.8,0-1.4-.2-1.8-.2-.4-.4-.7-.8-.9-.4-.2-.8-.3-1.3-.3-.8,0-1.5.3-2.1.8-.6.5-.9,1.5-.9,3v6.2h-1.9Z"/>
    <path class="cls-6" d="M708.4,111.1v-1.4c-.7,1.1-1.8,1.7-3.2,1.7s-1.7-.3-2.5-.8-1.4-1.2-1.8-2.1c-.4-.9-.6-1.9-.6-3.1s.2-2.2.6-3.1c.4-.9.9-1.6,1.7-2.1s1.6-.7,2.5-.7,1.3.1,1.8.4c.5.3,1,.7,1.3,1.1v-5.7h1.9v15.7h-1.8ZM702.3,105.4c0,1.5.3,2.6.9,3.3s1.3,1.1,2.2,1.1,1.6-.3,2.2-1c.6-.7.9-1.7.9-3.2s-.3-2.7-.9-3.4-1.3-1.1-2.2-1.1-1.6.4-2.2,1.1c-.6.7-.9,1.8-.9,3.3Z"/>
    <path class="cls-6" d="M712.5,105.4c0-2.1.6-3.7,1.8-4.7,1-.8,2.2-1.3,3.6-1.3s2.9.5,3.8,1.5c1,1,1.5,2.4,1.5,4.3s-.2,2.6-.7,3.5c-.4.8-1.1,1.5-1.9,2-.8.5-1.8.7-2.8.7-1.6,0-2.9-.5-3.9-1.5-1-1-1.5-2.5-1.5-4.4ZM714.5,105.4c0,1.5.3,2.6,1,3.3.6.7,1.4,1.1,2.4,1.1s1.8-.4,2.4-1.1,1-1.8,1-3.3-.3-2.5-1-3.2c-.6-.7-1.4-1.1-2.4-1.1s-1.8.4-2.4,1.1-1,1.8-1,3.3Z"/>
    <path class="cls-6" d="M725.5,111.1v-11.4h1.7v1.6c.8-1.3,2-1.9,3.6-1.9s1.3.1,1.9.4c.6.2,1,.6,1.3,1s.5.9.6,1.4c0,.4.1,1,.1,1.9v7h-1.9v-6.9c0-.8,0-1.4-.2-1.8-.2-.4-.4-.7-.8-.9-.4-.2-.8-.3-1.3-.3-.8,0-1.5.3-2.1.8-.6.5-.9,1.5-.9,3v6.2h-1.9Z"/>
    <path class="cls-6" d="M745.2,111.1v-1.7c-.9,1.3-2.1,1.9-3.6,1.9s-1.3-.1-1.9-.4c-.6-.3-1-.6-1.3-1-.3-.4-.5-.9-.6-1.4,0-.4-.1-1-.1-1.8v-7.1h1.9v6.3c0,1,0,1.7.1,2,.1.5.4.9.8,1.2.4.3.9.4,1.5.4s1.1-.1,1.6-.4c.5-.3.9-.7,1.1-1.2.2-.5.3-1.3.3-2.2v-6.1h1.9v11.4h-1.7Z"/>
    <path class="cls-6" d="M757.4,106.9l1.9.2c-.2,1.3-.7,2.3-1.6,3.1-.9.7-1.9,1.1-3.2,1.1s-2.8-.5-3.8-1.5c-.9-1-1.4-2.5-1.4-4.4s.2-2.3.6-3.2,1-1.6,1.9-2.1c.8-.5,1.7-.7,2.7-.7s2.3.3,3,.9c.8.6,1.3,1.5,1.5,2.7l-1.9.3c-.2-.8-.5-1.3-1-1.7-.5-.4-1-.6-1.6-.6-1,0-1.8.3-2.4,1-.6.7-.9,1.8-.9,3.3s.3,2.6.9,3.3,1.4,1,2.3,1,1.4-.2,1.9-.7.8-1.2,1-2.1Z"/>
    <path class="cls-6" d="M760.9,111.1v-15.7h1.9v15.7h-1.9Z"/>
    <path class="cls-6" d="M773.6,107.4l2,.2c-.3,1.2-.9,2.1-1.8,2.7s-1.9,1-3.3,1-3-.5-4-1.5c-1-1-1.5-2.5-1.5-4.3s.5-3.4,1.5-4.5,2.3-1.6,3.8-1.6,2.8.5,3.7,1.6,1.5,2.5,1.5,4.4,0,.3,0,.5h-8.5c0,1.3.4,2.2,1.1,2.9s1.4,1,2.4,1,1.3-.2,1.8-.6.9-1,1.2-1.8ZM767.3,104.3h6.4c0-1-.3-1.7-.7-2.2-.6-.7-1.4-1.1-2.4-1.1s-1.6.3-2.2.9c-.6.6-.9,1.4-1,2.4Z"/>
    <path class="cls-6" d="M785.5,109.7c-.7.6-1.4,1-2.1,1.3-.7.3-1.4.4-2.1.4-1.3,0-2.2-.3-2.9-.9-.7-.6-1-1.4-1-2.3s.1-1.1.4-1.5c.3-.5.6-.8,1-1.1.4-.3.9-.5,1.4-.6.4-.1,1-.2,1.7-.3,1.6-.2,2.7-.4,3.4-.7,0-.3,0-.4,0-.5,0-.8-.2-1.3-.5-1.7-.5-.4-1.2-.7-2.2-.7s-1.6.2-2,.5c-.4.3-.8.9-1,1.7l-1.9-.3c.2-.8.5-1.5.8-2,.4-.5,1-.9,1.7-1.2.7-.3,1.6-.4,2.6-.4s1.8.1,2.4.3,1.1.5,1.3.9c.3.3.5.8.6,1.3,0,.3,0,.9,0,1.8v2.6c0,1.8,0,2.9.1,3.4,0,.5.2.9.5,1.4h-2c-.2-.4-.3-.9-.4-1.4ZM785.4,105.4c-.7.3-1.8.5-3.2.7-.8.1-1.4.2-1.7.4s-.6.4-.8.6c-.2.3-.3.6-.3.9,0,.5.2.9.6,1.3.4.3,1,.5,1.7.5s1.4-.2,2-.5c.6-.3,1-.8,1.3-1.3.2-.4.3-1.1.3-1.9v-.7Z"/>
    <path class="cls-6" d="M789.5,107.7l1.9-.3c.1.8.4,1.4.9,1.8.5.4,1.2.6,2.1.6s1.5-.2,2-.5c.4-.4.6-.8.6-1.3s-.2-.8-.6-1c-.3-.2-.9-.4-2-.7-1.4-.4-2.4-.7-2.9-.9-.5-.3-1-.6-1.2-1.1-.3-.5-.4-1-.4-1.5s.1-1,.3-1.4c.2-.4.5-.8,1-1.1.3-.2.7-.4,1.2-.6.5-.2,1.1-.2,1.7-.2.9,0,1.7.1,2.4.4s1.2.6,1.5,1c.3.4.5,1,.7,1.8l-1.9.3c0-.6-.3-1-.7-1.4-.4-.3-1-.5-1.7-.5s-1.5.1-1.9.4-.6.6-.6,1,0,.5.2.7c.2.2.4.4.7.5.2,0,.8.2,1.7.5,1.4.4,2.3.7,2.9.9.5.2,1,.6,1.3,1s.5,1,.5,1.7-.2,1.3-.6,1.8c-.4.6-.9,1-1.6,1.3-.7.3-1.5.5-2.4.5-1.5,0-2.6-.3-3.4-.9-.8-.6-1.3-1.5-1.5-2.7Z"/>
    <path class="cls-6" d="M809.1,107.4l2,.2c-.3,1.2-.9,2.1-1.8,2.7s-1.9,1-3.3,1-3-.5-4-1.5c-1-1-1.5-2.5-1.5-4.3s.5-3.4,1.5-4.5,2.3-1.6,3.8-1.6,2.8.5,3.7,1.6,1.5,2.5,1.5,4.4,0,.3,0,.5h-8.5c0,1.3.4,2.2,1.1,2.9s1.4,1,2.4,1,1.3-.2,1.8-.6.9-1,1.2-1.8ZM802.8,104.3h6.4c0-1-.3-1.7-.7-2.2-.6-.7-1.4-1.1-2.4-1.1s-1.6.3-2.2.9c-.6.6-.9,1.4-1,2.4Z"/>
  </g>
  <text class="cls-38" transform="translate(218.2 287.6)"><tspan x="0" y="0">1</tspan></text>
  <text class="cls-38" transform="translate(677.5 287.8)"><tspan x="0" y="0">2</tspan></text>
  <text class="cls-38" transform="translate(770 287.6)"><tspan x="0" y="0">3</tspan></text>
</svg>