<?xml version="1.0" encoding="utf-8" standalone="no"?>
<!DOCTYPE svg PUBLIC "-//W3C//DTD SVG 1.1//EN"
  "http://www.w3.org/Graphics/SVG/1.1/DTD/svg11.dtd">
<!-- Created with matplotlib (https://matplotlib.org/) -->
<svg height="720pt" version="1.1" viewBox="0 0 720 720" width="720pt" xmlns="http://www.w3.org/2000/svg" xmlns:xlink="http://www.w3.org/1999/xlink">
 <defs>
  <style type="text/css">
*{stroke-linecap:butt;stroke-linejoin:round;}
  </style>
 </defs>
 <g id="figure_1">
  <g id="patch_1">
   <path d="M 0 720 
L 720 720 
L 720 0 
L 0 0 
z
" style="fill:#ffffff;"/>
  </g>
  <g id="axes_1">
   <g id="patch_2">
    <path clip-path="url(#p4f656d4ae0)" d="M 369 493.537686 
C 404.891974 493.537686 439.318737 479.277654 464.698195 453.898195 
C 490.077654 428.518737 504.337686 394.091974 504.337686 358.2 
C 504.337686 322.308026 490.077654 287.881263 464.698195 262.501805 
C 439.318737 237.122346 404.891974 222.862314 369 222.862314 
C 333.108026 222.862314 298.681263 237.122346 273.301805 262.501805 
C 247.922346 287.881263 233.662314 322.308026 233.662314 358.2 
C 233.662314 394.091974 247.922346 428.518737 273.301805 453.898195 
C 298.681263 479.277654 333.108026 493.537686 369 493.537686 
z
" style="fill:#1f77b4;opacity:0.5;stroke:#1f77b4;stroke-linejoin:miter;"/>
   </g>
  </g>
 </g>
 <defs>
  <clipPath id="p4f656d4ae0">
   <rect height="543.6" width="543.6" x="97.2" y="86.4"/>
  </clipPath>
 </defs>
</svg>
