<?xml version="1.0" encoding="utf-8" standalone="no"?>
<!DOCTYPE svg PUBLIC "-//W3C//DTD SVG 1.1//EN"
  "http://www.w3.org/Graphics/SVG/1.1/DTD/svg11.dtd">
<!-- Created with matplotlib (https://matplotlib.org/) -->
<svg height="410.4pt" version="1.1" viewBox="0 0 847.985852 410.4" width="847.985852pt" xmlns="http://www.w3.org/2000/svg" xmlns:xlink="http://www.w3.org/1999/xlink">
 <metadata>
  <rdf:RDF xmlns:cc="http://creativecommons.org/ns#" xmlns:dc="http://purl.org/dc/elements/1.1/" xmlns:rdf="http://www.w3.org/1999/02/22-rdf-syntax-ns#">
   <cc:Work>
    <dc:type rdf:resource="http://purl.org/dc/dcmitype/StillImage"/>
    <dc:date>2025-05-19T17:49:46.270223</dc:date>
    <dc:format>image/svg+xml</dc:format>
    <dc:creator>
     <cc:Agent>
      <dc:title>Matplotlib v3.3.4, https://matplotlib.org/</dc:title>
     </cc:Agent>
    </dc:creator>
   </cc:Work>
  </rdf:RDF>
 </metadata>
 <defs>
  <style type="text/css">*{stroke-linecap:butt;stroke-linejoin:round;}</style>
 </defs>
 <g id="figure_1">
  <g id="patch_1">
   <path d="M 0 410.4 
L 847.985852 410.4 
L 847.985852 0 
L 0 0 
z
" style="fill:#ffffff;"/>
  </g>
  <g id="axes_1">
   <g id="line2d_1">
    <path clip-path="url(#p72e58149cf)" d="M 126.396336 353.7 
L 621.225771 353.7 
" style="fill:none;stroke:#d3d3d3;stroke-linecap:square;stroke-width:5;"/>
   </g>
   <g id="line2d_2">
    <path clip-path="url(#p72e58149cf)" d="M 126.396336 254.7 
L 840.785852 254.7 
" style="fill:none;stroke:#d3d3d3;stroke-linecap:square;stroke-width:5;"/>
   </g>
   <g id="line2d_3">
    <path clip-path="url(#p72e58149cf)" d="M 126.396336 155.7 
L 621.225771 155.7 
" style="fill:none;stroke:#d3d3d3;stroke-linecap:square;stroke-width:5;"/>
   </g>
   <g id="line2d_4">
    <path clip-path="url(#p72e58149cf)" d="M 126.396336 56.7 
L 660.549965 56.7 
" style="fill:none;stroke:#d3d3d3;stroke-linecap:square;stroke-width:5;"/>
   </g>
   <g id="patch_2">
    <path clip-path="url(#p72e58149cf)" d="M 128.526396 383.4 
L 225.853775 383.4 
L 225.853775 324 
L 128.526396 324 
z
" style="fill:#808080;stroke:#000000;stroke-linejoin:miter;"/>
   </g>
   <g id="patch_3">
    <path clip-path="url(#p72e58149cf)" d="M 128.526396 383.4 
C 128.656757 383.4 128.781797 380.270621 128.873976 374.701071 
C 128.966156 369.131522 129.017949 361.576532 129.017949 353.7 
C 129.017949 345.823468 128.966156 338.268478 128.873976 332.698929 
C 128.781797 327.129379 128.656757 324 128.526396 324 
C 128.396035 324 128.270995 327.129379 128.178816 332.698929 
C 128.086637 338.268478 128.034844 345.823468 128.034844 353.7 
C 128.034844 361.576532 128.086637 369.131522 128.178816 374.701071 
C 128.270995 380.270621 128.396035 383.4 128.526396 383.4 
z
" style="fill:#808080;stroke:#000000;stroke-linejoin:miter;"/>
   </g>
   <g id="patch_4">
    <path clip-path="url(#p72e58149cf)" d="M 225.853775 383.4 
C 225.984136 383.4 226.109176 380.270621 226.201355 374.701071 
C 226.293535 369.131522 226.345328 361.576532 226.345328 353.7 
C 226.345328 345.823468 226.293535 338.268478 226.201355 332.698929 
C 226.109176 327.129379 225.984136 324 225.853775 324 
C 225.723414 324 225.598374 327.129379 225.506195 332.698929 
C 225.414016 338.268478 225.362223 345.823468 225.362223 353.7 
C 225.362223 361.576532 225.414016 369.131522 225.506195 374.701071 
C 225.598374 380.270621 225.723414 383.4 225.853775 383.4 
z
" style="fill:#808080;stroke:#000000;stroke-linejoin:miter;"/>
   </g>
   <g id="patch_5">
    <path clip-path="url(#p72e58149cf)" d="M 230.113896 383.4 
L 330.718291 383.4 
L 330.718291 324 
L 230.113896 324 
z
" style="fill:#808080;stroke:#000000;stroke-linejoin:miter;"/>
   </g>
   <g id="patch_6">
    <path clip-path="url(#p72e58149cf)" d="M 230.113896 383.4 
C 230.244257 383.4 230.369297 380.270621 230.461476 374.701071 
C 230.553656 369.131522 230.605449 361.576532 230.605449 353.7 
C 230.605449 345.823468 230.553656 338.268478 230.461476 332.698929 
C 230.369297 327.129379 230.244257 324 230.113896 324 
C 229.983535 324 229.858495 327.129379 229.766316 332.698929 
C 229.674137 338.268478 229.622344 345.823468 229.622344 353.7 
C 229.622344 361.576532 229.674137 369.131522 229.766316 374.701071 
C 229.858495 380.270621 229.983535 383.4 230.113896 383.4 
z
" style="fill:#808080;stroke:#000000;stroke-linejoin:miter;"/>
   </g>
   <g id="patch_7">
    <path clip-path="url(#p72e58149cf)" d="M 330.718291 383.4 
C 330.848653 383.4 330.973692 380.270621 331.065871 374.701071 
C 331.158051 369.131522 331.209844 361.576532 331.209844 353.7 
C 331.209844 345.823468 331.158051 338.268478 331.065871 332.698929 
C 330.973692 327.129379 330.848653 324 330.718291 324 
C 330.58793 324 330.462891 327.129379 330.370711 332.698929 
C 330.278532 338.268478 330.226739 345.823468 330.226739 353.7 
C 330.226739 361.576532 330.278532 369.131522 330.370711 374.701071 
C 330.462891 380.270621 330.58793 383.4 330.718291 383.4 
z
" style="fill:#808080;stroke:#000000;stroke-linejoin:miter;"/>
   </g>
   <g id="patch_8">
    <path clip-path="url(#p72e58149cf)" d="M 334.978412 383.4 
L 435.582807 383.4 
L 435.582807 324 
L 334.978412 324 
z
" style="fill:#808080;stroke:#000000;stroke-linejoin:miter;"/>
   </g>
   <g id="patch_9">
    <path clip-path="url(#p72e58149cf)" d="M 334.978412 383.4 
C 335.108774 383.4 335.233813 380.270621 335.325992 374.701071 
C 335.418172 369.131522 335.469965 361.576532 335.469965 353.7 
C 335.469965 345.823468 335.418172 338.268478 335.325992 332.698929 
C 335.233813 327.129379 335.108774 324 334.978412 324 
C 334.848051 324 334.723012 327.129379 334.630832 332.698929 
C 334.538653 338.268478 334.48686 345.823468 334.48686 353.7 
C 334.48686 361.576532 334.538653 369.131522 334.630832 374.701071 
C 334.723012 380.270621 334.848051 383.4 334.978412 383.4 
z
" style="fill:#808080;stroke:#000000;stroke-linejoin:miter;"/>
   </g>
   <g id="patch_10">
    <path clip-path="url(#p72e58149cf)" d="M 435.582807 383.4 
C 435.713169 383.4 435.838208 380.270621 435.930388 374.701071 
C 436.022567 369.131522 436.07436 361.576532 436.07436 353.7 
C 436.07436 345.823468 436.022567 338.268478 435.930388 332.698929 
C 435.838208 327.129379 435.713169 324 435.582807 324 
C 435.452446 324 435.327407 327.129379 435.235227 332.698929 
C 435.143048 338.268478 435.091255 345.823468 435.091255 353.7 
C 435.091255 361.576532 435.143048 369.131522 435.235227 374.701071 
C 435.327407 380.270621 435.452446 383.4 435.582807 383.4 
z
" style="fill:#808080;stroke:#000000;stroke-linejoin:miter;"/>
   </g>
   <g id="patch_11">
    <path clip-path="url(#p72e58149cf)" d="M 438.20442 383.4 
L 610.90317 383.4 
L 610.90317 324 
L 438.20442 324 
z
" style="fill:#808080;stroke:#000000;stroke-linejoin:miter;"/>
   </g>
   <g id="patch_12">
    <path clip-path="url(#p72e58149cf)" d="M 438.20442 383.4 
C 438.334782 383.4 438.459821 380.270621 438.552 374.701071 
C 438.64418 369.131522 438.695973 361.576532 438.695973 353.7 
C 438.695973 345.823468 438.64418 338.268478 438.552 332.698929 
C 438.459821 327.129379 438.334782 324 438.20442 324 
C 438.074059 324 437.94902 327.129379 437.85684 332.698929 
C 437.764661 338.268478 437.712868 345.823468 437.712868 353.7 
C 437.712868 361.576532 437.764661 369.131522 437.85684 374.701071 
C 437.94902 380.270621 438.074059 383.4 438.20442 383.4 
z
" style="fill:#808080;stroke:#000000;stroke-linejoin:miter;"/>
   </g>
   <g id="patch_13">
    <path clip-path="url(#p72e58149cf)" d="M 610.90317 383.4 
C 611.033532 383.4 611.158571 380.270621 611.25075 374.701071 
C 611.34293 369.131522 611.394723 361.576532 611.394723 353.7 
C 611.394723 345.823468 611.34293 338.268478 611.25075 332.698929 
C 611.158571 327.129379 611.033532 324 610.90317 324 
C 610.772809 324 610.64777 327.129379 610.55559 332.698929 
C 610.463411 338.268478 610.411618 345.823468 610.411618 353.7 
C 610.411618 361.576532 610.463411 369.131522 610.55559 374.701071 
C 610.64777 380.270621 610.772809 383.4 610.90317 383.4 
z
" style="fill:#808080;stroke:#000000;stroke-linejoin:miter;"/>
   </g>
   <g id="patch_14">
    <path clip-path="url(#p72e58149cf)" d="M 133.44192 284.4 
L 235.684824 284.4 
L 235.684824 225 
L 133.44192 225 
z
" style="fill:#808080;stroke:#000000;stroke-linejoin:miter;"/>
   </g>
   <g id="patch_15">
    <path clip-path="url(#p72e58149cf)" d="M 133.44192 284.4 
C 133.572282 284.4 133.697321 281.270621 133.7895 275.701071 
C 133.88168 270.131522 133.933473 262.576532 133.933473 254.7 
C 133.933473 246.823468 133.88168 239.268478 133.7895 233.698929 
C 133.697321 228.129379 133.572282 225 133.44192 225 
C 133.311559 225 133.18652 228.129379 133.09434 233.698929 
C 133.002161 239.268478 132.950368 246.823468 132.950368 254.7 
C 132.950368 262.576532 133.002161 270.131522 133.09434 275.701071 
C 133.18652 281.270621 133.311559 284.4 133.44192 284.4 
z
" style="fill:#808080;stroke:#000000;stroke-linejoin:miter;"/>
   </g>
   <g id="patch_16">
    <path clip-path="url(#p72e58149cf)" d="M 235.684824 284.4 
C 235.815185 284.4 235.940224 281.270621 236.032404 275.701071 
C 236.124583 270.131522 236.176376 262.576532 236.176376 254.7 
C 236.176376 246.823468 236.124583 239.268478 236.032404 233.698929 
C 235.940224 228.129379 235.815185 225 235.684824 225 
C 235.554462 225 235.429423 228.129379 235.337244 233.698929 
C 235.245064 239.268478 235.193271 246.823468 235.193271 254.7 
C 235.193271 262.576532 235.245064 270.131522 235.337244 275.701071 
C 235.429423 281.270621 235.554462 284.4 235.684824 284.4 
z
" style="fill:#808080;stroke:#000000;stroke-linejoin:miter;"/>
   </g>
   <g id="patch_17">
    <path clip-path="url(#p72e58149cf)" d="M 251.414501 284.4 
L 340.54934 284.4 
L 340.54934 225 
L 251.414501 225 
z
" style="fill:#808080;stroke:#000000;stroke-linejoin:miter;"/>
   </g>
   <g id="patch_18">
    <path clip-path="url(#p72e58149cf)" d="M 251.414501 284.4 
C 251.544862 284.4 251.669902 281.270621 251.762081 275.701071 
C 251.85426 270.131522 251.906053 262.576532 251.906053 254.7 
C 251.906053 246.823468 251.85426 239.268478 251.762081 233.698929 
C 251.669902 228.129379 251.544862 225 251.414501 225 
C 251.28414 225 251.1591 228.129379 251.066921 233.698929 
C 250.974742 239.268478 250.922949 246.823468 250.922949 254.7 
C 250.922949 262.576532 250.974742 270.131522 251.066921 275.701071 
C 251.1591 281.270621 251.28414 284.4 251.414501 284.4 
z
" style="fill:#808080;stroke:#000000;stroke-linejoin:miter;"/>
   </g>
   <g id="patch_19">
    <path clip-path="url(#p72e58149cf)" d="M 340.54934 284.4 
C 340.679701 284.4 340.80474 281.270621 340.89692 275.701071 
C 340.989099 270.131522 341.040892 262.576532 341.040892 254.7 
C 341.040892 246.823468 340.989099 239.268478 340.89692 233.698929 
C 340.80474 228.129379 340.679701 225 340.54934 225 
C 340.418978 225 340.293939 228.129379 340.20176 233.698929 
C 340.10958 239.268478 340.057787 246.823468 340.057787 254.7 
C 340.057787 262.576532 340.10958 270.131522 340.20176 275.701071 
C 340.293939 281.270621 340.418978 284.4 340.54934 284.4 
z
" style="fill:#808080;stroke:#000000;stroke-linejoin:miter;"/>
   </g>
   <g id="patch_20">
    <path clip-path="url(#p72e58149cf)" d="M 353.002001 284.4 
L 450.32938 284.4 
L 450.32938 225 
L 353.002001 225 
z
" style="fill:#808080;stroke:#000000;stroke-linejoin:miter;"/>
   </g>
   <g id="patch_21">
    <path clip-path="url(#p72e58149cf)" d="M 353.002001 284.4 
C 353.132362 284.4 353.257402 281.270621 353.349581 275.701071 
C 353.44176 270.131522 353.493553 262.576532 353.493553 254.7 
C 353.493553 246.823468 353.44176 239.268478 353.349581 233.698929 
C 353.257402 228.129379 353.132362 225 353.002001 225 
C 352.87164 225 352.7466 228.129379 352.654421 233.698929 
C 352.562242 239.268478 352.510449 246.823468 352.510449 254.7 
C 352.510449 262.576532 352.562242 270.131522 352.654421 275.701071 
C 352.7466 281.270621 352.87164 284.4 353.002001 284.4 
z
" style="fill:#808080;stroke:#000000;stroke-linejoin:miter;"/>
   </g>
   <g id="patch_22">
    <path clip-path="url(#p72e58149cf)" d="M 450.32938 284.4 
C 450.459741 284.4 450.584781 281.270621 450.67696 275.701071 
C 450.769139 270.131522 450.820932 262.576532 450.820932 254.7 
C 450.820932 246.823468 450.769139 239.268478 450.67696 233.698929 
C 450.584781 228.129379 450.459741 225 450.32938 225 
C 450.199019 225 450.073979 228.129379 449.9818 233.698929 
C 449.889621 239.268478 449.837828 246.823468 449.837828 254.7 
C 449.837828 262.576532 449.889621 270.131522 449.9818 275.701071 
C 450.073979 281.270621 450.199019 284.4 450.32938 284.4 
z
" style="fill:#808080;stroke:#000000;stroke-linejoin:miter;"/>
   </g>
   <g id="patch_23">
    <path clip-path="url(#p72e58149cf)" d="M 462.782041 284.4 
L 558.470912 284.4 
L 558.470912 225 
L 462.782041 225 
z
" style="fill:#808080;stroke:#000000;stroke-linejoin:miter;"/>
   </g>
   <g id="patch_24">
    <path clip-path="url(#p72e58149cf)" d="M 462.782041 284.4 
C 462.912403 284.4 463.037442 281.270621 463.129621 275.701071 
C 463.221801 270.131522 463.273594 262.576532 463.273594 254.7 
C 463.273594 246.823468 463.221801 239.268478 463.129621 233.698929 
C 463.037442 228.129379 462.912403 225 462.782041 225 
C 462.65168 225 462.526641 228.129379 462.434461 233.698929 
C 462.342282 239.268478 462.290489 246.823468 462.290489 254.7 
C 462.290489 262.576532 462.342282 270.131522 462.434461 275.701071 
C 462.526641 281.270621 462.65168 284.4 462.782041 284.4 
z
" style="fill:#808080;stroke:#000000;stroke-linejoin:miter;"/>
   </g>
   <g id="patch_25">
    <path clip-path="url(#p72e58149cf)" d="M 558.470912 284.4 
C 558.601274 284.4 558.726313 281.270621 558.818492 275.701071 
C 558.910672 270.131522 558.962465 262.576532 558.962465 254.7 
C 558.962465 246.823468 558.910672 239.268478 558.818492 233.698929 
C 558.726313 228.129379 558.601274 225 558.470912 225 
C 558.340551 225 558.215512 228.129379 558.123332 233.698929 
C 558.031153 239.268478 557.97936 246.823468 557.97936 254.7 
C 557.97936 262.576532 558.031153 270.131522 558.123332 275.701071 
C 558.215512 281.270621 558.340551 284.4 558.470912 284.4 
z
" style="fill:#808080;stroke:#000000;stroke-linejoin:miter;"/>
   </g>
   <g id="patch_26">
    <path clip-path="url(#p72e58149cf)" d="M 566.008049 284.4 
L 660.058412 284.4 
L 660.058412 225 
L 566.008049 225 
z
" style="fill:#808080;stroke:#000000;stroke-linejoin:miter;"/>
   </g>
   <g id="patch_27">
    <path clip-path="url(#p72e58149cf)" d="M 566.008049 284.4 
C 566.138411 284.4 566.26345 281.270621 566.355629 275.701071 
C 566.447809 270.131522 566.499602 262.576532 566.499602 254.7 
C 566.499602 246.823468 566.447809 239.268478 566.355629 233.698929 
C 566.26345 228.129379 566.138411 225 566.008049 225 
C 565.877688 225 565.752649 228.129379 565.660469 233.698929 
C 565.56829 239.268478 565.516497 246.823468 565.516497 254.7 
C 565.516497 262.576532 565.56829 270.131522 565.660469 275.701071 
C 565.752649 281.270621 565.877688 284.4 566.008049 284.4 
z
" style="fill:#808080;stroke:#000000;stroke-linejoin:miter;"/>
   </g>
   <g id="patch_28">
    <path clip-path="url(#p72e58149cf)" d="M 660.058412 284.4 
C 660.188774 284.4 660.313813 281.270621 660.405992 275.701071 
C 660.498172 270.131522 660.549965 262.576532 660.549965 254.7 
C 660.549965 246.823468 660.498172 239.268478 660.405992 233.698929 
C 660.313813 228.129379 660.188774 225 660.058412 225 
C 659.928051 225 659.803012 228.129379 659.710832 233.698929 
C 659.618653 239.268478 659.56686 246.823468 659.56686 254.7 
C 659.56686 262.576532 659.618653 270.131522 659.710832 275.701071 
C 659.803012 281.270621 659.928051 284.4 660.058412 284.4 
z
" style="fill:#808080;stroke:#000000;stroke-linejoin:miter;"/>
   </g>
   <g id="patch_29">
    <path clip-path="url(#p72e58149cf)" d="M 665.957041 284.4 
L 840.294299 284.4 
L 840.294299 225 
L 665.957041 225 
z
" style="fill:#808080;stroke:#000000;stroke-linejoin:miter;"/>
   </g>
   <g id="patch_30">
    <path clip-path="url(#p72e58149cf)" d="M 665.957041 284.4 
C 666.087403 284.4 666.212442 281.270621 666.304621 275.701071 
C 666.396801 270.131522 666.448594 262.576532 666.448594 254.7 
C 666.448594 246.823468 666.396801 239.268478 666.304621 233.698929 
C 666.212442 228.129379 666.087403 225 665.957041 225 
C 665.82668 225 665.701641 228.129379 665.609461 233.698929 
C 665.517282 239.268478 665.465489 246.823468 665.465489 254.7 
C 665.465489 262.576532 665.517282 270.131522 665.609461 275.701071 
C 665.701641 281.270621 665.82668 284.4 665.957041 284.4 
z
" style="fill:#808080;stroke:#000000;stroke-linejoin:miter;"/>
   </g>
   <g id="patch_31">
    <path clip-path="url(#p72e58149cf)" d="M 840.294299 284.4 
C 840.424661 284.4 840.5497 281.270621 840.641879 275.701071 
C 840.734059 270.131522 840.785852 262.576532 840.785852 254.7 
C 840.785852 246.823468 840.734059 239.268478 840.641879 233.698929 
C 840.5497 228.129379 840.424661 225 840.294299 225 
C 840.163938 225 840.038899 228.129379 839.946719 233.698929 
C 839.85454 239.268478 839.802747 246.823468 839.802747 254.7 
C 839.802747 262.576532 839.85454 270.131522 839.946719 275.701071 
C 840.038899 281.270621 840.163938 284.4 840.294299 284.4 
z
" style="fill:#808080;stroke:#000000;stroke-linejoin:miter;"/>
   </g>
   <g id="patch_32">
    <path clip-path="url(#p72e58149cf)" d="M 128.526396 185.4 
L 225.853775 185.4 
L 225.853775 126 
L 128.526396 126 
z
" style="fill:#808080;stroke:#000000;stroke-linejoin:miter;"/>
   </g>
   <g id="patch_33">
    <path clip-path="url(#p72e58149cf)" d="M 128.526396 185.4 
C 128.656757 185.4 128.781797 182.270621 128.873976 176.701071 
C 128.966156 171.131522 129.017949 163.576532 129.017949 155.7 
C 129.017949 147.823468 128.966156 140.268478 128.873976 134.698929 
C 128.781797 129.129379 128.656757 126 128.526396 126 
C 128.396035 126 128.270995 129.129379 128.178816 134.698929 
C 128.086637 140.268478 128.034844 147.823468 128.034844 155.7 
C 128.034844 163.576532 128.086637 171.131522 128.178816 176.701071 
C 128.270995 182.270621 128.396035 185.4 128.526396 185.4 
z
" style="fill:#808080;stroke:#000000;stroke-linejoin:miter;"/>
   </g>
   <g id="patch_34">
    <path clip-path="url(#p72e58149cf)" d="M 225.853775 185.4 
C 225.984136 185.4 226.109176 182.270621 226.201355 176.701071 
C 226.293535 171.131522 226.345328 163.576532 226.345328 155.7 
C 226.345328 147.823468 226.293535 140.268478 226.201355 134.698929 
C 226.109176 129.129379 225.984136 126 225.853775 126 
C 225.723414 126 225.598374 129.129379 225.506195 134.698929 
C 225.414016 140.268478 225.362223 147.823468 225.362223 155.7 
C 225.362223 163.576532 225.414016 171.131522 225.506195 176.701071 
C 225.598374 182.270621 225.723414 185.4 225.853775 185.4 
z
" style="fill:#808080;stroke:#000000;stroke-linejoin:miter;"/>
   </g>
   <g id="patch_35">
    <path clip-path="url(#p72e58149cf)" d="M 230.113896 185.4 
L 330.718291 185.4 
L 330.718291 126 
L 230.113896 126 
z
" style="fill:#808080;stroke:#000000;stroke-linejoin:miter;"/>
   </g>
   <g id="patch_36">
    <path clip-path="url(#p72e58149cf)" d="M 230.113896 185.4 
C 230.244257 185.4 230.369297 182.270621 230.461476 176.701071 
C 230.553656 171.131522 230.605449 163.576532 230.605449 155.7 
C 230.605449 147.823468 230.553656 140.268478 230.461476 134.698929 
C 230.369297 129.129379 230.244257 126 230.113896 126 
C 229.983535 126 229.858495 129.129379 229.766316 134.698929 
C 229.674137 140.268478 229.622344 147.823468 229.622344 155.7 
C 229.622344 163.576532 229.674137 171.131522 229.766316 176.701071 
C 229.858495 182.270621 229.983535 185.4 230.113896 185.4 
z
" style="fill:#808080;stroke:#000000;stroke-linejoin:miter;"/>
   </g>
   <g id="patch_37">
    <path clip-path="url(#p72e58149cf)" d="M 330.718291 185.4 
C 330.848653 185.4 330.973692 182.270621 331.065871 176.701071 
C 331.158051 171.131522 331.209844 163.576532 331.209844 155.7 
C 331.209844 147.823468 331.158051 140.268478 331.065871 134.698929 
C 330.973692 129.129379 330.848653 126 330.718291 126 
C 330.58793 126 330.462891 129.129379 330.370711 134.698929 
C 330.278532 140.268478 330.226739 147.823468 330.226739 155.7 
C 330.226739 163.576532 330.278532 171.131522 330.370711 176.701071 
C 330.462891 182.270621 330.58793 185.4 330.718291 185.4 
z
" style="fill:#808080;stroke:#000000;stroke-linejoin:miter;"/>
   </g>
   <g id="patch_38">
    <path clip-path="url(#p72e58149cf)" d="M 334.978412 185.4 
L 435.582807 185.4 
L 435.582807 126 
L 334.978412 126 
z
" style="fill:#808080;stroke:#000000;stroke-linejoin:miter;"/>
   </g>
   <g id="patch_39">
    <path clip-path="url(#p72e58149cf)" d="M 334.978412 185.4 
C 335.108774 185.4 335.233813 182.270621 335.325992 176.701071 
C 335.418172 171.131522 335.469965 163.576532 335.469965 155.7 
C 335.469965 147.823468 335.418172 140.268478 335.325992 134.698929 
C 335.233813 129.129379 335.108774 126 334.978412 126 
C 334.848051 126 334.723012 129.129379 334.630832 134.698929 
C 334.538653 140.268478 334.48686 147.823468 334.48686 155.7 
C 334.48686 163.576532 334.538653 171.131522 334.630832 176.701071 
C 334.723012 182.270621 334.848051 185.4 334.978412 185.4 
z
" style="fill:#808080;stroke:#000000;stroke-linejoin:miter;"/>
   </g>
   <g id="patch_40">
    <path clip-path="url(#p72e58149cf)" d="M 435.582807 185.4 
C 435.713169 185.4 435.838208 182.270621 435.930388 176.701071 
C 436.022567 171.131522 436.07436 163.576532 436.07436 155.7 
C 436.07436 147.823468 436.022567 140.268478 435.930388 134.698929 
C 435.838208 129.129379 435.713169 126 435.582807 126 
C 435.452446 126 435.327407 129.129379 435.235227 134.698929 
C 435.143048 140.268478 435.091255 147.823468 435.091255 155.7 
C 435.091255 163.576532 435.143048 171.131522 435.235227 176.701071 
C 435.327407 182.270621 435.452446 185.4 435.582807 185.4 
z
" style="fill:#808080;stroke:#000000;stroke-linejoin:miter;"/>
   </g>
   <g id="patch_41">
    <path clip-path="url(#p72e58149cf)" d="M 438.20442 185.4 
L 610.90317 185.4 
L 610.90317 126 
L 438.20442 126 
z
" style="fill:#808080;stroke:#000000;stroke-linejoin:miter;"/>
   </g>
   <g id="patch_42">
    <path clip-path="url(#p72e58149cf)" d="M 438.20442 185.4 
C 438.334782 185.4 438.459821 182.270621 438.552 176.701071 
C 438.64418 171.131522 438.695973 163.576532 438.695973 155.7 
C 438.695973 147.823468 438.64418 140.268478 438.552 134.698929 
C 438.459821 129.129379 438.334782 126 438.20442 126 
C 438.074059 126 437.94902 129.129379 437.85684 134.698929 
C 437.764661 140.268478 437.712868 147.823468 437.712868 155.7 
C 437.712868 163.576532 437.764661 171.131522 437.85684 176.701071 
C 437.94902 182.270621 438.074059 185.4 438.20442 185.4 
z
" style="fill:#808080;stroke:#000000;stroke-linejoin:miter;"/>
   </g>
   <g id="patch_43">
    <path clip-path="url(#p72e58149cf)" d="M 610.90317 185.4 
C 611.033532 185.4 611.158571 182.270621 611.25075 176.701071 
C 611.34293 171.131522 611.394723 163.576532 611.394723 155.7 
C 611.394723 147.823468 611.34293 140.268478 611.25075 134.698929 
C 611.158571 129.129379 611.033532 126 610.90317 126 
C 610.772809 126 610.64777 129.129379 610.55559 134.698929 
C 610.463411 140.268478 610.411618 147.823468 610.411618 155.7 
C 610.411618 163.576532 610.463411 171.131522 610.55559 176.701071 
C 610.64777 182.270621 610.772809 185.4 610.90317 185.4 
z
" style="fill:#808080;stroke:#000000;stroke-linejoin:miter;"/>
   </g>
   <g id="patch_44">
    <path clip-path="url(#p72e58149cf)" d="M 139.995953 86.4 
L 240.600348 86.4 
L 240.600348 27 
L 139.995953 27 
z
" style="fill:#808080;stroke:#000000;stroke-linejoin:miter;"/>
   </g>
   <g id="patch_45">
    <path clip-path="url(#p72e58149cf)" d="M 139.995953 86.4 
C 140.126314 86.4 140.251353 83.270621 140.343533 77.701071 
C 140.435712 72.131522 140.487505 64.576532 140.487505 56.7 
C 140.487505 48.823468 140.435712 41.268478 140.343533 35.698929 
C 140.251353 30.129379 140.126314 27 139.995953 27 
C 139.865591 27 139.740552 30.129379 139.648373 35.698929 
C 139.556193 41.268478 139.5044 48.823468 139.5044 56.7 
C 139.5044 64.576532 139.556193 72.131522 139.648373 77.701071 
C 139.740552 83.270621 139.865591 86.4 139.995953 86.4 
z
" style="fill:#808080;stroke:#000000;stroke-linejoin:miter;"/>
   </g>
   <g id="patch_46">
    <path clip-path="url(#p72e58149cf)" d="M 240.600348 86.4 
C 240.730709 86.4 240.855749 83.270621 240.947928 77.701071 
C 241.040107 72.131522 241.0919 64.576532 241.0919 56.7 
C 241.0919 48.823468 241.040107 41.268478 240.947928 35.698929 
C 240.855749 30.129379 240.730709 27 240.600348 27 
C 240.469987 27 240.344947 30.129379 240.252768 35.698929 
C 240.160588 41.268478 240.108795 48.823468 240.108795 56.7 
C 240.108795 64.576532 240.160588 72.131522 240.252768 77.701071 
C 240.344947 83.270621 240.469987 86.4 240.600348 86.4 
z
" style="fill:#808080;stroke:#000000;stroke-linejoin:miter;"/>
   </g>
   <g id="patch_47">
    <path clip-path="url(#p72e58149cf)" d="M 244.860469 86.4 
L 347.103372 86.4 
L 347.103372 27 
L 244.860469 27 
z
" style="fill:#808080;stroke:#000000;stroke-linejoin:miter;"/>
   </g>
   <g id="patch_48">
    <path clip-path="url(#p72e58149cf)" d="M 244.860469 86.4 
C 244.99083 86.4 245.115869 83.270621 245.208049 77.701071 
C 245.300228 72.131522 245.352021 64.576532 245.352021 56.7 
C 245.352021 48.823468 245.300228 41.268478 245.208049 35.698929 
C 245.115869 30.129379 244.99083 27 244.860469 27 
C 244.730108 27 244.605068 30.129379 244.512889 35.698929 
C 244.420709 41.268478 244.368916 48.823468 244.368916 56.7 
C 244.368916 64.576532 244.420709 72.131522 244.512889 77.701071 
C 244.605068 83.270621 244.730108 86.4 244.860469 86.4 
z
" style="fill:#808080;stroke:#000000;stroke-linejoin:miter;"/>
   </g>
   <g id="patch_49">
    <path clip-path="url(#p72e58149cf)" d="M 347.103372 86.4 
C 347.233733 86.4 347.358773 83.270621 347.450952 77.701071 
C 347.543131 72.131522 347.594924 64.576532 347.594924 56.7 
C 347.594924 48.823468 347.543131 41.268478 347.450952 35.698929 
C 347.358773 30.129379 347.233733 27 347.103372 27 
C 346.973011 27 346.847971 30.129379 346.755792 35.698929 
C 346.663613 41.268478 346.61182 48.823468 346.61182 56.7 
C 346.61182 64.576532 346.663613 72.131522 346.755792 77.701071 
C 346.847971 83.270621 346.973011 86.4 347.103372 86.4 
z
" style="fill:#808080;stroke:#000000;stroke-linejoin:miter;"/>
   </g>
   <g id="patch_50">
    <path clip-path="url(#p72e58149cf)" d="M 351.363493 86.4 
L 455.244904 86.4 
L 455.244904 27 
L 351.363493 27 
z
" style="fill:#808080;stroke:#000000;stroke-linejoin:miter;"/>
   </g>
   <g id="patch_51">
    <path clip-path="url(#p72e58149cf)" d="M 351.363493 86.4 
C 351.493854 86.4 351.618894 83.270621 351.711073 77.701071 
C 351.803252 72.131522 351.855045 64.576532 351.855045 56.7 
C 351.855045 48.823468 351.803252 41.268478 351.711073 35.698929 
C 351.618894 30.129379 351.493854 27 351.363493 27 
C 351.233132 27 351.108092 30.129379 351.015913 35.698929 
C 350.923734 41.268478 350.871941 48.823468 350.871941 56.7 
C 350.871941 64.576532 350.923734 72.131522 351.015913 77.701071 
C 351.108092 83.270621 351.233132 86.4 351.363493 86.4 
z
" style="fill:#808080;stroke:#000000;stroke-linejoin:miter;"/>
   </g>
   <g id="patch_52">
    <path clip-path="url(#p72e58149cf)" d="M 455.244904 86.4 
C 455.375265 86.4 455.500305 83.270621 455.592484 77.701071 
C 455.684664 72.131522 455.736457 64.576532 455.736457 56.7 
C 455.736457 48.823468 455.684664 41.268478 455.592484 35.698929 
C 455.500305 30.129379 455.375265 27 455.244904 27 
C 455.114543 27 454.989503 30.129379 454.897324 35.698929 
C 454.805145 41.268478 454.753352 48.823468 454.753352 56.7 
C 454.753352 64.576532 454.805145 72.131522 454.897324 77.701071 
C 454.989503 83.270621 455.114543 86.4 455.244904 86.4 
z
" style="fill:#808080;stroke:#000000;stroke-linejoin:miter;"/>
   </g>
   <g id="patch_53">
    <path clip-path="url(#p72e58149cf)" d="M 457.866517 86.4 
L 638.757807 86.4 
L 638.757807 27 
L 457.866517 27 
z
" style="fill:#808080;stroke:#000000;stroke-linejoin:miter;"/>
   </g>
   <g id="patch_54">
    <path clip-path="url(#p72e58149cf)" d="M 457.866517 86.4 
C 457.996878 86.4 458.121918 83.270621 458.214097 77.701071 
C 458.306276 72.131522 458.35807 64.576532 458.35807 56.7 
C 458.35807 48.823468 458.306276 41.268478 458.214097 35.698929 
C 458.121918 30.129379 457.996878 27 457.866517 27 
C 457.736156 27 457.611116 30.129379 457.518937 35.698929 
C 457.426758 41.268478 457.374965 48.823468 457.374965 56.7 
C 457.374965 64.576532 457.426758 72.131522 457.518937 77.701071 
C 457.611116 83.270621 457.736156 86.4 457.866517 86.4 
z
" style="fill:#808080;stroke:#000000;stroke-linejoin:miter;"/>
   </g>
   <g id="patch_55">
    <path clip-path="url(#p72e58149cf)" d="M 638.757807 86.4 
C 638.888169 86.4 639.013208 83.270621 639.105388 77.701071 
C 639.197567 72.131522 639.24936 64.576532 639.24936 56.7 
C 639.24936 48.823468 639.197567 41.268478 639.105388 35.698929 
C 639.013208 30.129379 638.888169 27 638.757807 27 
C 638.627446 27 638.502407 30.129379 638.410227 35.698929 
C 638.318048 41.268478 638.266255 48.823468 638.266255 56.7 
C 638.266255 64.576532 638.318048 72.131522 638.410227 77.701071 
C 638.502407 83.270621 638.627446 86.4 638.757807 86.4 
z
" style="fill:#808080;stroke:#000000;stroke-linejoin:miter;"/>
   </g>
   <g id="text_1">
    <!-- pbs1.heg.gb -->
    <g transform="translate(21.29625 356.183437)scale(0.09 -0.09)">
     <defs>
      <path d="M 18.109375 8.203125 
L 18.109375 -20.796875 
L 9.078125 -20.796875 
L 9.078125 54.6875 
L 18.109375 54.6875 
L 18.109375 46.390625 
Q 20.953125 51.265625 25.265625 53.625 
Q 29.59375 56 35.59375 56 
Q 45.5625 56 51.78125 48.09375 
Q 58.015625 40.1875 58.015625 27.296875 
Q 58.015625 14.40625 51.78125 6.484375 
Q 45.5625 -1.421875 35.59375 -1.421875 
Q 29.59375 -1.421875 25.265625 0.953125 
Q 20.953125 3.328125 18.109375 8.203125 
z
M 48.6875 27.296875 
Q 48.6875 37.203125 44.609375 42.84375 
Q 40.53125 48.484375 33.40625 48.484375 
Q 26.265625 48.484375 22.1875 42.84375 
Q 18.109375 37.203125 18.109375 27.296875 
Q 18.109375 17.390625 22.1875 11.75 
Q 26.265625 6.109375 33.40625 6.109375 
Q 40.53125 6.109375 44.609375 11.75 
Q 48.6875 17.390625 48.6875 27.296875 
z
" id="DejaVuSans-112"/>
      <path d="M 48.6875 27.296875 
Q 48.6875 37.203125 44.609375 42.84375 
Q 40.53125 48.484375 33.40625 48.484375 
Q 26.265625 48.484375 22.1875 42.84375 
Q 18.109375 37.203125 18.109375 27.296875 
Q 18.109375 17.390625 22.1875 11.75 
Q 26.265625 6.109375 33.40625 6.109375 
Q 40.53125 6.109375 44.609375 11.75 
Q 48.6875 17.390625 48.6875 27.296875 
z
M 18.109375 46.390625 
Q 20.953125 51.265625 25.265625 53.625 
Q 29.59375 56 35.59375 56 
Q 45.5625 56 51.78125 48.09375 
Q 58.015625 40.1875 58.015625 27.296875 
Q 58.015625 14.40625 51.78125 6.484375 
Q 45.5625 -1.421875 35.59375 -1.421875 
Q 29.59375 -1.421875 25.265625 0.953125 
Q 20.953125 3.328125 18.109375 8.203125 
L 18.109375 0 
L 9.078125 0 
L 9.078125 75.984375 
L 18.109375 75.984375 
z
" id="DejaVuSans-98"/>
      <path d="M 44.28125 53.078125 
L 44.28125 44.578125 
Q 40.484375 46.53125 36.375 47.5 
Q 32.28125 48.484375 27.875 48.484375 
Q 21.1875 48.484375 17.84375 46.4375 
Q 14.5 44.390625 14.5 40.28125 
Q 14.5 37.15625 16.890625 35.375 
Q 19.28125 33.59375 26.515625 31.984375 
L 29.59375 31.296875 
Q 39.15625 29.25 43.1875 25.515625 
Q 47.21875 21.78125 47.21875 15.09375 
Q 47.21875 7.46875 41.1875 3.015625 
Q 35.15625 -1.421875 24.609375 -1.421875 
Q 20.21875 -1.421875 15.453125 -0.5625 
Q 10.6875 0.296875 5.421875 2 
L 5.421875 11.28125 
Q 10.40625 8.6875 15.234375 7.390625 
Q 20.0625 6.109375 24.8125 6.109375 
Q 31.15625 6.109375 34.5625 8.28125 
Q 37.984375 10.453125 37.984375 14.40625 
Q 37.984375 18.0625 35.515625 20.015625 
Q 33.0625 21.96875 24.703125 23.78125 
L 21.578125 24.515625 
Q 13.234375 26.265625 9.515625 29.90625 
Q 5.8125 33.546875 5.8125 39.890625 
Q 5.8125 47.609375 11.28125 51.796875 
Q 16.75 56 26.8125 56 
Q 31.78125 56 36.171875 55.265625 
Q 40.578125 54.546875 44.28125 53.078125 
z
" id="DejaVuSans-115"/>
      <path d="M 12.40625 8.296875 
L 28.515625 8.296875 
L 28.515625 63.921875 
L 10.984375 60.40625 
L 10.984375 69.390625 
L 28.421875 72.90625 
L 38.28125 72.90625 
L 38.28125 8.296875 
L 54.390625 8.296875 
L 54.390625 0 
L 12.40625 0 
z
" id="DejaVuSans-49"/>
      <path d="M 10.6875 12.40625 
L 21 12.40625 
L 21 0 
L 10.6875 0 
z
" id="DejaVuSans-46"/>
      <path d="M 54.890625 33.015625 
L 54.890625 0 
L 45.90625 0 
L 45.90625 32.71875 
Q 45.90625 40.484375 42.875 44.328125 
Q 39.84375 48.1875 33.796875 48.1875 
Q 26.515625 48.1875 22.3125 43.546875 
Q 18.109375 38.921875 18.109375 30.90625 
L 18.109375 0 
L 9.078125 0 
L 9.078125 75.984375 
L 18.109375 75.984375 
L 18.109375 46.1875 
Q 21.34375 51.125 25.703125 53.5625 
Q 30.078125 56 35.796875 56 
Q 45.21875 56 50.046875 50.171875 
Q 54.890625 44.34375 54.890625 33.015625 
z
" id="DejaVuSans-104"/>
      <path d="M 56.203125 29.59375 
L 56.203125 25.203125 
L 14.890625 25.203125 
Q 15.484375 15.921875 20.484375 11.0625 
Q 25.484375 6.203125 34.421875 6.203125 
Q 39.59375 6.203125 44.453125 7.46875 
Q 49.3125 8.734375 54.109375 11.28125 
L 54.109375 2.78125 
Q 49.265625 0.734375 44.1875 -0.34375 
Q 39.109375 -1.421875 33.890625 -1.421875 
Q 20.796875 -1.421875 13.15625 6.1875 
Q 5.515625 13.8125 5.515625 26.8125 
Q 5.515625 40.234375 12.765625 48.109375 
Q 20.015625 56 32.328125 56 
Q 43.359375 56 49.78125 48.890625 
Q 56.203125 41.796875 56.203125 29.59375 
z
M 47.21875 32.234375 
Q 47.125 39.59375 43.09375 43.984375 
Q 39.0625 48.390625 32.421875 48.390625 
Q 24.90625 48.390625 20.390625 44.140625 
Q 15.875 39.890625 15.1875 32.171875 
z
" id="DejaVuSans-101"/>
      <path d="M 45.40625 27.984375 
Q 45.40625 37.75 41.375 43.109375 
Q 37.359375 48.484375 30.078125 48.484375 
Q 22.859375 48.484375 18.828125 43.109375 
Q 14.796875 37.75 14.796875 27.984375 
Q 14.796875 18.265625 18.828125 12.890625 
Q 22.859375 7.515625 30.078125 7.515625 
Q 37.359375 7.515625 41.375 12.890625 
Q 45.40625 18.265625 45.40625 27.984375 
z
M 54.390625 6.78125 
Q 54.390625 -7.171875 48.1875 -13.984375 
Q 42 -20.796875 29.203125 -20.796875 
Q 24.46875 -20.796875 20.265625 -20.09375 
Q 16.0625 -19.390625 12.109375 -17.921875 
L 12.109375 -9.1875 
Q 16.0625 -11.328125 19.921875 -12.34375 
Q 23.78125 -13.375 27.78125 -13.375 
Q 36.625 -13.375 41.015625 -8.765625 
Q 45.40625 -4.15625 45.40625 5.171875 
L 45.40625 9.625 
Q 42.625 4.78125 38.28125 2.390625 
Q 33.9375 0 27.875 0 
Q 17.828125 0 11.671875 7.65625 
Q 5.515625 15.328125 5.515625 27.984375 
Q 5.515625 40.671875 11.671875 48.328125 
Q 17.828125 56 27.875 56 
Q 33.9375 56 38.28125 53.609375 
Q 42.625 51.21875 45.40625 46.390625 
L 45.40625 54.6875 
L 54.390625 54.6875 
z
" id="DejaVuSans-103"/>
     </defs>
     <use xlink:href="#DejaVuSans-112"/>
     <use x="63.476562" xlink:href="#DejaVuSans-98"/>
     <use x="126.953125" xlink:href="#DejaVuSans-115"/>
     <use x="179.052734" xlink:href="#DejaVuSans-49"/>
     <use x="242.675781" xlink:href="#DejaVuSans-46"/>
     <use x="274.462891" xlink:href="#DejaVuSans-104"/>
     <use x="337.841797" xlink:href="#DejaVuSans-101"/>
     <use x="399.365234" xlink:href="#DejaVuSans-103"/>
     <use x="462.841797" xlink:href="#DejaVuSans-46"/>
     <use x="494.628906" xlink:href="#DejaVuSans-103"/>
     <use x="558.105469" xlink:href="#DejaVuSans-98"/>
    </g>
   </g>
   <g id="text_2">
    <!-- S6.heg.gb -->
    <g transform="translate(31.698281 257.183437)scale(0.09 -0.09)">
     <defs>
      <path d="M 53.515625 70.515625 
L 53.515625 60.890625 
Q 47.90625 63.578125 42.921875 64.890625 
Q 37.9375 66.21875 33.296875 66.21875 
Q 25.25 66.21875 20.875 63.09375 
Q 16.5 59.96875 16.5 54.203125 
Q 16.5 49.359375 19.40625 46.890625 
Q 22.3125 44.4375 30.421875 42.921875 
L 36.375 41.703125 
Q 47.40625 39.59375 52.65625 34.296875 
Q 57.90625 29 57.90625 20.125 
Q 57.90625 9.515625 50.796875 4.046875 
Q 43.703125 -1.421875 29.984375 -1.421875 
Q 24.8125 -1.421875 18.96875 -0.25 
Q 13.140625 0.921875 6.890625 3.21875 
L 6.890625 13.375 
Q 12.890625 10.015625 18.65625 8.296875 
Q 24.421875 6.59375 29.984375 6.59375 
Q 38.421875 6.59375 43.015625 9.90625 
Q 47.609375 13.234375 47.609375 19.390625 
Q 47.609375 24.75 44.3125 27.78125 
Q 41.015625 30.8125 33.5 32.328125 
L 27.484375 33.5 
Q 16.453125 35.6875 11.515625 40.375 
Q 6.59375 45.0625 6.59375 53.421875 
Q 6.59375 63.09375 13.40625 68.65625 
Q 20.21875 74.21875 32.171875 74.21875 
Q 37.3125 74.21875 42.625 73.28125 
Q 47.953125 72.359375 53.515625 70.515625 
z
" id="DejaVuSans-83"/>
      <path d="M 33.015625 40.375 
Q 26.375 40.375 22.484375 35.828125 
Q 18.609375 31.296875 18.609375 23.390625 
Q 18.609375 15.53125 22.484375 10.953125 
Q 26.375 6.390625 33.015625 6.390625 
Q 39.65625 6.390625 43.53125 10.953125 
Q 47.40625 15.53125 47.40625 23.390625 
Q 47.40625 31.296875 43.53125 35.828125 
Q 39.65625 40.375 33.015625 40.375 
z
M 52.59375 71.296875 
L 52.59375 62.3125 
Q 48.875 64.0625 45.09375 64.984375 
Q 41.3125 65.921875 37.59375 65.921875 
Q 27.828125 65.921875 22.671875 59.328125 
Q 17.53125 52.734375 16.796875 39.40625 
Q 19.671875 43.65625 24.015625 45.921875 
Q 28.375 48.1875 33.59375 48.1875 
Q 44.578125 48.1875 50.953125 41.515625 
Q 57.328125 34.859375 57.328125 23.390625 
Q 57.328125 12.15625 50.6875 5.359375 
Q 44.046875 -1.421875 33.015625 -1.421875 
Q 20.359375 -1.421875 13.671875 8.265625 
Q 6.984375 17.96875 6.984375 36.375 
Q 6.984375 53.65625 15.1875 63.9375 
Q 23.390625 74.21875 37.203125 74.21875 
Q 40.921875 74.21875 44.703125 73.484375 
Q 48.484375 72.75 52.59375 71.296875 
z
" id="DejaVuSans-54"/>
     </defs>
     <use xlink:href="#DejaVuSans-83"/>
     <use x="63.476562" xlink:href="#DejaVuSans-54"/>
     <use x="127.099609" xlink:href="#DejaVuSans-46"/>
     <use x="158.886719" xlink:href="#DejaVuSans-104"/>
     <use x="222.265625" xlink:href="#DejaVuSans-101"/>
     <use x="283.789062" xlink:href="#DejaVuSans-103"/>
     <use x="347.265625" xlink:href="#DejaVuSans-46"/>
     <use x="379.052734" xlink:href="#DejaVuSans-103"/>
     <use x="442.529297" xlink:href="#DejaVuSans-98"/>
    </g>
   </g>
   <g id="text_3">
    <!-- AR9.heg.gb -->
    <g transform="translate(25.001719 158.183438)scale(0.09 -0.09)">
     <defs>
      <path d="M 34.1875 63.1875 
L 20.796875 26.90625 
L 47.609375 26.90625 
z
M 28.609375 72.90625 
L 39.796875 72.90625 
L 67.578125 0 
L 57.328125 0 
L 50.6875 18.703125 
L 17.828125 18.703125 
L 11.1875 0 
L 0.78125 0 
z
" id="DejaVuSans-65"/>
      <path d="M 44.390625 34.1875 
Q 47.5625 33.109375 50.5625 29.59375 
Q 53.5625 26.078125 56.59375 19.921875 
L 66.609375 0 
L 56 0 
L 46.6875 18.703125 
Q 43.0625 26.03125 39.671875 28.421875 
Q 36.28125 30.8125 30.421875 30.8125 
L 19.671875 30.8125 
L 19.671875 0 
L 9.8125 0 
L 9.8125 72.90625 
L 32.078125 72.90625 
Q 44.578125 72.90625 50.734375 67.671875 
Q 56.890625 62.453125 56.890625 51.90625 
Q 56.890625 45.015625 53.6875 40.46875 
Q 50.484375 35.9375 44.390625 34.1875 
z
M 19.671875 64.796875 
L 19.671875 38.921875 
L 32.078125 38.921875 
Q 39.203125 38.921875 42.84375 42.21875 
Q 46.484375 45.515625 46.484375 51.90625 
Q 46.484375 58.296875 42.84375 61.546875 
Q 39.203125 64.796875 32.078125 64.796875 
z
" id="DejaVuSans-82"/>
      <path d="M 10.984375 1.515625 
L 10.984375 10.5 
Q 14.703125 8.734375 18.5 7.8125 
Q 22.3125 6.890625 25.984375 6.890625 
Q 35.75 6.890625 40.890625 13.453125 
Q 46.046875 20.015625 46.78125 33.40625 
Q 43.953125 29.203125 39.59375 26.953125 
Q 35.25 24.703125 29.984375 24.703125 
Q 19.046875 24.703125 12.671875 31.3125 
Q 6.296875 37.9375 6.296875 49.421875 
Q 6.296875 60.640625 12.9375 67.421875 
Q 19.578125 74.21875 30.609375 74.21875 
Q 43.265625 74.21875 49.921875 64.515625 
Q 56.59375 54.828125 56.59375 36.375 
Q 56.59375 19.140625 48.40625 8.859375 
Q 40.234375 -1.421875 26.421875 -1.421875 
Q 22.703125 -1.421875 18.890625 -0.6875 
Q 15.09375 0.046875 10.984375 1.515625 
z
M 30.609375 32.421875 
Q 37.25 32.421875 41.125 36.953125 
Q 45.015625 41.5 45.015625 49.421875 
Q 45.015625 57.28125 41.125 61.84375 
Q 37.25 66.40625 30.609375 66.40625 
Q 23.96875 66.40625 20.09375 61.84375 
Q 16.21875 57.28125 16.21875 49.421875 
Q 16.21875 41.5 20.09375 36.953125 
Q 23.96875 32.421875 30.609375 32.421875 
z
" id="DejaVuSans-57"/>
     </defs>
     <use xlink:href="#DejaVuSans-65"/>
     <use x="68.408203" xlink:href="#DejaVuSans-82"/>
     <use x="137.890625" xlink:href="#DejaVuSans-57"/>
     <use x="201.513672" xlink:href="#DejaVuSans-46"/>
     <use x="233.300781" xlink:href="#DejaVuSans-104"/>
     <use x="296.679688" xlink:href="#DejaVuSans-101"/>
     <use x="358.203125" xlink:href="#DejaVuSans-103"/>
     <use x="421.679688" xlink:href="#DejaVuSans-46"/>
     <use x="453.466797" xlink:href="#DejaVuSans-103"/>
     <use x="516.943359" xlink:href="#DejaVuSans-98"/>
    </g>
   </g>
   <g id="text_4">
    <!-- MarsHill.heg.gb -->
    <g transform="translate(7.2 59.183438)scale(0.09 -0.09)">
     <defs>
      <path d="M 9.8125 72.90625 
L 24.515625 72.90625 
L 43.109375 23.296875 
L 61.8125 72.90625 
L 76.515625 72.90625 
L 76.515625 0 
L 66.890625 0 
L 66.890625 64.015625 
L 48.09375 14.015625 
L 38.1875 14.015625 
L 19.390625 64.015625 
L 19.390625 0 
L 9.8125 0 
z
" id="DejaVuSans-77"/>
      <path d="M 34.28125 27.484375 
Q 23.390625 27.484375 19.1875 25 
Q 14.984375 22.515625 14.984375 16.5 
Q 14.984375 11.71875 18.140625 8.90625 
Q 21.296875 6.109375 26.703125 6.109375 
Q 34.1875 6.109375 38.703125 11.40625 
Q 43.21875 16.703125 43.21875 25.484375 
L 43.21875 27.484375 
z
M 52.203125 31.203125 
L 52.203125 0 
L 43.21875 0 
L 43.21875 8.296875 
Q 40.140625 3.328125 35.546875 0.953125 
Q 30.953125 -1.421875 24.3125 -1.421875 
Q 15.921875 -1.421875 10.953125 3.296875 
Q 6 8.015625 6 15.921875 
Q 6 25.140625 12.171875 29.828125 
Q 18.359375 34.515625 30.609375 34.515625 
L 43.21875 34.515625 
L 43.21875 35.40625 
Q 43.21875 41.609375 39.140625 45 
Q 35.0625 48.390625 27.6875 48.390625 
Q 23 48.390625 18.546875 47.265625 
Q 14.109375 46.140625 10.015625 43.890625 
L 10.015625 52.203125 
Q 14.9375 54.109375 19.578125 55.046875 
Q 24.21875 56 28.609375 56 
Q 40.484375 56 46.34375 49.84375 
Q 52.203125 43.703125 52.203125 31.203125 
z
" id="DejaVuSans-97"/>
      <path d="M 41.109375 46.296875 
Q 39.59375 47.171875 37.8125 47.578125 
Q 36.03125 48 33.890625 48 
Q 26.265625 48 22.1875 43.046875 
Q 18.109375 38.09375 18.109375 28.8125 
L 18.109375 0 
L 9.078125 0 
L 9.078125 54.6875 
L 18.109375 54.6875 
L 18.109375 46.1875 
Q 20.953125 51.171875 25.484375 53.578125 
Q 30.03125 56 36.53125 56 
Q 37.453125 56 38.578125 55.875 
Q 39.703125 55.765625 41.0625 55.515625 
z
" id="DejaVuSans-114"/>
      <path d="M 9.8125 72.90625 
L 19.671875 72.90625 
L 19.671875 43.015625 
L 55.515625 43.015625 
L 55.515625 72.90625 
L 65.375 72.90625 
L 65.375 0 
L 55.515625 0 
L 55.515625 34.71875 
L 19.671875 34.71875 
L 19.671875 0 
L 9.8125 0 
z
" id="DejaVuSans-72"/>
      <path d="M 9.421875 54.6875 
L 18.40625 54.6875 
L 18.40625 0 
L 9.421875 0 
z
M 9.421875 75.984375 
L 18.40625 75.984375 
L 18.40625 64.59375 
L 9.421875 64.59375 
z
" id="DejaVuSans-105"/>
      <path d="M 9.421875 75.984375 
L 18.40625 75.984375 
L 18.40625 0 
L 9.421875 0 
z
" id="DejaVuSans-108"/>
     </defs>
     <use xlink:href="#DejaVuSans-77"/>
     <use x="86.279297" xlink:href="#DejaVuSans-97"/>
     <use x="147.558594" xlink:href="#DejaVuSans-114"/>
     <use x="188.671875" xlink:href="#DejaVuSans-115"/>
     <use x="240.771484" xlink:href="#DejaVuSans-72"/>
     <use x="315.966797" xlink:href="#DejaVuSans-105"/>
     <use x="343.75" xlink:href="#DejaVuSans-108"/>
     <use x="371.533203" xlink:href="#DejaVuSans-108"/>
     <use x="399.316406" xlink:href="#DejaVuSans-46"/>
     <use x="431.103516" xlink:href="#DejaVuSans-104"/>
     <use x="494.482422" xlink:href="#DejaVuSans-101"/>
     <use x="556.005859" xlink:href="#DejaVuSans-103"/>
     <use x="619.482422" xlink:href="#DejaVuSans-46"/>
     <use x="651.269531" xlink:href="#DejaVuSans-103"/>
     <use x="714.746094" xlink:href="#DejaVuSans-98"/>
    </g>
   </g>
  </g>
 </g>
 <defs>
  <clipPath id="p72e58149cf">
   <rect height="396" width="812.7" x="28.085852" y="7.2"/>
  </clipPath>
 </defs>
</svg>
